<svg id="Layer_1" data-name="Layer 1" xmlns="http://www.w3.org/2000/svg" xmlns:xlink="http://www.w3.org/1999/xlink" viewBox="0 0 500 500"><defs><style>.cls-1{fill:url(#linear-gradient);}.cls-2{fill:#fff;}</style><linearGradient id="linear-gradient" x1="196.32" y1="57.02" x2="303.68" y2="442.98" gradientTransform="translate(250 -103.55) rotate(45)" gradientUnits="userSpaceOnUse"><stop offset="0" stop-color="#55d5d8"/><stop offset="0.21" stop-color="#58cdd9"/><stop offset="0.54" stop-color="#61b8db"/><stop offset="0.94" stop-color="#7096df"/><stop offset="1" stop-color="#7390e0"/></linearGradient></defs><circle class="cls-1" cx="250" cy="250" r="200.26" transform="translate(-103.55 250) rotate(-45)"/><path class="cls-2" d="M357,199.42l-87.85-58.59L251.7,129.16a3.05,3.05,0,0,0-3.4,0l-17.44,11.65L143,199.43a6.16,6.16,0,0,0-2.24,4.63V345.43a3.06,3.06,0,0,0,3.06,3.06H258.16c3.27,0,3.22-3.41,3.22-3.41V287.15a3,3,0,0,1,2.14-2.92c6.89-2.07,12.12-5.72,14.19-10.12a3,3,0,0,0-2.81-4.24H226a3,3,0,0,0-2.81,4.24c2.08,4.4,7.3,8.05,14.19,10.12a3,3,0,0,1,2.14,2.9v36.45a3.06,3.06,0,0,1-3.07,3.05H165.63a3.06,3.06,0,0,1-3.06-3.06V214.27a3,3,0,0,1,1.36-2.54l84.37-56.27a3.05,3.05,0,0,1,3.4,0l84.37,56.27a3.06,3.06,0,0,1,1.36,2.55V345.43a3.07,3.07,0,0,0,3.07,3.06h15.73a3.06,3.06,0,0,0,3.06-3.06V204A5.84,5.84,0,0,0,357,199.42Z"/><path class="cls-2" d="M264.58,225.13h0a3.07,3.07,0,0,0-3-2.33h-49.5a3.06,3.06,0,0,0-3,3.87l9.26,34a3.06,3.06,0,0,0,3,2.26h57.26a3.06,3.06,0,0,0,2.95-2.26l9.26-34a3.06,3.06,0,0,0-2.95-3.87h-14.4a3.07,3.07,0,0,0-3,2.33h0A3.06,3.06,0,0,1,264.58,225.13Z"/></svg>