<svg id="svg" version="1.1" xmlns="http://www.w3.org/2000/svg" xmlns:xlink="http://www.w3.org/1999/xlink" width="400" height="138" viewBox="0, 0, 400,138"><g id="svgg"><path id="path0" d="M22.167 0.117 C 21.662 0.148,21.100 0.240,20.917 0.323 C 20.733 0.405,20.321 0.518,20.001 0.574 C 19.301 0.695,18.500 1.033,18.500 1.207 C 18.500 1.277,18.388 1.333,18.251 1.333 C 17.904 1.333,16.667 1.885,16.667 2.039 C 16.667 2.109,16.554 2.167,16.417 2.167 C 16.279 2.167,16.167 2.242,16.167 2.333 C 16.167 2.425,16.060 2.500,15.929 2.500 C 15.798 2.500,15.590 2.600,15.467 2.723 C 15.344 2.846,15.162 2.977,15.062 3.015 C 14.551 3.207,11.333 6.134,11.333 6.407 C 11.333 6.467,11.146 6.703,10.917 6.932 C 10.688 7.161,10.500 7.451,10.500 7.577 C 10.500 7.703,10.441 7.831,10.369 7.861 C 10.161 7.949,9.556 8.878,9.418 9.321 C 9.349 9.543,9.157 9.870,8.991 10.048 C 8.825 10.226,8.640 10.663,8.580 11.018 C 8.520 11.374,8.403 11.707,8.319 11.759 C 8.235 11.811,8.167 11.999,8.167 12.177 C 8.167 12.354,8.092 12.500,8.000 12.500 C 7.908 12.500,7.833 12.673,7.833 12.883 C 7.833 13.094,7.760 13.340,7.671 13.429 C 7.582 13.518,7.459 14.135,7.397 14.801 C 7.335 15.466,7.220 16.050,7.142 16.098 C 6.957 16.213,6.956 121.787,7.142 121.901 C 7.220 121.949,7.333 122.573,7.393 123.286 C 7.453 124.000,7.577 124.608,7.668 124.639 C 7.759 124.669,7.833 124.876,7.833 125.097 C 7.833 125.319,7.908 125.500,8.000 125.500 C 8.092 125.500,8.167 125.688,8.167 125.917 C 8.167 126.146,8.232 126.333,8.312 126.333 C 8.392 126.333,8.508 126.650,8.570 127.037 C 8.632 127.424,8.735 127.780,8.800 127.828 C 8.961 127.950,9.667 129.184,9.780 129.542 C 9.831 129.702,9.938 129.833,10.019 129.833 C 10.100 129.833,10.167 129.911,10.167 130.007 C 10.167 130.189,10.333 130.415,10.958 131.084 C 11.165 131.304,11.333 131.545,11.333 131.619 C 11.333 131.739,11.765 132.225,12.367 132.784 C 12.486 132.894,12.672 133.081,12.779 133.200 C 12.887 133.319,13.242 133.642,13.568 133.917 C 13.894 134.192,14.312 134.548,14.497 134.708 C 14.682 134.869,14.946 135.000,15.083 135.000 C 15.221 135.000,15.333 135.070,15.333 135.155 C 15.333 135.241,15.502 135.364,15.708 135.428 C 15.915 135.492,16.121 135.595,16.167 135.655 C 16.347 135.895,17.272 136.463,17.667 136.576 C 18.336 136.769,19.000 137.073,19.000 137.186 C 19.000 137.244,19.317 137.341,19.703 137.403 C 20.090 137.465,20.462 137.606,20.531 137.716 C 20.708 138.003,386.336 138.010,386.683 137.723 C 386.811 137.617,387.217 137.474,387.583 137.405 C 387.950 137.337,388.496 137.143,388.797 136.974 C 389.097 136.805,389.424 136.667,389.522 136.667 C 389.826 136.667,390.904 136.114,391.167 135.824 C 391.304 135.672,391.598 135.490,391.819 135.421 C 392.041 135.351,392.400 135.115,392.618 134.897 C 392.837 134.679,393.081 134.500,393.162 134.500 C 393.330 134.500,396.167 131.756,396.167 131.593 C 396.167 131.476,396.387 131.194,396.952 130.590 C 397.154 130.373,397.368 130.001,397.428 129.764 C 397.487 129.527,397.603 129.333,397.685 129.333 C 397.766 129.333,397.833 129.232,397.833 129.109 C 397.833 128.986,397.984 128.748,398.169 128.581 C 398.354 128.414,398.551 127.990,398.607 127.639 C 398.663 127.287,398.756 127.000,398.814 127.000 C 398.973 127.000,399.298 126.164,399.430 125.417 C 399.495 125.050,399.631 124.696,399.732 124.631 C 399.996 124.461,399.996 13.539,399.732 13.369 C 399.631 13.304,399.495 12.950,399.430 12.583 C 399.292 11.797,398.971 11.000,398.793 11.000 C 398.723 11.000,398.667 10.818,398.667 10.595 C 398.667 10.373,398.554 10.078,398.417 9.940 C 398.279 9.803,398.167 9.610,398.167 9.512 C 398.167 9.414,398.092 9.333,398.000 9.333 C 397.908 9.333,397.833 9.183,397.833 9.000 C 397.833 8.817,397.766 8.667,397.685 8.667 C 397.603 8.667,397.489 8.479,397.432 8.250 C 397.374 8.021,397.253 7.833,397.163 7.833 C 397.074 7.833,397.000 7.754,397.000 7.658 C 397.000 7.561,396.775 7.242,396.501 6.949 C 396.226 6.656,396.001 6.371,396.001 6.314 C 395.999 6.136,393.949 4.167,393.765 4.167 C 393.720 4.167,393.435 3.923,393.133 3.625 C 392.590 3.090,392.153 2.770,391.667 2.553 C 391.529 2.491,391.379 2.394,391.333 2.338 C 391.203 2.176,389.406 1.333,389.192 1.333 C 389.086 1.333,389.000 1.258,389.000 1.167 C 389.000 1.075,388.850 1.000,388.667 1.000 C 388.483 1.000,388.333 0.934,388.333 0.852 C 388.333 0.771,387.977 0.651,387.542 0.586 C 387.106 0.521,386.696 0.381,386.631 0.275 C 386.522 0.100,25.016 -0.058,22.167 0.117 M98.330 20.125 C 98.314 30.519,89.755 40.518,80.636 40.795 L 78.354 40.865 78.238 40.245 C 77.953 38.723,78.378 35.554,79.255 32.679 C 79.574 31.630,80.915 28.945,81.263 28.656 C 81.393 28.548,81.500 28.390,81.500 28.306 C 81.500 28.221,81.819 27.734,82.208 27.222 C 82.598 26.710,83.076 26.072,83.272 25.805 C 83.932 24.899,84.665 24.169,86.119 22.968 C 87.577 21.763,87.958 21.497,89.041 20.929 C 89.614 20.628,90.346 20.234,90.667 20.052 C 90.987 19.871,91.625 19.588,92.083 19.422 C 92.542 19.257,93.223 18.981,93.598 18.809 C 94.437 18.424,96.289 18.045,97.458 18.019 L 98.333 18.000 98.330 20.125 M225.126 41.708 L 225.083 53.417 223.708 53.465 L 222.333 53.513 222.333 41.757 L 222.333 30.000 223.751 30.000 L 225.169 30.000 225.126 41.708 M276.373 41.674 C 276.423 55.011,276.612 53.570,274.824 53.468 C 274.058 53.425,273.912 53.365,273.884 53.083 C 273.866 52.900,273.804 52.316,273.746 51.784 L 273.641 50.819 273.178 51.451 C 271.010 54.414,266.317 54.659,263.542 51.954 C 263.152 51.575,262.833 51.200,262.833 51.121 C 262.833 51.042,262.657 50.739,262.441 50.447 C 260.378 47.658,260.927 42.008,263.537 39.158 C 266.009 36.460,270.594 36.336,272.871 38.905 C 273.167 39.239,273.328 39.330,273.334 39.167 C 273.339 39.029,273.339 36.963,273.334 34.574 C 273.322 29.568,273.170 30.000,274.942 30.000 L 276.329 30.000 276.373 41.674 M344.500 34.722 C 344.500 40.073,344.460 39.883,345.369 38.898 C 345.742 38.493,346.224 38.117,346.440 38.062 C 346.657 38.008,346.833 37.905,346.833 37.833 C 346.833 37.208,350.497 36.871,351.708 37.384 C 353.093 37.972,353.725 38.594,354.620 40.250 L 355.250 41.417 355.250 47.417 L 355.250 53.417 353.917 53.417 L 352.583 53.417 352.493 48.000 L 352.403 42.583 351.943 41.633 C 350.728 39.122,347.662 38.719,345.694 40.812 C 344.569 42.008,344.592 41.875,344.500 47.917 L 344.417 53.417 343.338 53.467 C 342.745 53.495,342.089 53.475,341.880 53.422 L 341.500 53.327 341.500 41.775 C 341.500 35.421,341.550 30.172,341.611 30.111 C 341.672 30.050,342.347 30.000,343.111 30.000 L 344.500 30.000 344.500 34.722 M150.907 31.011 C 155.586 31.834,157.494 33.023,159.244 36.206 C 160.162 37.875,160.374 38.894,160.384 41.667 C 160.397 45.510,159.470 48.179,157.400 50.248 C 154.868 52.780,152.203 53.581,146.333 53.573 C 144.270 53.570,142.451 53.517,142.291 53.455 C 141.864 53.292,141.837 31.432,142.264 31.268 C 142.409 31.212,142.952 31.158,143.472 31.147 C 143.992 31.136,144.642 31.070,144.917 31.000 C 145.686 30.804,149.774 30.812,150.907 31.011 M334.963 35.134 L 335.010 37.323 337.046 37.370 L 339.083 37.417 339.132 38.536 L 339.182 39.656 337.132 39.703 L 335.083 39.750 335.083 44.833 C 335.083 51.153,335.279 51.616,337.894 51.473 L 338.917 51.417 339.018 52.333 C 339.142 53.456,339.059 53.539,337.537 53.826 C 335.448 54.220,333.539 53.374,332.710 51.687 L 332.250 50.750 332.167 45.250 L 332.083 39.750 330.868 39.701 L 329.652 39.652 329.701 38.534 L 329.750 37.417 330.958 37.368 L 332.167 37.319 332.167 35.416 L 332.167 33.513 332.792 33.341 C 335.094 32.706,334.908 32.553,334.963 35.134 M145.208 33.339 L 144.833 33.489 144.833 42.239 C 144.833 52.460,144.521 51.337,147.364 51.326 C 154.502 51.299,158.237 47.121,157.334 40.175 C 156.873 36.626,154.547 34.110,151.032 33.356 C 149.994 33.133,145.750 33.121,145.208 33.339 M173.083 37.416 C 179.496 39.560,180.161 50.091,174.063 52.940 C 167.448 56.030,160.866 50.528,162.671 43.417 C 163.060 41.885,163.244 41.389,163.612 40.886 C 163.825 40.594,164.000 40.286,164.000 40.202 C 164.000 39.844,165.882 38.310,166.924 37.817 C 168.651 37.002,171.323 36.827,173.083 37.416 M214.750 37.381 C 215.685 37.738,216.620 38.491,217.220 39.371 C 218.323 40.991,218.343 41.140,218.294 47.612 L 218.250 53.417 216.917 53.417 L 215.583 53.417 215.497 47.917 C 215.450 44.892,215.350 42.267,215.274 42.083 C 214.460 40.111,213.281 39.356,211.331 39.558 C 209.743 39.723,208.694 40.512,207.971 42.083 C 207.603 42.882,207.584 43.136,207.502 48.167 L 207.417 53.417 206.042 53.465 L 204.667 53.513 204.632 46.257 C 204.613 42.266,204.594 38.644,204.590 38.208 L 204.583 37.417 205.833 37.417 L 207.083 37.417 207.133 38.542 C 207.192 39.893,207.303 39.923,208.317 38.868 C 209.882 37.237,212.679 36.590,214.750 37.381 M239.046 37.481 C 245.925 40.202,245.798 51.112,238.862 53.324 C 236.371 54.118,235.766 54.124,233.333 53.382 C 226.977 51.442,226.477 40.928,232.597 37.904 C 234.471 36.979,237.306 36.792,239.046 37.481 M254.871 37.431 C 257.808 38.463,258.294 39.804,258.405 47.167 C 258.448 50.054,258.506 52.642,258.534 52.917 L 258.583 53.417 257.333 53.417 L 256.083 53.417 255.993 52.632 C 255.871 51.566,255.778 51.527,255.014 52.217 C 251.306 55.567,245.917 53.718,245.917 49.095 L 245.917 47.412 246.595 46.414 C 247.856 44.559,249.774 43.697,253.498 43.313 L 255.500 43.107 255.500 42.578 C 255.500 41.423,254.680 39.957,253.859 39.644 C 252.412 39.093,249.829 39.229,248.479 39.928 C 247.641 40.361,247.391 40.165,247.081 38.831 C 246.985 38.417,247.608 38.010,249.250 37.411 C 250.385 36.997,253.671 37.009,254.871 37.431 M297.829 37.416 C 300.072 38.211,301.407 39.629,302.601 42.485 C 303.408 44.418,302.840 48.688,301.534 50.500 C 298.240 55.070,290.502 54.856,288.212 50.132 C 284.637 42.757,290.611 34.859,297.829 37.416 M316.471 37.614 C 317.648 38.175,318.313 38.870,319.009 40.264 L 319.583 41.417 319.635 47.465 L 319.686 53.514 318.301 53.465 L 316.917 53.417 316.828 48.000 C 316.732 42.150,316.707 41.975,315.777 40.738 C 314.139 38.561,310.464 39.341,309.224 42.130 C 308.841 42.992,308.833 43.113,308.833 48.255 L 308.833 53.500 307.510 53.500 C 306.782 53.500,306.152 53.444,306.111 53.375 C 306.069 53.306,306.009 49.688,305.976 45.333 L 305.917 37.417 306.824 37.365 C 308.406 37.275,308.500 37.342,308.500 38.559 C 308.500 39.913,308.556 39.946,309.366 39.067 C 311.178 37.101,314.129 36.498,316.471 37.614 M368.660 37.631 C 371.047 38.748,372.333 41.118,372.333 44.398 L 372.333 45.996 366.708 46.039 L 361.083 46.083 361.134 46.833 C 361.396 50.743,366.243 52.933,370.280 50.966 C 370.842 50.693,371.075 50.887,371.316 51.828 C 371.588 52.888,371.544 52.940,370.061 53.326 C 362.637 55.260,357.648 51.598,358.265 44.667 C 358.774 38.954,363.970 35.437,368.660 37.631 M181.979 37.558 C 182.082 37.682,182.238 38.162,182.325 38.624 C 182.413 39.087,182.629 39.904,182.805 40.441 C 182.981 40.978,183.327 42.279,183.574 43.333 C 183.821 44.387,184.196 45.850,184.406 46.583 C 184.971 48.553,185.167 49.442,185.167 50.039 C 185.167 50.736,185.492 50.302,185.821 49.167 C 185.941 48.754,186.097 48.229,186.167 48.000 C 186.238 47.771,186.426 47.096,186.586 46.500 C 186.745 45.904,186.970 45.192,187.085 44.917 C 187.200 44.642,187.371 44.154,187.465 43.833 C 187.560 43.512,188.064 41.919,188.586 40.292 L 189.536 37.333 190.679 37.333 C 191.924 37.333,192.058 37.434,192.345 38.579 C 192.459 39.036,192.666 39.662,193.007 40.583 C 193.074 40.767,193.263 41.404,193.425 42.000 C 193.587 42.596,193.849 43.421,194.008 43.833 C 194.166 44.246,194.426 45.071,194.585 45.667 C 194.745 46.262,195.045 47.350,195.253 48.083 C 195.461 48.817,195.682 49.641,195.745 49.914 C 195.886 50.527,196.095 50.242,196.318 49.134 C 196.397 48.739,196.587 47.967,196.741 47.417 C 196.895 46.867,197.240 45.573,197.509 44.541 C 197.778 43.509,198.069 42.534,198.155 42.374 C 198.241 42.214,198.461 41.483,198.644 40.750 C 199.544 37.150,199.414 37.338,201.000 37.338 C 202.381 37.338,202.547 37.436,202.263 38.087 C 202.144 38.360,201.838 39.296,201.583 40.167 C 201.328 41.037,201.024 41.975,200.907 42.250 C 200.790 42.525,200.509 43.387,200.282 44.167 C 200.055 44.946,199.745 45.921,199.594 46.333 C 199.443 46.746,199.201 47.458,199.056 47.917 C 198.912 48.375,198.617 49.313,198.400 50.000 C 198.184 50.688,197.837 51.737,197.628 52.333 L 197.250 53.417 195.958 53.465 C 194.742 53.511,194.657 53.491,194.523 53.132 C 194.075 51.938,193.526 50.268,192.506 47.000 C 192.034 45.487,191.464 43.664,191.240 42.947 C 191.016 42.230,190.831 41.480,190.828 41.280 C 190.823 40.925,190.817 40.924,190.578 41.240 C 190.443 41.418,190.333 41.733,190.333 41.941 C 190.333 42.148,190.264 42.490,190.180 42.700 C 190.096 42.911,189.709 44.058,189.320 45.250 C 188.691 47.180,187.672 50.192,186.840 52.583 L 186.550 53.417 185.301 53.465 C 183.890 53.519,183.821 53.475,183.514 52.333 C 183.246 51.334,183.084 50.791,182.668 49.500 C 182.475 48.904,182.238 48.117,182.141 47.750 C 182.044 47.383,181.862 46.821,181.738 46.500 C 181.613 46.179,181.351 45.317,181.156 44.583 C 180.961 43.850,180.627 42.725,180.413 42.083 C 179.727 40.026,179.146 37.794,179.236 37.560 C 179.357 37.244,181.717 37.242,181.979 37.558 M364.031 39.447 C 362.729 39.908,361.167 42.023,361.167 43.326 L 361.167 43.839 365.292 43.795 L 369.417 43.750 369.409 42.833 C 369.387 40.143,366.753 38.485,364.031 39.447 M168.774 39.538 C 165.096 40.512,164.260 47.832,167.515 50.570 C 169.621 52.342,172.906 51.753,174.169 49.377 C 174.327 49.080,174.525 48.742,174.610 48.627 C 175.430 47.507,175.392 43.150,174.555 42.154 C 174.433 42.009,174.333 41.811,174.333 41.713 C 174.333 41.273,172.802 39.854,172.052 39.598 C 171.188 39.304,169.757 39.278,168.774 39.538 M234.500 39.550 C 231.233 40.575,230.163 47.114,232.787 50.019 C 237.166 54.866,243.388 48.138,240.280 41.917 C 239.209 39.771,236.860 38.810,234.500 39.550 M268.250 39.447 C 265.488 40.067,264.417 41.782,264.417 45.583 C 264.417 49.461,265.967 51.500,268.917 51.500 C 271.853 51.500,273.221 49.725,273.309 45.797 C 273.416 41.031,271.562 38.703,268.250 39.447 M293.465 39.532 C 289.842 40.496,288.872 47.571,291.978 50.377 C 294.695 52.831,298.306 51.618,299.553 47.832 C 301.204 42.823,297.921 38.347,293.465 39.532 M101.320 42.251 C 103.806 42.696,106.837 43.685,108.038 44.442 C 108.380 44.657,108.726 44.833,108.807 44.833 C 110.028 44.833,116.991 51.395,116.307 51.900 C 116.276 51.924,115.763 52.272,115.167 52.675 C 114.018 53.452,111.398 55.683,111.032 56.195 C 110.912 56.363,110.589 56.744,110.314 57.042 C 107.535 60.047,105.667 65.466,105.667 70.516 C 105.667 74.640,106.772 78.669,108.833 82.062 C 110.832 85.351,114.968 89.053,118.199 90.445 C 119.059 90.815,119.056 91.383,118.180 93.250 C 118.094 93.433,117.866 94.025,117.672 94.564 C 116.960 96.554,115.707 99.115,114.076 101.917 C 113.649 102.650,113.132 103.513,112.929 103.833 C 112.027 105.251,111.559 105.956,111.157 106.500 C 110.920 106.821,110.396 107.533,109.993 108.083 C 108.285 110.415,105.656 113.294,104.163 114.467 C 100.850 117.071,95.951 117.925,92.458 116.507 C 92.252 116.424,91.577 116.199,90.958 116.009 C 90.339 115.818,89.439 115.481,88.958 115.260 C 84.753 113.326,78.204 112.757,75.145 114.059 C 74.836 114.190,74.133 114.422,73.583 114.575 C 72.605 114.845,72.263 114.970,71.250 115.427 C 70.569 115.735,67.948 116.630,66.867 116.926 C 65.787 117.220,62.033 117.251,61.178 116.973 C 57.925 115.912,52.856 111.574,50.569 107.893 C 50.406 107.631,50.108 107.229,49.907 107.000 C 49.375 106.393,47.167 103.058,47.167 102.862 C 47.167 102.770,47.096 102.669,47.009 102.639 C 46.777 102.557,44.333 98.141,44.333 97.802 C 44.333 97.696,44.229 97.491,44.102 97.346 C 43.974 97.202,43.705 96.671,43.503 96.167 C 43.301 95.662,43.038 95.063,42.918 94.833 C 42.798 94.604,42.464 93.779,42.174 93.000 C 41.885 92.221,41.547 91.352,41.423 91.069 C 40.781 89.601,39.187 83.708,38.835 81.500 C 38.769 81.087,38.635 80.412,38.536 80.000 C 38.100 78.172,37.971 75.802,38.050 71.083 C 38.128 66.429,38.226 65.189,38.630 63.750 C 38.733 63.383,39.011 62.307,39.249 61.357 C 39.487 60.408,39.825 59.320,40.000 58.940 C 40.175 58.561,40.477 57.837,40.672 57.333 C 41.286 55.742,43.334 52.342,44.208 51.461 C 44.369 51.299,44.500 51.103,44.500 51.025 C 44.500 50.602,48.411 46.992,49.608 46.310 C 49.961 46.108,50.400 45.817,50.583 45.662 C 50.767 45.507,51.292 45.204,51.750 44.988 C 52.208 44.772,52.771 44.472,53.000 44.321 C 55.885 42.424,63.342 41.564,67.250 42.678 C 68.519 43.040,71.420 44.028,72.083 44.324 C 72.450 44.488,73.387 44.826,74.167 45.075 C 74.946 45.324,75.808 45.630,76.083 45.755 C 76.358 45.880,77.146 46.094,77.833 46.231 C 79.499 46.562,79.677 46.527,83.750 45.077 C 84.942 44.653,86.637 44.057,87.519 43.754 C 88.400 43.451,89.262 43.128,89.435 43.037 C 89.781 42.854,93.519 42.057,94.583 41.939 C 95.792 41.805,99.891 41.995,101.320 42.251 M252.494 45.415 C 250.096 45.893,248.768 47.148,248.780 48.924 C 248.799 51.642,251.911 52.631,254.213 50.651 C 255.310 49.707,255.500 49.166,255.500 46.980 L 255.500 45.167 254.542 45.182 C 254.015 45.191,253.093 45.296,252.494 45.415 M268.167 65.731 C 268.579 65.876,269.070 65.996,269.258 65.998 C 269.446 65.999,269.671 66.060,269.758 66.132 C 269.845 66.205,270.348 66.405,270.875 66.576 C 271.970 66.932,271.967 66.922,271.488 68.565 C 270.788 70.962,270.954 70.857,269.000 70.150 C 262.793 67.906,257.586 69.657,257.052 74.170 C 256.767 76.571,258.201 78.575,261.334 80.154 C 262.800 80.893,263.021 80.992,264.000 81.341 C 264.321 81.456,265.204 81.839,265.962 82.192 C 266.720 82.545,267.404 82.833,267.483 82.833 C 267.561 82.833,267.720 82.947,267.836 83.086 C 267.951 83.226,268.286 83.454,268.580 83.593 C 273.911 86.122,275.006 94.786,270.525 98.974 C 268.136 101.207,264.874 102.333,260.796 102.333 C 258.668 102.333,258.103 102.246,254.750 101.402 C 253.662 101.128,252.122 100.431,251.831 100.081 C 251.682 99.901,252.486 96.473,252.740 96.207 C 252.762 96.183,253.186 96.380,253.682 96.644 C 255.856 97.803,258.350 98.402,261.000 98.403 L 263.417 98.403 264.831 97.781 C 267.447 96.629,268.560 95.007,268.568 92.333 C 268.578 89.031,266.419 86.788,261.667 85.163 C 255.543 83.068,252.333 79.605,252.333 75.094 C 252.333 70.205,255.706 66.610,261.333 65.497 C 262.538 65.259,267.287 65.422,268.167 65.731 M164.386 67.542 C 164.644 68.390,164.991 69.383,165.157 69.750 C 165.324 70.117,165.614 70.942,165.802 71.583 C 165.991 72.225,166.528 73.837,166.996 75.167 C 167.464 76.496,168.077 78.296,168.359 79.167 C 168.642 80.037,168.975 80.984,169.100 81.270 C 169.225 81.555,169.596 82.643,169.923 83.686 C 170.250 84.730,170.588 85.655,170.675 85.742 C 170.762 85.829,170.833 86.036,170.833 86.202 C 170.833 86.369,170.899 86.635,170.979 86.794 C 171.136 87.107,171.952 89.486,172.592 91.500 C 173.166 93.303,174.442 96.990,174.635 97.400 C 174.822 97.799,176.000 101.391,176.000 101.563 C 176.000 101.625,174.897 101.655,173.549 101.629 L 171.099 101.583 170.790 100.750 C 170.620 100.292,170.252 99.204,169.972 98.333 C 169.692 97.462,169.327 96.412,169.159 96.000 C 168.992 95.587,168.628 94.537,168.352 93.667 C 167.769 91.832,167.468 91.001,167.280 90.708 C 167.178 90.548,165.723 90.500,160.940 90.500 C 154.476 90.500,154.333 90.515,154.333 91.206 C 154.333 91.374,154.227 91.678,154.096 91.881 C 153.965 92.084,153.668 92.888,153.434 93.667 C 153.201 94.446,152.792 95.721,152.526 96.500 C 152.261 97.279,151.924 98.292,151.779 98.750 C 151.633 99.208,151.346 100.052,151.141 100.625 L 150.768 101.667 148.384 101.667 C 147.073 101.667,146.000 101.628,146.000 101.581 C 146.000 101.534,146.068 101.365,146.151 101.206 C 146.234 101.047,146.435 100.429,146.597 99.833 C 146.759 99.237,146.950 98.672,147.021 98.576 C 147.093 98.480,147.421 97.542,147.752 96.492 C 148.083 95.442,148.470 94.283,148.613 93.917 C 149.090 92.693,149.128 92.587,149.344 91.833 C 149.462 91.421,149.728 90.633,149.935 90.083 C 150.142 89.533,150.540 88.371,150.820 87.500 C 151.101 86.629,151.706 84.829,152.166 83.500 C 152.625 82.171,153.158 80.596,153.350 80.000 C 153.543 79.404,153.838 78.579,154.006 78.167 C 154.174 77.754,154.539 76.704,154.815 75.833 C 155.092 74.962,155.548 73.575,155.828 72.750 C 156.108 71.925,156.420 70.987,156.521 70.667 C 156.622 70.346,156.804 69.858,156.925 69.583 C 157.047 69.308,157.357 68.390,157.615 67.542 L 158.083 66.000 161.000 66.000 L 163.917 66.000 164.386 67.542 M285.167 72.330 L 285.167 75.993 288.542 76.038 L 291.917 76.083 291.966 77.500 C 292.048 79.871,292.375 79.667,288.497 79.667 L 285.167 79.667 285.167 87.386 C 285.167 96.097,285.201 96.404,286.302 97.545 C 287.102 98.375,287.859 98.566,289.786 98.426 C 291.561 98.297,291.406 98.131,291.578 100.348 L 291.676 101.613 290.796 101.916 C 288.024 102.871,284.117 102.210,282.530 100.518 C 280.686 98.551,280.507 97.384,280.503 87.297 L 280.500 79.677 278.542 79.630 L 276.583 79.583 276.583 77.833 L 276.583 76.083 278.542 76.036 L 280.500 75.989 280.500 72.929 C 280.500 70.173,280.529 69.857,280.792 69.746 C 281.140 69.599,284.660 68.698,284.958 68.680 C 285.119 68.670,285.167 69.504,285.167 72.330 M160.362 71.737 C 159.995 73.290,159.117 76.212,158.480 78.000 C 158.300 78.504,157.893 79.704,157.575 80.667 C 157.257 81.629,156.698 83.307,156.332 84.395 C 155.966 85.483,155.667 86.477,155.667 86.603 C 155.667 86.794,156.564 86.833,160.917 86.833 C 163.893 86.833,166.167 86.769,166.167 86.684 C 166.167 86.445,165.495 84.318,165.161 83.500 C 164.992 83.087,164.628 82.037,164.352 81.167 C 163.836 79.544,163.102 77.358,162.476 75.583 C 162.283 75.033,161.881 73.612,161.583 72.424 C 160.924 69.794,160.833 69.742,160.362 71.737 M198.083 76.020 C 200.915 77.049,203.612 79.811,204.574 82.667 C 204.744 83.171,204.936 83.658,205.000 83.750 C 205.926 85.062,205.708 91.529,204.639 94.500 C 204.305 95.427,203.992 96.032,202.915 97.831 C 202.611 98.339,201.263 99.680,200.598 100.136 C 196.855 102.705,192.714 103.033,188.813 101.070 C 188.059 100.691,186.038 98.831,185.961 98.445 C 185.940 98.338,185.883 101.400,185.836 105.250 L 185.750 112.250 183.474 112.296 L 181.199 112.343 181.102 94.880 C 181.049 85.275,180.986 77.117,180.961 76.750 L 180.917 76.083 183.021 76.037 L 185.125 75.990 185.197 77.990 C 185.276 80.220,185.378 80.476,185.894 79.750 C 186.315 79.158,188.358 77.174,188.551 77.170 C 188.624 77.168,188.962 76.977,189.301 76.746 C 191.096 75.520,195.669 75.143,198.083 76.020 M226.917 75.665 C 231.481 76.435,234.871 80.264,235.771 85.667 C 236.969 92.858,233.305 100.482,228.118 101.591 C 227.824 101.654,227.508 101.761,227.417 101.829 C 225.768 103.049,220.036 102.105,218.080 100.291 C 217.809 100.039,217.540 99.833,217.483 99.833 C 217.425 99.833,217.169 99.530,216.912 99.160 C 216.196 98.127,216.173 98.308,216.127 105.506 L 216.083 112.250 213.792 112.296 L 211.500 112.343 211.499 97.046 C 211.499 88.633,211.450 80.454,211.390 78.870 L 211.280 75.989 213.349 76.036 L 215.417 76.083 215.560 78.125 C 215.720 80.392,215.777 80.473,216.510 79.458 C 218.664 76.477,222.798 74.970,226.917 75.665 M311.479 75.915 C 313.840 76.558,317.158 78.941,318.059 80.641 C 318.188 80.884,318.532 81.533,318.823 82.083 C 320.751 85.729,320.719 91.483,318.748 95.561 C 316.797 99.598,312.695 102.109,307.750 102.291 C 302.839 102.471,298.266 99.818,296.387 95.698 C 296.149 95.176,295.901 94.637,295.834 94.498 C 295.542 93.889,295.185 92.291,295.003 90.775 C 294.273 84.715,297.026 79.137,301.917 76.768 C 303.228 76.132,303.821 75.955,305.833 75.596 C 306.645 75.451,310.596 75.674,311.479 75.915 M338.833 77.733 L 338.833 79.966 337.458 79.953 C 334.833 79.930,332.988 81.091,331.818 83.504 C 330.846 85.507,330.833 85.647,330.833 94.008 L 330.833 101.667 328.520 101.667 L 326.207 101.667 326.110 89.292 C 326.056 82.485,325.991 76.729,325.964 76.500 L 325.917 76.083 327.942 76.037 L 329.968 75.990 330.072 77.620 C 330.129 78.516,330.220 79.662,330.274 80.167 L 330.371 81.083 330.762 80.204 C 332.070 77.256,334.566 75.573,337.708 75.519 L 338.833 75.500 338.833 77.733 M357.000 76.006 C 357.596 76.203,358.196 76.451,358.333 76.557 C 358.471 76.663,358.771 76.856,359.000 76.985 C 362.239 78.815,364.726 84.993,363.896 89.146 L 363.792 89.667 354.807 89.667 C 344.481 89.667,345.502 89.451,345.819 91.562 C 346.725 97.593,353.148 100.372,360.296 97.827 L 361.676 97.336 361.838 97.762 C 361.927 97.997,362.000 98.329,362.000 98.500 C 362.000 98.671,362.065 98.985,362.143 99.197 C 362.691 100.672,362.597 100.834,360.917 101.309 C 357.991 102.137,357.269 102.239,354.333 102.245 C 351.312 102.250,351.367 102.259,348.583 101.364 C 342.056 99.267,339.136 89.896,342.648 82.314 C 345.177 76.854,351.355 74.138,357.000 76.006 M306.058 79.164 C 300.886 80.520,298.571 86.035,300.304 92.865 C 300.932 95.338,303.296 97.889,305.545 98.520 C 312.955 100.601,318.136 90.826,313.932 82.696 C 312.518 79.962,309.013 78.390,306.058 79.164 M350.239 79.418 C 348.723 80.150,347.577 81.299,346.764 82.900 C 346.169 84.073,345.600 86.045,345.800 86.244 C 345.973 86.417,359.310 86.340,359.418 86.165 C 359.628 85.826,359.130 83.459,358.619 82.367 C 357.142 79.206,353.402 77.890,350.239 79.418 M191.714 79.427 C 187.451 80.362,185.913 82.992,185.923 89.333 C 185.932 95.335,187.537 97.804,191.885 98.506 C 197.214 99.365,200.722 95.531,200.734 88.833 C 200.746 82.150,197.020 78.264,191.714 79.427 M221.917 79.482 C 220.680 79.790,219.836 80.170,219.357 80.634 C 219.196 80.789,218.842 81.104,218.569 81.333 C 216.931 82.708,216.337 84.414,216.218 88.083 C 216.031 93.849,216.979 96.211,220.118 97.798 C 227.337 101.448,233.491 93.329,230.450 84.167 C 230.069 83.018,229.158 81.685,228.206 80.884 C 226.431 79.391,224.242 78.902,221.917 79.482 " stroke="none" fill="#040707" fill-rule="evenodd"></path><path id="path1" d="M95.431 18.268 C 94.797 18.394,93.972 18.637,93.598 18.809 C 93.223 18.981,92.542 19.257,92.083 19.422 C 91.625 19.588,90.987 19.871,90.667 20.052 C 90.346 20.234,89.614 20.628,89.041 20.929 C 87.958 21.497,87.577 21.763,86.119 22.968 C 84.665 24.169,83.932 24.899,83.272 25.805 C 83.076 26.072,82.598 26.710,82.208 27.222 C 81.819 27.734,81.500 28.221,81.500 28.306 C 81.500 28.390,81.393 28.548,81.263 28.656 C 79.671 29.977,77.717 37.465,78.238 40.245 L 78.354 40.865 80.636 40.795 C 89.755 40.518,98.314 30.519,98.330 20.125 L 98.333 18.000 97.458 18.019 C 96.977 18.030,96.065 18.142,95.431 18.268 M222.333 41.757 L 222.333 53.513 223.708 53.465 L 225.083 53.417 225.126 41.708 L 225.169 30.000 223.751 30.000 L 222.333 30.000 222.333 41.757 M273.440 30.116 C 273.376 30.180,273.328 32.186,273.334 34.574 C 273.339 36.963,273.339 39.029,273.334 39.167 C 273.328 39.330,273.167 39.239,272.871 38.905 C 270.594 36.336,266.009 36.460,263.537 39.158 C 260.927 42.008,260.378 47.658,262.441 50.447 C 262.657 50.739,262.833 51.042,262.833 51.121 C 262.833 51.200,263.152 51.575,263.542 51.954 C 266.317 54.659,271.010 54.414,273.178 51.451 L 273.641 50.819 273.746 51.784 C 273.804 52.316,273.866 52.900,273.884 53.083 C 273.912 53.365,274.058 53.425,274.824 53.468 C 276.612 53.570,276.423 55.011,276.373 41.674 L 276.329 30.000 274.942 30.000 C 274.180 30.000,273.503 30.052,273.440 30.116 M341.611 30.111 C 341.550 30.172,341.500 35.421,341.500 41.775 L 341.500 53.327 341.880 53.422 C 342.089 53.475,342.745 53.495,343.338 53.467 L 344.417 53.417 344.500 47.917 C 344.592 41.875,344.569 42.008,345.694 40.812 C 347.662 38.719,350.728 39.122,351.943 41.633 L 352.403 42.583 352.493 48.000 L 352.583 53.417 353.917 53.417 L 355.250 53.417 355.250 47.417 L 355.250 41.417 354.620 40.250 C 353.725 38.594,353.093 37.972,351.708 37.384 C 350.497 36.871,346.833 37.208,346.833 37.833 C 346.833 37.905,346.657 38.008,346.440 38.062 C 346.224 38.117,345.742 38.493,345.369 38.898 C 344.460 39.883,344.500 40.073,344.500 34.722 L 344.500 30.000 343.111 30.000 C 342.347 30.000,341.672 30.050,341.611 30.111 M144.917 31.000 C 144.642 31.070,143.992 31.136,143.472 31.147 C 142.952 31.158,142.409 31.212,142.264 31.268 C 141.837 31.432,141.864 53.292,142.291 53.455 C 142.451 53.517,144.270 53.570,146.333 53.573 C 151.021 53.579,152.767 53.259,155.138 51.959 C 158.667 50.023,160.401 46.621,160.384 41.667 C 160.359 34.341,156.165 30.778,147.657 30.853 C 146.425 30.864,145.192 30.930,144.917 31.000 M334.000 33.017 C 333.679 33.100,333.135 33.246,332.792 33.341 L 332.167 33.513 332.167 35.416 L 332.167 37.319 330.958 37.368 L 329.750 37.417 329.701 38.534 L 329.652 39.652 330.868 39.701 L 332.083 39.750 332.167 45.250 L 332.250 50.750 332.710 51.687 C 333.539 53.374,335.448 54.220,337.537 53.826 C 339.059 53.539,339.142 53.456,339.018 52.333 L 338.917 51.417 337.894 51.473 C 335.279 51.616,335.083 51.153,335.083 44.833 L 335.083 39.750 337.132 39.703 L 339.182 39.656 339.132 38.536 L 339.083 37.417 337.046 37.370 L 335.010 37.323 334.963 35.134 C 334.913 32.787,334.910 32.780,334.000 33.017 M151.032 33.356 C 159.418 35.154,159.812 48.491,151.547 50.767 C 149.801 51.248,149.270 51.319,147.364 51.326 C 144.521 51.337,144.833 52.460,144.833 42.239 L 144.833 33.489 145.208 33.339 C 145.750 33.121,149.994 33.133,151.032 33.356 M168.985 37.156 C 167.321 37.384,164.000 39.413,164.000 40.202 C 164.000 40.286,163.825 40.594,163.612 40.886 C 163.244 41.389,163.060 41.885,162.671 43.417 C 161.729 47.128,163.522 51.545,166.553 52.982 C 172.949 56.016,179.405 50.850,178.135 43.713 C 177.296 38.994,173.808 36.495,168.985 37.156 M211.583 37.149 C 210.415 37.300,209.215 37.932,208.317 38.868 C 207.303 39.923,207.192 39.893,207.133 38.542 L 207.083 37.417 205.833 37.417 L 204.583 37.417 204.590 38.208 C 204.594 38.644,204.613 42.266,204.632 46.257 L 204.667 53.513 206.042 53.465 L 207.417 53.417 207.502 48.167 C 207.584 43.136,207.603 42.882,207.971 42.083 C 208.694 40.512,209.743 39.723,211.331 39.558 C 213.281 39.356,214.460 40.111,215.274 42.083 C 215.350 42.267,215.450 44.892,215.497 47.917 L 215.583 53.417 216.917 53.417 L 218.250 53.417 218.294 47.612 C 218.343 41.140,218.323 40.991,217.220 39.371 C 215.998 37.578,214.086 36.824,211.583 37.149 M234.797 37.159 C 227.021 38.212,225.858 51.100,233.333 53.382 C 235.766 54.124,236.371 54.118,238.862 53.324 C 242.347 52.212,244.090 49.371,243.975 44.989 C 243.833 39.545,240.182 36.430,234.797 37.159 M250.667 37.163 C 249.466 37.303,249.334 37.343,247.950 37.973 C 246.906 38.449,246.885 38.509,247.359 39.708 C 247.564 40.225,247.810 40.273,248.479 39.928 C 249.829 39.229,252.412 39.093,253.859 39.644 C 254.680 39.957,255.500 41.423,255.500 42.578 L 255.500 43.107 253.498 43.313 C 249.774 43.697,247.856 44.559,246.595 46.414 L 245.917 47.412 245.917 49.095 C 245.917 53.718,251.306 55.567,255.014 52.217 C 255.778 51.527,255.871 51.566,255.993 52.632 L 256.083 53.417 257.333 53.417 L 258.583 53.417 258.534 52.917 C 258.506 52.642,258.448 50.054,258.405 47.167 C 258.359 44.086,258.248 41.607,258.137 41.167 C 257.351 38.046,254.804 36.682,250.667 37.163 M293.632 37.159 C 288.232 37.890,285.476 44.488,288.212 50.132 C 290.502 54.856,298.240 55.070,301.534 50.500 C 302.840 48.688,303.408 44.418,302.601 42.485 C 300.821 38.226,298.023 36.565,293.632 37.159 M312.750 37.146 C 311.703 37.284,310.249 38.110,309.366 39.067 C 308.556 39.946,308.500 39.913,308.500 38.559 C 308.500 37.342,308.406 37.275,306.824 37.365 L 305.917 37.417 305.976 45.333 C 306.009 49.688,306.069 53.306,306.111 53.375 C 306.152 53.444,306.782 53.500,307.510 53.500 L 308.833 53.500 308.833 48.255 C 308.833 43.113,308.841 42.992,309.224 42.130 C 310.464 39.341,314.139 38.561,315.777 40.738 C 316.707 41.975,316.732 42.150,316.828 48.000 L 316.917 53.417 318.301 53.465 L 319.686 53.514 319.635 47.465 L 319.583 41.417 319.009 40.264 C 317.776 37.792,315.698 36.757,312.750 37.146 M364.412 37.145 C 361.214 37.556,358.616 40.736,358.265 44.667 C 357.648 51.598,362.637 55.260,370.061 53.326 C 371.544 52.940,371.588 52.888,371.316 51.828 C 371.075 50.887,370.842 50.693,370.280 50.966 C 366.243 52.933,361.396 50.743,361.134 46.833 L 361.083 46.083 366.708 46.039 L 372.333 45.996 372.333 44.398 C 372.333 39.359,369.238 36.524,364.412 37.145 M179.236 37.560 C 179.146 37.794,179.727 40.026,180.413 42.083 C 180.627 42.725,180.961 43.850,181.156 44.583 C 181.351 45.317,181.613 46.179,181.738 46.500 C 181.862 46.821,182.044 47.383,182.141 47.750 C 182.238 48.117,182.475 48.904,182.668 49.500 C 183.084 50.791,183.246 51.334,183.514 52.333 C 183.821 53.475,183.890 53.519,185.301 53.465 L 186.550 53.417 186.840 52.583 C 187.672 50.192,188.691 47.180,189.320 45.250 C 189.709 44.058,190.096 42.911,190.180 42.700 C 190.264 42.490,190.333 42.148,190.333 41.941 C 190.333 41.733,190.443 41.418,190.578 41.240 C 190.817 40.924,190.823 40.925,190.828 41.280 C 190.831 41.480,191.016 42.230,191.240 42.947 C 191.464 43.664,192.034 45.487,192.506 47.000 C 193.526 50.268,194.075 51.938,194.523 53.132 C 194.657 53.491,194.742 53.511,195.958 53.465 L 197.250 53.417 197.628 52.333 C 197.837 51.737,198.184 50.688,198.400 50.000 C 198.617 49.313,198.912 48.375,199.056 47.917 C 199.201 47.458,199.443 46.746,199.594 46.333 C 199.745 45.921,200.055 44.946,200.282 44.167 C 200.509 43.387,200.790 42.525,200.907 42.250 C 201.024 41.975,201.328 41.037,201.583 40.167 C 201.838 39.296,202.144 38.360,202.263 38.087 C 202.547 37.436,202.381 37.338,201.000 37.338 C 199.414 37.338,199.544 37.150,198.644 40.750 C 198.461 41.483,198.241 42.214,198.155 42.374 C 198.069 42.534,197.778 43.509,197.509 44.541 C 197.240 45.573,196.895 46.867,196.741 47.417 C 196.587 47.967,196.397 48.739,196.318 49.134 C 196.095 50.242,195.886 50.527,195.745 49.914 C 195.682 49.641,195.461 48.817,195.253 48.083 C 195.045 47.350,194.745 46.262,194.585 45.667 C 194.426 45.071,194.166 44.246,194.008 43.833 C 193.849 43.421,193.587 42.596,193.425 42.000 C 193.263 41.404,193.074 40.767,193.007 40.583 C 192.666 39.662,192.459 39.036,192.345 38.579 C 192.058 37.434,191.924 37.333,190.679 37.333 L 189.536 37.333 188.586 40.292 C 188.064 41.919,187.560 43.512,187.465 43.833 C 187.371 44.154,187.200 44.642,187.085 44.917 C 186.970 45.192,186.745 45.904,186.586 46.500 C 186.426 47.096,186.238 47.771,186.167 48.000 C 186.097 48.229,185.941 48.754,185.821 49.167 C 185.492 50.302,185.167 50.736,185.167 50.039 C 185.167 49.442,184.971 48.553,184.406 46.583 C 184.196 45.850,183.821 44.387,183.574 43.333 C 183.327 42.279,182.981 40.978,182.805 40.441 C 182.629 39.904,182.413 39.087,182.325 38.624 C 182.238 38.162,182.082 37.682,181.979 37.558 C 181.717 37.242,179.357 37.244,179.236 37.560 M367.047 39.430 C 368.468 39.914,369.396 41.252,369.409 42.833 L 369.417 43.750 365.292 43.795 L 361.167 43.839 361.167 43.326 C 361.167 40.671,364.401 38.529,367.047 39.430 M172.052 39.598 C 172.802 39.854,174.333 41.273,174.333 41.713 C 174.333 41.811,174.433 42.009,174.555 42.154 C 175.392 43.150,175.430 47.507,174.610 48.627 C 174.525 48.742,174.327 49.080,174.169 49.377 C 172.224 53.037,166.861 51.987,165.751 47.729 C 164.377 42.451,167.728 38.125,172.052 39.598 M237.854 39.590 C 241.616 40.917,242.249 47.846,238.862 50.618 C 236.093 52.884,232.245 51.187,231.494 47.369 C 230.462 42.124,233.724 38.134,237.854 39.590 M270.178 39.534 C 271.434 39.824,272.680 40.992,273.076 42.250 C 273.569 43.819,273.401 48.161,272.808 49.167 C 270.890 52.416,266.512 52.232,264.862 48.833 C 264.225 47.521,264.194 43.791,264.808 42.299 C 265.714 40.098,267.851 38.997,270.178 39.534 M296.717 39.598 C 300.022 40.724,301.070 46.957,298.454 49.930 C 294.525 54.393,288.435 49.336,290.419 43.258 C 291.510 39.918,293.781 38.598,296.717 39.598 M94.583 41.939 C 93.519 42.057,89.781 42.854,89.435 43.037 C 89.262 43.128,88.400 43.451,87.519 43.754 C 86.637 44.057,84.942 44.653,83.750 45.077 C 79.677 46.527,79.499 46.562,77.833 46.231 C 77.146 46.094,76.358 45.880,76.083 45.755 C 75.808 45.630,74.946 45.324,74.167 45.075 C 73.387 44.826,72.450 44.488,72.083 44.324 C 71.420 44.028,68.519 43.040,67.250 42.678 C 63.342 41.564,55.885 42.424,53.000 44.321 C 52.771 44.472,52.208 44.772,51.750 44.988 C 51.292 45.204,50.767 45.507,50.583 45.662 C 50.400 45.817,49.961 46.108,49.608 46.310 C 48.411 46.992,44.500 50.602,44.500 51.025 C 44.500 51.103,44.369 51.299,44.208 51.461 C 43.334 52.342,41.286 55.742,40.672 57.333 C 40.477 57.837,40.175 58.561,40.000 58.940 C 39.825 59.320,39.487 60.408,39.249 61.357 C 39.011 62.307,38.733 63.383,38.630 63.750 C 37.840 66.565,37.781 76.833,38.536 80.000 C 38.635 80.412,38.769 81.087,38.835 81.500 C 39.187 83.708,40.781 89.601,41.423 91.069 C 41.547 91.352,41.885 92.221,42.174 93.000 C 42.464 93.779,42.798 94.604,42.918 94.833 C 43.038 95.063,43.301 95.662,43.503 96.167 C 43.705 96.671,43.974 97.202,44.102 97.346 C 44.229 97.491,44.333 97.696,44.333 97.802 C 44.333 98.141,46.777 102.557,47.009 102.639 C 47.096 102.669,47.167 102.770,47.167 102.862 C 47.167 103.058,49.375 106.393,49.907 107.000 C 50.108 107.229,50.406 107.631,50.569 107.893 C 52.856 111.574,57.925 115.912,61.178 116.973 C 62.033 117.251,65.787 117.220,66.867 116.926 C 67.948 116.630,70.569 115.735,71.250 115.427 C 72.263 114.970,72.605 114.845,73.583 114.575 C 74.133 114.422,74.836 114.190,75.145 114.059 C 78.204 112.757,84.753 113.326,88.958 115.260 C 89.439 115.481,90.339 115.818,90.958 116.009 C 91.577 116.199,92.252 116.424,92.458 116.507 C 95.951 117.925,100.850 117.071,104.163 114.467 C 105.656 113.294,108.285 110.415,109.993 108.083 C 110.396 107.533,110.920 106.821,111.157 106.500 C 111.559 105.956,112.027 105.251,112.929 103.833 C 113.132 103.513,113.649 102.650,114.076 101.917 C 115.707 99.115,116.960 96.554,117.672 94.564 C 117.866 94.025,118.094 93.433,118.180 93.250 C 119.056 91.383,119.059 90.815,118.199 90.445 C 114.968 89.053,110.832 85.351,108.833 82.062 C 107.272 79.493,106.741 78.001,105.912 73.860 C 104.842 68.518,106.871 60.766,110.314 57.042 C 110.589 56.744,110.912 56.363,111.032 56.195 C 111.398 55.683,114.018 53.452,115.167 52.675 C 115.763 52.272,116.276 51.924,116.307 51.900 C 116.991 51.395,110.028 44.833,108.807 44.833 C 108.726 44.833,108.380 44.657,108.038 44.442 C 105.402 42.781,98.526 41.502,94.583 41.939 M255.500 46.980 C 255.500 49.166,255.310 49.707,254.213 50.651 C 251.911 52.631,248.799 51.642,248.780 48.924 C 248.765 46.695,251.005 45.240,254.542 45.182 L 255.500 45.167 255.500 46.980 M261.333 65.497 C 255.706 66.610,252.333 70.205,252.333 75.094 C 252.333 79.605,255.543 83.068,261.667 85.163 C 266.419 86.788,268.578 89.031,268.568 92.333 C 268.560 95.007,267.447 96.629,264.831 97.781 L 263.417 98.403 261.000 98.403 C 258.350 98.402,255.856 97.803,253.682 96.644 C 253.186 96.380,252.762 96.183,252.740 96.207 C 252.486 96.473,251.682 99.901,251.831 100.081 C 252.688 101.114,257.543 102.333,260.796 102.333 C 264.874 102.333,268.136 101.207,270.525 98.974 C 275.006 94.786,273.911 86.122,268.580 83.593 C 268.286 83.454,267.951 83.226,267.836 83.086 C 267.720 82.947,267.561 82.833,267.483 82.833 C 267.404 82.833,266.720 82.545,265.962 82.192 C 265.204 81.839,264.321 81.456,264.000 81.341 C 258.155 79.253,255.913 76.178,257.545 72.487 C 259.001 69.195,263.704 68.235,269.000 70.150 C 270.954 70.857,270.788 70.962,271.488 68.565 C 271.967 66.922,271.970 66.932,270.875 66.576 C 270.348 66.405,269.845 66.205,269.758 66.132 C 269.671 66.060,269.446 65.999,269.258 65.998 C 269.070 65.996,268.579 65.876,268.167 65.731 C 267.287 65.422,262.538 65.259,261.333 65.497 M157.615 67.542 C 157.357 68.390,157.047 69.308,156.925 69.583 C 156.804 69.858,156.622 70.346,156.521 70.667 C 156.420 70.987,156.108 71.925,155.828 72.750 C 155.548 73.575,155.092 74.962,154.815 75.833 C 154.539 76.704,154.174 77.754,154.006 78.167 C 153.838 78.579,153.543 79.404,153.350 80.000 C 153.158 80.596,152.625 82.171,152.166 83.500 C 151.706 84.829,151.101 86.629,150.820 87.500 C 150.540 88.371,150.142 89.533,149.935 90.083 C 149.728 90.633,149.462 91.421,149.344 91.833 C 149.128 92.587,149.090 92.693,148.613 93.917 C 148.470 94.283,148.083 95.442,147.752 96.492 C 147.421 97.542,147.093 98.480,147.021 98.576 C 146.950 98.672,146.759 99.237,146.597 99.833 C 146.435 100.429,146.234 101.047,146.151 101.206 C 146.068 101.365,146.000 101.534,146.000 101.581 C 146.000 101.628,147.073 101.667,148.384 101.667 L 150.768 101.667 151.141 100.625 C 151.346 100.052,151.633 99.208,151.779 98.750 C 151.924 98.292,152.261 97.279,152.526 96.500 C 152.792 95.721,153.201 94.446,153.434 93.667 C 153.668 92.888,153.965 92.084,154.096 91.881 C 154.227 91.678,154.333 91.374,154.333 91.206 C 154.333 90.515,154.476 90.500,160.940 90.500 C 165.723 90.500,167.178 90.548,167.280 90.708 C 167.468 91.001,167.769 91.832,168.352 93.667 C 168.628 94.537,168.992 95.587,169.159 96.000 C 169.327 96.412,169.692 97.462,169.972 98.333 C 170.252 99.204,170.620 100.292,170.790 100.750 L 171.099 101.583 173.549 101.629 C 174.897 101.655,176.000 101.625,176.000 101.563 C 176.000 101.391,174.822 97.799,174.635 97.400 C 174.442 96.990,173.166 93.303,172.592 91.500 C 171.952 89.486,171.136 87.107,170.979 86.794 C 170.899 86.635,170.833 86.369,170.833 86.202 C 170.833 86.036,170.762 85.829,170.675 85.742 C 170.588 85.655,170.250 84.730,169.923 83.686 C 169.596 82.643,169.225 81.555,169.100 81.270 C 168.975 80.984,168.642 80.037,168.359 79.167 C 168.077 78.296,167.464 76.496,166.996 75.167 C 166.528 73.837,165.991 72.225,165.802 71.583 C 165.614 70.942,165.324 70.117,165.157 69.750 C 164.991 69.383,164.644 68.390,164.386 67.542 L 163.917 66.000 161.000 66.000 L 158.083 66.000 157.615 67.542 M282.917 69.158 C 281.908 69.413,280.952 69.678,280.792 69.746 C 280.529 69.857,280.500 70.173,280.500 72.929 L 280.500 75.989 278.542 76.036 L 276.583 76.083 276.583 77.833 L 276.583 79.583 278.542 79.630 L 280.500 79.677 280.503 87.297 C 280.507 97.384,280.686 98.551,282.530 100.518 C 284.117 102.210,288.024 102.871,290.796 101.916 L 291.676 101.613 291.578 100.348 C 291.406 98.131,291.561 98.297,289.786 98.426 C 287.859 98.566,287.102 98.375,286.302 97.545 C 285.201 96.404,285.167 96.097,285.167 87.386 L 285.167 79.667 288.497 79.667 C 292.375 79.667,292.048 79.871,291.966 77.500 L 291.917 76.083 288.542 76.038 L 285.167 75.993 285.167 72.330 C 285.167 69.504,285.119 68.670,284.958 68.680 C 284.844 68.687,283.925 68.902,282.917 69.158 M161.583 72.424 C 161.881 73.612,162.283 75.033,162.476 75.583 C 163.102 77.358,163.836 79.544,164.352 81.167 C 164.628 82.037,164.992 83.087,165.161 83.500 C 165.495 84.318,166.167 86.445,166.167 86.684 C 166.167 86.769,163.893 86.833,160.917 86.833 C 156.564 86.833,155.667 86.794,155.667 86.603 C 155.667 86.477,155.966 85.483,156.332 84.395 C 156.698 83.307,157.257 81.629,157.575 80.667 C 157.893 79.704,158.300 78.504,158.480 78.000 C 159.117 76.212,159.995 73.290,160.362 71.737 C 160.833 69.742,160.924 69.794,161.583 72.424 M192.667 75.608 C 191.610 75.749,189.927 76.318,189.301 76.746 C 188.962 76.977,188.624 77.168,188.551 77.170 C 188.358 77.174,186.315 79.158,185.894 79.750 C 185.378 80.476,185.276 80.220,185.197 77.990 L 185.125 75.990 183.021 76.037 L 180.917 76.083 180.961 76.750 C 180.986 77.117,181.049 85.275,181.102 94.880 L 181.199 112.343 183.474 112.296 L 185.750 112.250 185.836 105.250 C 185.883 101.400,185.940 98.338,185.961 98.445 C 185.982 98.552,186.460 99.100,187.021 99.661 C 190.013 102.653,195.631 103.205,199.454 100.882 C 200.923 99.990,202.404 98.684,202.915 97.831 C 203.992 96.032,204.305 95.427,204.639 94.500 C 205.708 91.529,205.926 85.062,205.000 83.750 C 204.936 83.658,204.744 83.171,204.574 82.667 C 202.936 77.803,198.024 74.892,192.667 75.608 M222.750 75.669 C 220.404 76.030,217.880 77.562,216.510 79.458 C 215.777 80.473,215.720 80.392,215.560 78.125 L 215.417 76.083 213.349 76.036 L 211.280 75.989 211.390 78.870 C 211.450 80.454,211.499 88.633,211.499 97.046 L 211.500 112.343 213.792 112.296 L 216.083 112.250 216.127 105.506 C 216.173 98.308,216.196 98.127,216.912 99.160 C 217.169 99.530,217.425 99.833,217.483 99.833 C 217.540 99.833,217.809 100.039,218.080 100.291 C 220.036 102.105,225.768 103.049,227.417 101.829 C 227.508 101.761,227.824 101.654,228.118 101.591 C 230.675 101.044,233.605 98.151,234.831 94.964 C 237.559 87.868,235.519 80.090,230.057 76.764 C 228.247 75.661,225.492 75.249,222.750 75.669 M305.833 75.596 C 303.821 75.955,303.228 76.132,301.917 76.768 C 297.026 79.137,294.273 84.715,295.003 90.775 C 295.185 92.291,295.542 93.889,295.834 94.498 C 295.901 94.637,296.149 95.176,296.387 95.698 C 298.266 99.818,302.839 102.471,307.750 102.291 C 311.456 102.154,314.324 100.910,316.786 98.371 C 320.438 94.607,321.395 86.948,318.823 82.083 C 318.532 81.533,318.188 80.884,318.059 80.641 C 316.312 77.345,310.189 74.818,305.833 75.596 M336.000 75.663 C 333.889 76.114,331.756 77.963,330.762 80.204 L 330.371 81.083 330.274 80.167 C 330.220 79.662,330.129 78.516,330.072 77.620 L 329.968 75.990 327.942 76.037 L 325.917 76.083 325.964 76.500 C 325.991 76.729,326.056 82.485,326.110 89.292 L 326.207 101.667 328.520 101.667 L 330.833 101.667 330.833 94.008 C 330.833 85.647,330.846 85.507,331.818 83.504 C 332.988 81.091,334.833 79.930,337.458 79.953 L 338.833 79.966 338.833 77.733 L 338.833 75.500 337.708 75.519 C 337.090 75.530,336.321 75.594,336.000 75.663 M350.917 75.658 C 340.343 77.429,337.413 94.487,346.667 100.404 C 347.697 101.063,348.073 101.217,350.417 101.941 C 351.960 102.418,356.694 102.377,358.750 101.869 C 362.788 100.870,362.770 100.884,362.143 99.197 C 362.065 98.985,362.000 98.671,362.000 98.500 C 362.000 98.329,361.927 97.997,361.838 97.762 L 361.676 97.336 360.296 97.827 C 353.148 100.372,346.725 97.593,345.819 91.562 C 345.502 89.451,344.481 89.667,354.807 89.667 L 363.792 89.667 363.896 89.146 C 364.726 84.993,362.239 78.815,359.000 76.985 C 358.771 76.856,358.471 76.663,358.333 76.557 C 357.341 75.792,353.150 75.284,350.917 75.658 M308.833 79.074 C 312.670 80.030,314.747 82.639,315.352 87.261 C 316.597 96.777,307.038 102.809,301.812 95.805 C 300.709 94.327,300.389 93.518,299.911 91.000 C 298.610 84.152,303.419 77.724,308.833 79.074 M355.459 79.292 C 356.884 79.880,357.935 80.903,358.619 82.367 C 359.130 83.459,359.628 85.826,359.418 86.165 C 359.310 86.340,345.973 86.417,345.800 86.244 C 345.600 86.045,346.169 84.073,346.764 82.900 C 348.522 79.436,352.157 77.927,355.459 79.292 M194.614 79.407 C 198.756 80.282,200.744 83.344,200.734 88.833 C 200.728 92.220,200.323 93.762,198.937 95.682 C 196.215 99.454,190.390 99.608,187.458 95.987 C 186.044 94.241,185.929 93.744,185.923 89.333 C 185.917 85.627,185.938 85.358,186.310 84.333 C 187.645 80.655,191.026 78.649,194.614 79.407 M225.080 79.419 C 225.721 79.555,226.508 79.790,226.830 79.943 C 228.320 80.647,229.890 82.479,230.450 84.167 C 231.499 87.325,231.526 89.992,230.544 93.250 C 228.234 100.917,217.188 100.094,216.294 92.188 C 216.065 90.165,216.233 85.647,216.579 84.530 C 216.967 83.275,217.746 82.024,218.569 81.333 C 218.842 81.104,219.196 80.789,219.357 80.634 C 220.496 79.531,223.050 78.989,225.080 79.419 " stroke="none" fill="#ffffff" fill-rule="evenodd"></path></g></svg>