<svg id="svg" version="1.1" xmlns="http://www.w3.org/2000/svg" xmlns:xlink="http://www.w3.org/1999/xlink" width="400" height="130.83333333333331" viewBox="0, 0, 400,130.83333333333331"><g id="svgg"><path id="path0" d="M172.384 26.518 C 167.227 27.176,166.070 35.058,170.794 37.348 C 174.355 39.075,178.250 36.238,178.250 31.917 C 178.250 28.257,175.876 26.072,172.384 26.518 M241.746 26.515 C 239.420 26.810,237.511 28.994,237.239 31.671 C 236.508 38.861,246.375 40.124,247.666 33.005 C 248.379 29.074,245.599 26.026,241.746 26.515 M125.452 26.786 C 125.411 26.858,125.283 27.217,125.168 27.583 C 125.053 27.950,124.322 29.938,123.543 32.000 C 122.765 34.063,121.991 36.144,121.823 36.625 L 121.518 37.500 122.759 37.500 C 123.643 37.500,123.999 37.440,123.996 37.292 C 123.994 37.177,124.162 36.462,124.369 35.704 L 124.746 34.324 126.740 34.370 L 128.734 34.417 129.143 35.958 L 129.552 37.500 130.776 37.500 C 132.294 37.500,132.350 38.095,130.246 31.908 L 128.492 26.750 127.010 26.702 C 126.194 26.676,125.493 26.714,125.452 26.786 M134.083 32.083 L 134.083 37.500 135.038 37.500 L 135.993 37.500 135.911 35.375 C 135.633 28.170,135.599 28.692,136.257 30.083 C 136.495 30.586,137.622 32.390,138.762 34.091 C 139.901 35.792,140.833 37.255,140.833 37.342 C 140.833 37.429,141.283 37.500,141.833 37.500 L 142.833 37.500 142.833 32.083 L 142.833 26.667 141.892 26.667 L 140.951 26.667 141.039 30.684 L 141.128 34.701 140.423 33.392 C 140.036 32.672,139.105 31.146,138.356 30.000 C 137.607 28.854,136.864 27.637,136.705 27.296 L 136.417 26.675 135.250 26.671 L 134.083 26.667 134.083 32.083 M146.000 32.067 L 146.000 37.468 147.625 37.536 C 152.432 37.737,154.768 36.021,154.966 32.143 C 155.165 28.224,153.288 26.667,148.364 26.667 L 146.000 26.667 146.000 32.067 M157.583 32.083 L 157.583 37.500 158.714 37.500 L 159.846 37.500 159.731 35.333 L 159.617 33.167 160.517 33.169 C 162.086 33.173,162.544 33.647,163.457 36.208 L 163.917 37.499 165.114 37.500 L 166.311 37.500 165.656 35.891 C 164.807 33.803,164.278 32.918,163.664 32.555 C 163.042 32.188,163.042 32.092,163.670 31.832 C 165.303 31.155,165.822 28.789,164.604 27.571 C 163.851 26.818,163.118 26.669,160.167 26.668 L 157.583 26.667 157.583 32.083 M180.912 32.083 L 180.908 37.500 181.996 37.500 L 183.083 37.500 183.083 32.083 L 183.083 26.667 182.000 26.667 L 180.917 26.667 180.912 32.083 M186.189 32.067 L 186.186 37.500 187.635 37.531 C 191.252 37.609,192.149 37.378,193.513 36.014 C 196.232 33.295,195.696 28.590,192.500 27.119 C 191.862 26.825,191.334 26.763,188.971 26.703 L 186.192 26.634 186.189 32.067 M204.422 27.952 C 204.170 28.666,203.297 30.998,202.482 33.135 C 200.684 37.850,200.711 37.500,202.134 37.500 L 203.269 37.500 203.539 36.375 C 203.688 35.756,203.889 35.041,203.986 34.786 L 204.162 34.323 206.123 34.370 L 208.083 34.417 208.500 35.958 L 208.917 37.499 210.125 37.500 C 211.604 37.500,211.588 37.783,210.316 34.060 C 209.757 32.423,208.974 30.108,208.576 28.917 L 207.853 26.750 206.367 26.702 L 204.881 26.655 204.422 27.952 M213.417 32.083 L 213.417 37.500 214.524 37.500 L 215.631 37.500 215.543 35.442 L 215.454 33.385 216.685 33.286 C 219.670 33.047,221.167 31.801,221.166 29.558 C 221.165 27.308,220.044 26.671,216.083 26.668 L 213.417 26.667 213.417 32.083 M223.500 32.083 L 223.500 37.500 224.583 37.500 L 225.667 37.500 225.667 35.441 L 225.667 33.381 226.941 33.285 C 230.006 33.053,231.938 30.922,231.176 28.612 C 230.677 27.098,229.543 26.669,226.042 26.668 L 223.500 26.667 223.500 32.083 M250.333 32.083 L 250.333 37.500 251.250 37.500 L 252.167 37.500 252.153 34.708 C 252.146 33.173,252.089 31.298,252.026 30.542 C 251.890 28.910,251.950 28.863,252.562 30.125 C 252.818 30.652,253.977 32.523,255.139 34.282 L 257.250 37.481 258.169 37.490 L 259.088 37.500 259.086 32.083 L 259.083 26.667 258.120 26.667 L 257.156 26.667 257.248 29.375 C 257.299 30.865,257.378 32.665,257.424 33.375 C 257.523 34.898,257.391 34.987,256.859 33.758 C 256.644 33.261,255.795 31.819,254.972 30.553 C 254.149 29.286,253.275 27.894,253.030 27.459 L 252.583 26.667 251.458 26.667 L 250.333 26.667 250.333 32.083 M127.555 30.465 L 128.291 32.833 126.711 32.833 C 125.369 32.833,125.146 32.795,125.228 32.581 C 125.281 32.442,125.636 31.352,126.016 30.157 C 126.396 28.962,126.732 28.010,126.763 28.041 C 126.794 28.072,127.151 29.163,127.555 30.465 M206.333 28.430 C 206.333 28.627,207.314 31.818,207.623 32.625 C 207.683 32.783,207.310 32.833,206.083 32.833 C 204.821 32.833,204.483 32.785,204.548 32.616 C 204.594 32.497,204.950 31.412,205.340 30.205 C 205.958 28.291,206.333 27.621,206.333 28.430 M150.451 28.418 C 154.208 29.533,153.472 35.629,149.543 35.941 C 148.132 36.053,148.189 36.196,148.062 32.221 C 147.918 27.747,147.961 27.678,150.451 28.418 M162.501 28.417 C 164.305 29.350,163.030 31.667,160.711 31.667 L 159.667 31.667 159.667 29.917 L 159.667 28.167 160.842 28.167 C 161.561 28.167,162.204 28.264,162.501 28.417 M174.410 28.571 C 175.727 29.342,176.445 31.478,176.005 33.313 C 175.045 37.314,170.337 36.696,170.042 32.529 C 169.812 29.285,172.097 27.215,174.410 28.571 M190.546 28.343 C 194.755 29.512,193.251 36.741,188.967 35.937 L 188.385 35.828 188.286 32.131 C 188.232 30.098,188.225 28.374,188.270 28.301 C 188.388 28.110,189.802 28.137,190.546 28.343 M218.309 28.404 C 220.211 29.387,219.050 31.710,216.583 31.857 L 215.583 31.917 215.536 30.042 L 215.489 28.167 216.669 28.167 C 217.365 28.167,218.038 28.264,218.309 28.404 M228.337 28.418 C 228.951 28.736,229.167 29.138,229.167 29.967 C 229.167 31.155,228.470 31.678,226.565 31.918 L 225.713 32.025 225.607 31.492 C 225.548 31.198,225.500 30.330,225.500 29.563 L 225.500 28.167 226.675 28.167 C 227.397 28.167,228.038 28.264,228.337 28.418 M243.559 28.396 C 246.487 29.619,245.997 35.612,242.941 35.956 C 240.891 36.187,239.470 34.615,239.454 32.099 C 239.437 29.254,241.392 27.490,243.559 28.396 M246.583 47.925 L 244.750 48.821 246.794 48.827 L 248.838 48.833 248.794 65.984 L 248.750 83.134 248.129 84.025 L 247.507 84.917 252.183 84.961 L 256.858 85.005 257.679 84.544 C 258.774 83.929,258.744 83.895,256.958 83.756 C 253.583 83.493,253.917 85.448,253.917 65.917 C 253.917 47.204,253.805 48.678,255.305 47.545 L 256.026 47.000 252.221 47.015 L 248.417 47.029 246.583 47.925 M140.250 48.281 C 125.877 50.146,117.809 63.145,122.991 76.088 C 127.269 86.771,137.557 90.015,154.632 86.065 C 156.767 85.571,158.548 85.167,158.590 85.167 C 158.632 85.167,158.667 83.061,158.667 80.488 L 158.667 75.809 159.609 74.821 L 160.551 73.833 154.883 73.833 L 149.216 73.833 147.483 74.770 C 146.530 75.285,145.637 75.777,145.500 75.864 C 145.340 75.964,145.847 75.988,146.917 75.930 C 147.833 75.880,149.615 75.790,150.875 75.729 L 153.167 75.618 153.167 80.027 L 153.167 84.436 151.875 84.871 C 146.353 86.730,139.703 85.666,134.883 82.151 C 125.218 75.104,124.321 59.080,133.238 52.757 C 139.151 48.564,147.174 49.158,152.731 54.200 L 153.712 55.090 153.092 56.059 C 152.364 57.196,152.363 57.191,153.356 56.979 C 154.023 56.837,154.412 56.540,156.332 54.708 L 158.540 52.600 158.081 52.235 C 154.672 49.516,145.834 47.557,140.250 48.281 M327.167 68.083 L 327.167 86.333 329.083 86.333 L 331.000 86.333 331.000 68.083 L 331.000 49.833 329.083 49.833 L 327.167 49.833 327.167 68.083 M309.333 60.281 C 307.128 60.646,305.104 61.839,303.609 63.654 C 303.126 64.241,302.842 64.171,302.836 63.465 C 302.834 63.308,302.749 62.615,302.646 61.923 L 302.459 60.667 300.896 60.667 L 299.333 60.667 299.333 79.250 L 299.333 97.833 301.266 97.833 L 303.199 97.833 303.130 90.708 C 303.091 86.790,303.001 83.452,302.929 83.292 C 302.676 82.730,303.131 83.005,304.216 84.068 C 307.086 86.883,312.377 87.579,316.208 85.646 C 323.917 81.756,323.888 64.861,316.167 61.206 C 314.374 60.358,311.345 59.948,309.333 60.281 M344.750 60.400 C 342.657 60.750,339.004 61.923,338.755 62.325 C 338.689 62.432,339.579 64.897,339.776 65.150 C 339.804 65.187,340.523 64.944,341.372 64.611 C 348.751 61.721,353.032 63.801,352.636 70.084 L 352.583 70.917 349.417 71.039 C 339.501 71.421,335.917 73.626,335.917 79.342 L 335.917 81.601 336.546 82.875 C 338.982 87.802,347.423 88.195,351.643 83.578 C 352.685 82.438,352.721 82.441,352.980 83.708 C 353.097 84.281,353.268 85.106,353.360 85.542 L 353.528 86.333 354.939 86.333 L 356.350 86.333 356.290 76.375 C 356.227 65.748,356.240 65.927,355.373 63.966 C 354.111 61.114,349.579 59.592,344.750 60.400 M173.494 60.647 C 159.336 63.738,159.365 83.293,173.532 85.768 C 182.228 87.287,189.895 80.783,189.459 72.257 C 189.050 64.261,181.636 58.869,173.494 60.647 M202.661 60.647 C 188.503 63.738,188.532 83.293,202.699 85.768 C 211.395 87.287,219.062 80.783,218.625 72.257 C 218.216 64.261,210.803 58.869,202.661 60.647 M268.731 60.504 C 259.677 62.135,255.593 72.608,260.868 80.663 C 264.905 86.826,274.307 87.997,279.287 82.958 C 280.453 81.778,280.439 81.763,278.829 82.462 C 272.482 85.217,265.789 81.473,263.638 73.963 C 263.187 72.390,263.064 72.502,265.446 72.311 L 267.417 72.153 273.716 69.620 C 280.896 66.733,280.271 67.222,279.321 65.227 C 277.649 61.714,273.150 59.708,268.731 60.504 M281.750 60.500 C 281.807 60.592,282.109 60.667,282.421 60.667 L 282.989 60.667 283.042 62.458 L 283.096 64.250 283.131 62.458 L 283.167 60.667 283.740 60.667 C 284.056 60.667,284.360 60.592,284.417 60.500 C 284.482 60.394,283.998 60.333,283.083 60.333 C 282.168 60.333,281.684 60.394,281.750 60.500 M285.167 62.250 C 285.167 64.704,285.472 64.807,285.536 62.375 L 285.583 60.583 286.153 62.375 C 286.841 64.538,286.867 64.545,287.413 62.708 C 288.095 60.411,288.143 60.389,288.155 62.375 C 288.162 63.451,288.233 64.167,288.333 64.167 C 288.435 64.167,288.500 63.417,288.500 62.250 C 288.500 59.660,288.119 59.514,287.408 61.833 C 287.155 62.658,286.898 63.333,286.837 63.333 C 286.776 63.333,286.524 62.658,286.277 61.833 C 285.575 59.489,285.167 59.642,285.167 62.250 M358.875 60.958 C 358.919 61.119,361.216 66.892,363.978 73.787 C 366.740 80.682,369.000 86.397,369.000 86.488 C 369.000 86.578,368.671 87.504,368.268 88.546 C 366.310 93.611,365.187 94.583,361.292 94.583 L 359.000 94.583 359.000 96.025 L 359.000 97.466 360.055 97.650 C 365.154 98.538,368.490 96.724,370.840 91.784 C 371.351 90.710,382.667 60.991,382.667 60.723 C 382.667 60.687,381.752 60.677,380.634 60.703 L 378.602 60.750 378.064 62.250 C 377.769 63.075,376.316 67.125,374.836 71.250 C 373.357 75.375,371.896 79.572,371.591 80.577 C 370.998 82.528,370.766 82.848,370.582 81.967 C 370.292 80.581,368.737 76.171,366.214 69.583 C 364.704 65.642,363.320 62.023,363.139 61.542 L 362.809 60.667 360.802 60.667 C 358.970 60.667,358.802 60.692,358.875 60.958 M233.000 61.170 C 229.344 61.420,226.599 62.542,224.512 64.642 C 218.647 70.540,222.331 79.568,230.603 79.567 L 232.290 79.567 232.043 80.293 C 231.534 81.787,231.860 83.226,233.098 84.948 C 233.402 85.371,233.542 85.332,230.500 85.662 C 221.907 86.593,216.988 91.743,219.597 97.077 C 222.487 102.985,235.580 103.808,241.432 98.450 C 246.311 93.982,245.690 88.918,239.671 84.087 C 236.909 81.870,236.694 81.574,236.818 80.167 C 236.887 79.388,237.649 78.384,239.094 77.168 C 243.721 73.271,244.042 67.668,239.860 63.785 C 238.766 62.770,238.707 62.833,240.751 62.833 L 242.503 62.833 244.001 61.981 C 244.826 61.513,245.500 61.100,245.500 61.065 C 245.500 60.954,234.846 61.044,233.000 61.170 M177.704 62.337 C 183.703 64.622,186.555 77.417,182.142 82.246 C 176.423 88.502,168.004 81.406,168.001 70.327 C 167.999 64.190,172.608 60.395,177.704 62.337 M206.871 62.337 C 212.869 64.622,215.721 77.417,211.308 82.246 C 205.590 88.502,197.170 81.406,197.167 70.327 C 197.166 64.196,201.779 60.397,206.871 62.337 M271.523 62.534 C 273.867 63.607,275.446 66.393,274.308 67.446 C 273.970 67.759,263.711 72.333,263.347 72.333 C 263.139 72.333,263.022 69.631,263.173 68.290 C 263.698 63.602,267.753 60.808,271.523 62.534 M233.467 63.343 C 237.721 65.469,239.682 74.071,236.543 76.834 C 232.077 80.765,226.043 75.644,226.365 68.198 C 226.550 63.934,229.970 61.596,233.467 63.343 M313.106 63.756 C 319.636 65.910,319.713 80.728,313.208 83.169 C 309.827 84.438,305.600 82.914,304.238 79.937 C 302.818 76.833,302.832 69.640,304.264 66.768 C 305.669 63.951,309.619 62.605,313.106 63.756 M352.458 75.875 C 352.273 80.948,349.720 83.554,344.917 83.576 C 341.580 83.592,339.817 82.160,339.784 79.408 C 339.734 75.305,342.629 73.816,350.894 73.691 L 352.539 73.667 352.458 75.875 M236.802 88.030 C 240.071 90.455,241.082 91.899,241.053 94.101 C 240.996 98.368,236.071 100.813,230.035 99.569 C 221.276 97.763,221.498 88.585,230.333 87.170 C 231.021 87.060,231.696 86.948,231.833 86.921 C 231.971 86.894,232.782 86.863,233.636 86.853 L 235.189 86.833 236.802 88.030 " stroke="none" fill="#f9f9f9" fill-rule="evenodd"></path><path id="path1" d="M14.167 0.258 C 7.035 1.784,1.679 7.175,0.258 14.258 C 0.017 15.457,-0.004 20.386,0.038 66.000 L 0.083 116.417 0.547 117.917 C 2.538 124.352,6.959 128.629,13.500 130.449 C 14.542 130.739,21.654 130.750,200.000 130.750 L 385.417 130.750 386.833 130.355 C 393.478 128.502,398.357 123.313,399.735 116.632 C 400.140 114.668,400.140 16.165,399.735 14.201 C 398.367 7.572,393.518 2.378,386.917 0.473 L 385.583 0.088 200.417 0.057 C 42.796 0.031,15.089 0.061,14.167 0.258 M175.072 26.677 C 178.080 27.802,179.341 31.693,177.729 34.874 C 175.268 39.731,168.176 38.332,167.722 32.899 C 167.352 28.474,171.191 25.224,175.072 26.677 M244.321 26.595 C 248.933 27.965,249.015 35.338,244.441 37.428 C 240.826 39.080,237.250 36.505,237.250 32.250 C 237.250 28.048,240.490 25.457,244.321 26.595 M34.417 27.460 C 35.585 28.122,73.966 50.263,96.833 63.466 C 105.206 68.300,105.497 68.505,105.499 69.544 C 105.501 70.443,104.609 71.048,95.833 76.100 C 84.807 82.447,75.344 87.907,52.083 101.338 C 29.704 114.261,31.527 113.343,30.479 112.228 L 30.083 111.806 30.038 70.195 C 29.987 23.391,29.876 27.434,31.229 26.820 C 32.148 26.403,32.772 26.528,34.417 27.460 M129.939 30.750 C 131.207 34.446,132.167 37.338,132.167 37.458 C 132.167 37.481,131.539 37.500,130.771 37.500 L 129.376 37.500 129.275 36.875 C 129.220 36.531,129.057 35.854,128.913 35.370 L 128.651 34.490 126.706 34.536 L 124.761 34.583 124.557 35.333 C 124.445 35.746,124.271 36.402,124.170 36.792 L 123.987 37.500 122.744 37.500 C 121.223 37.500,121.156 38.084,123.333 32.348 C 124.342 29.692,125.167 27.482,125.167 27.437 C 125.167 26.636,125.472 26.487,127.004 26.535 L 128.511 26.583 129.939 30.750 M137.009 27.708 C 137.402 28.373,138.172 29.588,138.722 30.409 C 139.271 31.229,140.049 32.504,140.449 33.242 C 141.061 34.368,141.165 34.490,141.097 34.000 C 141.052 33.679,140.970 31.857,140.914 29.950 L 140.812 26.484 141.854 26.533 L 142.896 26.583 142.906 32.042 L 142.917 37.500 141.917 37.500 L 140.917 37.500 138.632 34.032 C 137.375 32.125,136.192 30.231,136.002 29.824 C 135.813 29.417,135.702 29.233,135.757 29.417 C 135.811 29.600,135.900 31.494,135.954 33.625 L 136.052 37.500 134.984 37.500 L 133.917 37.500 133.956 32.042 C 133.978 29.040,133.996 26.565,133.998 26.542 C 133.999 26.519,134.516 26.500,135.148 26.500 L 136.295 26.500 137.009 27.708 M152.022 26.905 C 156.426 28.502,156.077 35.475,151.500 37.345 C 151.084 37.515,150.203 37.583,148.429 37.583 L 145.942 37.583 145.958 32.083 C 145.967 29.058,145.981 26.556,145.987 26.522 C 146.029 26.318,151.332 26.654,152.022 26.905 M163.965 26.974 C 165.783 27.923,165.807 30.623,164.006 31.704 C 163.682 31.899,163.390 32.078,163.357 32.102 C 163.325 32.126,163.574 32.388,163.910 32.683 C 164.246 32.978,164.703 33.579,164.925 34.017 C 165.315 34.787,166.333 37.253,166.333 37.428 C 166.333 37.475,165.759 37.492,165.057 37.465 L 163.780 37.417 163.415 36.333 C 162.600 33.914,162.126 33.357,160.767 33.216 L 159.833 33.120 159.833 35.310 L 159.833 37.500 158.667 37.500 L 157.500 37.500 157.500 31.981 L 157.500 26.462 160.375 26.531 C 162.949 26.594,163.325 26.640,163.965 26.974 M183.167 32.000 L 183.167 37.500 181.958 37.500 L 180.750 37.500 180.789 32.042 C 180.811 29.040,180.830 26.565,180.831 26.542 C 180.832 26.519,181.358 26.500,182.000 26.500 L 183.167 26.500 183.167 32.000 M192.189 26.905 C 196.343 28.412,196.353 35.078,192.204 37.115 C 191.284 37.567,191.158 37.583,188.695 37.583 L 186.140 37.583 186.146 32.125 C 186.150 29.123,186.156 26.620,186.160 26.563 C 186.176 26.328,191.418 26.625,192.189 26.905 M209.687 31.898 C 210.684 34.821,211.500 37.277,211.500 37.356 C 211.500 37.435,210.862 37.500,210.083 37.500 C 208.727 37.500,208.666 37.484,208.661 37.125 C 208.658 36.919,208.519 36.262,208.352 35.667 L 208.050 34.583 206.115 34.536 L 204.179 34.490 203.848 35.620 C 203.666 36.241,203.494 36.900,203.465 37.083 C 203.419 37.379,203.265 37.422,202.110 37.466 C 200.819 37.514,200.807 37.511,200.923 37.132 C 200.987 36.922,201.771 34.800,202.666 32.417 C 203.560 30.033,204.386 27.783,204.501 27.417 C 204.616 27.050,204.744 26.691,204.785 26.619 C 204.827 26.547,205.538 26.509,206.367 26.536 L 207.873 26.583 209.687 31.898 M219.804 27.056 C 223.024 28.731,221.256 32.763,217.042 33.358 L 215.667 33.552 215.667 35.526 L 215.667 37.500 214.500 37.500 L 213.333 37.500 213.333 31.983 L 213.333 26.466 216.125 26.531 C 218.788 26.592,218.958 26.616,219.804 27.056 M229.750 27.000 C 231.004 27.627,231.376 28.293,231.303 29.779 C 231.203 31.835,229.782 33.018,226.984 33.375 L 225.620 33.549 225.711 35.525 L 225.802 37.500 224.609 37.500 L 223.417 37.500 223.444 32.042 C 223.459 29.040,223.478 26.558,223.486 26.527 C 223.564 26.218,229.007 26.628,229.750 27.000 M252.995 27.194 C 253.194 27.576,253.964 28.832,254.706 29.986 C 255.448 31.140,256.330 32.590,256.666 33.208 L 257.278 34.334 257.200 30.408 L 257.122 26.483 258.147 26.533 L 259.173 26.583 259.212 32.042 L 259.250 37.500 258.125 37.500 C 257.506 37.500,257.000 37.427,257.000 37.339 C 257.000 37.250,256.107 35.844,255.015 34.214 C 253.923 32.584,252.799 30.800,252.518 30.250 L 252.006 29.250 252.083 30.500 C 252.125 31.188,252.200 33.044,252.249 34.625 L 252.337 37.500 251.294 37.500 L 250.250 37.500 250.277 32.042 C 250.292 29.040,250.311 26.565,250.319 26.542 C 250.327 26.519,250.851 26.500,251.483 26.500 L 252.633 26.500 252.995 27.194 M126.034 30.306 C 125.130 33.047,125.069 32.833,126.750 32.833 C 127.529 32.833,128.165 32.777,128.164 32.708 C 128.162 32.640,127.840 31.593,127.448 30.382 L 126.736 28.181 126.034 30.306 M159.895 28.294 C 159.766 28.378,159.734 28.934,159.794 30.063 L 159.881 31.709 160.856 31.620 C 163.962 31.339,164.017 28.161,160.917 28.169 C 160.458 28.171,159.999 28.227,159.895 28.294 M172.267 28.340 C 169.918 29.043,169.299 33.512,171.315 35.209 C 173.507 37.054,176.004 35.332,175.998 31.981 C 175.995 29.461,174.241 27.749,172.267 28.340 M205.417 30.274 C 205.050 31.435,204.726 32.487,204.696 32.610 C 204.654 32.784,204.960 32.833,206.071 32.833 C 206.857 32.833,207.499 32.777,207.497 32.708 C 207.495 32.640,207.176 31.588,206.788 30.372 L 206.083 28.162 205.417 30.274 M215.689 28.316 C 215.507 28.431,215.486 28.803,215.582 30.147 L 215.703 31.833 216.310 31.832 C 218.445 31.829,219.725 30.276,218.745 28.877 C 218.335 28.292,216.313 27.921,215.689 28.316 M225.778 28.278 C 225.717 28.339,225.667 29.164,225.667 30.111 L 225.667 31.833 226.292 31.829 C 228.502 31.815,229.841 30.370,228.895 29.019 C 228.426 28.351,226.228 27.827,225.778 28.278 M241.400 28.484 C 238.654 29.731,238.996 35.069,241.871 35.843 C 245.058 36.702,246.842 31.453,244.211 28.955 C 243.373 28.159,242.454 28.005,241.400 28.484 M148.167 32.041 L 148.250 35.750 149.250 35.797 C 151.678 35.911,153.249 33.819,152.700 31.202 C 152.294 29.267,151.141 28.334,149.156 28.333 L 148.083 28.333 148.167 32.041 M188.335 31.458 C 188.336 33.177,188.383 34.865,188.440 35.208 L 188.544 35.833 189.511 35.833 C 191.784 35.833,192.908 34.590,192.914 32.070 C 192.919 29.658,191.666 28.333,189.381 28.333 L 188.333 28.333 188.335 31.458 M256.333 46.892 C 256.333 46.925,255.991 47.168,255.572 47.433 C 255.153 47.698,254.647 48.177,254.447 48.499 L 254.083 49.083 254.033 65.500 C 254.000 76.525,254.040 82.113,254.157 82.514 C 254.382 83.291,254.741 83.440,256.948 83.676 C 257.939 83.782,258.771 83.888,258.797 83.912 C 258.823 83.935,258.386 84.228,257.827 84.561 L 256.809 85.167 252.071 85.167 C 249.465 85.167,247.333 85.121,247.333 85.066 C 247.333 85.010,247.547 84.691,247.809 84.357 C 248.071 84.023,248.371 83.586,248.476 83.386 C 248.616 83.119,248.667 78.441,248.667 65.928 L 248.667 48.833 246.625 48.822 L 244.583 48.811 246.583 47.836 L 248.583 46.862 252.458 46.848 C 254.590 46.840,256.333 46.860,256.333 46.892 M145.825 48.172 C 150.447 48.581,154.740 49.940,157.774 51.954 C 158.857 52.674,159.063 52.252,156.411 54.753 C 154.348 56.697,154.076 56.898,153.244 57.092 C 152.162 57.343,152.176 57.389,152.954 56.128 L 153.574 55.123 152.582 54.200 C 147.446 49.419,139.547 48.702,133.785 52.494 C 123.172 59.479,125.715 78.218,138.049 83.917 C 142.431 85.941,148.495 86.233,152.388 84.606 L 153.000 84.350 153.000 80.007 L 153.000 75.664 151.875 75.754 C 149.870 75.913,145.093 76.149,145.036 76.092 C 145.005 76.061,145.965 75.503,147.168 74.851 L 149.356 73.667 155.011 73.667 C 158.154 73.667,160.667 73.732,160.667 73.813 C 160.667 73.894,160.329 74.236,159.916 74.575 C 158.741 75.538,158.765 75.422,158.670 80.580 L 158.583 85.244 154.833 86.114 C 137.974 90.027,127.880 87.088,123.244 76.915 C 116.363 61.817,128.302 46.621,145.825 48.172 M331.000 68.000 L 331.000 86.333 329.083 86.333 L 327.167 86.333 327.167 68.000 L 327.167 49.667 329.083 49.667 L 331.000 49.667 331.000 68.000 M314.325 60.438 C 319.363 61.722,321.885 66.048,321.892 73.417 C 321.897 78.635,320.979 81.506,318.502 84.016 C 314.809 87.755,307.832 87.789,304.128 84.085 L 303.083 83.040 303.136 90.520 L 303.188 98.000 301.261 98.000 L 299.333 98.000 299.333 79.250 L 299.333 60.500 300.899 60.500 C 302.697 60.500,302.507 60.291,302.841 62.625 C 303.076 64.263,302.971 64.230,304.097 63.014 C 306.512 60.405,310.378 59.432,314.325 60.438 M180.157 60.679 C 186.111 62.173,190.253 68.215,189.510 74.323 C 187.780 88.549,167.301 90.437,163.243 76.744 C 160.383 67.095,169.859 58.096,180.157 60.679 M209.324 60.679 C 215.278 62.173,219.419 68.215,218.677 74.323 C 216.949 88.536,196.449 90.431,192.410 76.750 C 189.557 67.087,199.021 58.095,209.324 60.679 M273.571 60.602 C 276.625 61.342,279.393 63.981,280.042 66.770 C 280.196 67.433,268.159 72.167,265.833 72.358 C 264.871 72.437,263.923 72.520,263.728 72.542 L 263.372 72.583 263.696 73.824 C 265.693 81.479,273.028 85.383,279.351 82.158 C 280.916 81.359,280.928 81.493,279.417 82.919 C 273.063 88.913,262.707 86.456,259.522 78.197 C 255.640 68.130,263.584 58.181,273.571 60.602 M284.459 60.458 C 284.505 60.599,284.334 60.667,283.931 60.667 L 283.333 60.667 283.333 62.417 C 283.333 63.861,283.290 64.167,283.083 64.167 C 282.877 64.167,282.833 63.861,282.833 62.417 L 282.833 60.667 282.250 60.667 C 281.694 60.667,281.529 60.527,281.784 60.271 C 281.992 60.064,284.384 60.231,284.459 60.458 M286.254 61.439 C 286.856 63.415,286.821 63.407,287.357 61.708 C 288.115 59.306,288.500 59.461,288.500 62.167 C 288.500 63.389,288.435 64.167,288.333 64.167 C 288.234 64.167,288.165 63.511,288.162 62.542 C 288.156 60.737,288.077 60.767,287.485 62.795 C 286.974 64.547,286.754 64.526,286.157 62.667 L 285.702 61.250 285.684 62.708 C 285.670 63.886,285.619 64.167,285.417 64.167 C 285.208 64.167,285.167 63.832,285.167 62.155 C 285.167 60.184,285.174 60.145,285.529 60.197 C 285.820 60.239,285.963 60.485,286.254 61.439 M350.389 60.414 C 353.504 61.074,355.315 62.770,356.078 65.743 C 356.293 66.580,356.333 68.283,356.333 76.542 L 356.333 86.346 354.885 86.298 L 353.437 86.250 353.318 85.750 C 353.252 85.475,353.075 84.673,352.923 83.968 L 352.648 82.685 351.363 83.968 C 346.263 89.058,337.029 87.304,335.837 81.018 C 334.666 74.843,339.424 71.029,348.333 71.002 C 349.113 71.000,350.378 70.949,351.145 70.889 L 352.540 70.781 352.457 68.932 C 352.212 63.432,348.109 61.906,341.225 64.755 C 340.438 65.082,339.772 65.326,339.746 65.299 C 339.720 65.272,339.433 64.589,339.108 63.781 L 338.517 62.312 339.634 61.810 C 342.917 60.335,347.320 59.764,350.389 60.414 M365.521 67.500 C 368.589 75.486,369.818 78.876,370.325 80.750 C 370.524 81.483,370.723 82.195,370.769 82.331 C 370.815 82.467,371.402 80.929,372.072 78.914 C 373.170 75.615,377.874 62.383,378.427 61.042 L 378.650 60.500 380.759 60.500 C 382.700 60.500,382.860 60.523,382.757 60.792 C 382.695 60.952,380.127 67.758,377.049 75.917 C 371.354 91.015,370.688 92.628,369.396 94.448 C 367.511 97.106,364.632 98.256,360.904 97.840 C 358.865 97.613,359.000 97.751,359.000 95.904 L 359.000 94.327 359.458 94.445 C 359.710 94.509,360.667 94.563,361.583 94.565 C 364.980 94.569,366.273 93.391,368.169 88.561 L 368.989 86.473 363.887 73.778 C 361.081 66.796,358.749 60.950,358.705 60.787 C 358.631 60.512,358.781 60.493,360.745 60.537 L 362.864 60.583 365.521 67.500 M245.667 61.066 C 245.667 61.102,244.924 61.552,244.017 62.066 L 242.367 63.000 240.772 63.000 L 239.176 63.000 240.243 64.082 C 244.169 68.067,243.729 73.258,239.128 77.259 C 236.018 79.963,236.022 81.067,239.146 83.552 C 244.754 88.012,246.005 91.420,243.655 95.830 C 238.453 105.590,217.088 103.403,218.966 93.302 C 219.799 88.823,224.328 86.050,231.875 85.399 C 232.585 85.337,233.167 85.268,233.167 85.244 C 233.167 85.220,232.910 84.818,232.596 84.352 C 231.777 83.135,231.531 81.897,231.857 80.643 L 232.112 79.667 230.681 79.664 C 226.901 79.658,223.985 77.973,222.499 74.937 C 219.558 68.930,223.947 62.286,231.583 61.185 C 232.554 61.045,245.667 60.934,245.667 61.066 M173.109 62.320 C 169.689 63.446,168.075 66.050,168.091 70.417 C 168.120 78.220,172.077 84.333,177.099 84.333 C 182.325 84.333,185.062 79.615,183.920 72.574 C 182.674 64.888,178.199 60.644,173.109 62.320 M202.276 62.320 C 198.855 63.446,197.241 66.050,197.258 70.417 C 197.287 78.220,201.244 84.333,206.265 84.333 C 211.492 84.333,214.229 79.615,213.087 72.574 C 211.841 64.888,207.366 60.644,202.276 62.320 M267.209 62.510 C 264.251 63.680,262.533 67.712,263.301 71.679 L 263.417 72.275 268.741 69.964 C 274.858 67.310,274.500 67.523,274.500 66.532 C 274.500 63.536,270.373 61.259,267.209 62.510 M229.722 63.132 C 223.664 65.297,226.538 78.069,233.083 78.069 C 236.955 78.069,238.800 74.786,237.673 69.906 C 236.503 64.845,233.083 61.930,229.722 63.132 M308.205 63.750 C 304.620 64.751,303.297 67.297,303.310 73.167 C 303.325 79.690,304.787 82.441,308.680 83.269 C 314.586 84.525,318.027 80.560,317.789 72.772 C 317.642 67.948,316.387 65.329,313.620 64.069 C 312.347 63.489,309.697 63.333,308.205 63.750 M348.880 73.843 C 342.284 74.168,339.921 75.597,339.918 79.263 C 339.916 82.034,341.278 83.341,344.309 83.473 C 349.772 83.712,352.490 80.776,352.499 74.625 L 352.500 73.667 351.958 73.692 C 351.660 73.706,350.275 73.774,348.880 73.843 M231.833 87.021 C 226.507 87.635,223.750 89.760,223.750 93.250 C 223.751 101.246,240.326 102.379,240.957 94.427 C 241.111 92.488,240.415 91.144,238.319 89.338 C 235.357 86.785,234.996 86.656,231.833 87.021 " stroke="none" fill="#000000" fill-rule="evenodd"></path><path id="path2" d="M31.234 26.817 C 29.886 27.429,29.995 23.899,30.037 65.462 C 30.057 85.787,30.097 101.273,30.125 99.875 L 30.175 97.333 38.295 97.333 L 46.414 97.333 42.499 101.279 C 40.345 103.449,46.699 97.177,56.618 87.340 L 74.653 69.455 57.317 52.201 L 39.982 34.946 40.033 32.829 L 40.083 30.711 36.583 28.707 C 32.755 26.516,32.274 26.346,31.234 26.817 M213.375 30.917 C 213.377 31.283,213.411 31.414,213.451 31.206 C 213.491 30.999,213.490 30.699,213.448 30.540 C 213.406 30.380,213.374 30.550,213.375 30.917 M134.045 31.833 C 134.045 32.246,134.078 32.415,134.118 32.208 C 134.157 32.002,134.157 31.665,134.118 31.458 C 134.078 31.252,134.045 31.421,134.045 31.833 M213.379 32.833 C 213.379 33.246,213.411 33.415,213.451 33.208 C 213.491 33.002,213.491 32.665,213.451 32.458 C 213.411 32.252,213.379 32.421,213.379 32.833 M248.747 65.667 C 248.747 74.971,248.767 78.777,248.792 74.125 C 248.816 69.473,248.816 61.860,248.792 57.208 C 248.767 52.556,248.747 56.362,248.747 65.667 M249.792 85.125 C 251.098 85.153,253.235 85.153,254.542 85.125 C 255.848 85.096,254.779 85.073,252.167 85.073 C 249.554 85.073,248.485 85.096,249.792 85.125 " stroke="none" fill="#63aab8" fill-rule="evenodd"></path><path id="path3" d="M126.208 26.623 C 126.644 26.657,127.356 26.657,127.792 26.623 C 128.227 26.588,127.871 26.560,127.000 26.560 C 126.129 26.560,125.773 26.588,126.208 26.623 M133.942 26.625 C 133.900 26.694,134.251 26.729,134.724 26.702 C 136.257 26.617,136.443 26.550,135.218 26.525 C 134.559 26.511,133.985 26.556,133.942 26.625 M141.292 26.621 C 141.590 26.658,142.077 26.658,142.375 26.621 C 142.673 26.584,142.429 26.553,141.833 26.553 C 141.237 26.553,140.994 26.584,141.292 26.621 M146.629 26.622 C 147.021 26.657,147.621 26.657,147.963 26.621 C 148.304 26.585,147.983 26.557,147.250 26.557 C 146.517 26.558,146.237 26.587,146.629 26.622 M158.125 26.622 C 158.515 26.657,159.152 26.657,159.542 26.622 C 159.931 26.587,159.612 26.558,158.833 26.558 C 158.054 26.558,157.735 26.587,158.125 26.622 M180.776 26.625 C 180.733 26.694,181.085 26.729,181.557 26.702 C 183.090 26.617,183.276 26.550,182.052 26.525 C 181.392 26.511,180.818 26.556,180.776 26.625 M186.064 26.740 C 186.013 26.872,186.007 27.116,186.050 27.282 C 186.102 27.482,186.134 27.432,186.147 27.132 C 186.166 26.687,186.185 26.680,187.458 26.624 L 188.750 26.567 187.453 26.534 C 186.455 26.508,186.135 26.555,186.064 26.740 M205.542 26.623 C 205.977 26.657,206.690 26.657,207.125 26.623 C 207.560 26.588,207.204 26.560,206.333 26.560 C 205.463 26.560,205.106 26.588,205.542 26.623 M214.047 26.623 C 214.485 26.657,215.160 26.657,215.547 26.622 C 215.934 26.587,215.575 26.559,214.750 26.559 C 213.925 26.560,213.609 26.588,214.047 26.623 M224.125 26.622 C 224.515 26.657,225.152 26.657,225.542 26.622 C 225.931 26.587,225.612 26.558,224.833 26.558 C 224.054 26.558,223.735 26.587,224.125 26.622 M250.667 26.602 C 251.662 26.727,252.796 26.740,252.724 26.625 C 252.682 26.556,252.108 26.511,251.448 26.525 C 250.789 26.539,250.438 26.574,250.667 26.602 M257.417 26.599 C 258.197 26.724,259.296 26.740,259.224 26.625 C 259.182 26.556,258.683 26.510,258.115 26.523 C 257.548 26.535,257.233 26.570,257.417 26.599 M145.879 27.667 C 145.879 28.079,145.911 28.248,145.951 28.042 C 145.991 27.835,145.991 27.498,145.951 27.292 C 145.911 27.085,145.879 27.254,145.879 27.667 M223.375 28.083 C 223.377 28.450,223.411 28.580,223.451 28.373 C 223.491 28.166,223.490 27.866,223.448 27.706 C 223.406 27.547,223.374 27.717,223.375 28.083 M250.209 28.083 C 250.211 28.450,250.245 28.580,250.285 28.373 C 250.324 28.166,250.323 27.866,250.281 27.706 C 250.239 27.547,250.207 27.717,250.209 28.083 M142.875 28.250 C 142.877 28.617,142.911 28.747,142.951 28.540 C 142.991 28.332,142.990 28.032,142.948 27.873 C 142.906 27.714,142.874 27.883,142.875 28.250 M140.879 28.667 C 140.879 29.079,140.911 29.248,140.951 29.042 C 140.991 28.835,140.991 28.498,140.951 28.292 C 140.911 28.085,140.879 28.254,140.879 28.667 M225.564 28.407 C 225.513 28.539,225.501 28.783,225.537 28.949 C 225.578 29.137,225.635 29.047,225.689 28.708 C 225.780 28.141,225.721 27.998,225.564 28.407 M148.042 29.083 C 148.044 29.450,148.078 29.580,148.118 29.373 C 148.158 29.166,148.156 28.866,148.115 28.706 C 148.073 28.547,148.040 28.717,148.042 29.083 M157.571 31.917 C 157.571 33.842,157.595 34.606,157.624 33.616 C 157.654 32.626,157.654 31.051,157.624 30.116 C 157.595 29.181,157.570 29.992,157.571 31.917 M183.070 32.000 C 183.070 33.879,183.095 34.648,183.124 33.708 C 183.154 32.769,183.154 31.231,183.124 30.292 C 183.095 29.352,183.070 30.121,183.070 32.000 M159.718 30.083 C 159.719 30.633,159.750 30.838,159.787 30.539 C 159.825 30.239,159.824 29.789,159.786 29.539 C 159.748 29.288,159.717 29.533,159.718 30.083 M215.550 31.000 C 215.550 31.504,215.581 31.710,215.619 31.458 C 215.658 31.206,215.658 30.794,215.619 30.542 C 215.581 30.290,215.550 30.496,215.550 31.000 M178.379 31.833 C 178.379 32.246,178.411 32.415,178.451 32.208 C 178.491 32.002,178.491 31.665,178.451 31.458 C 178.411 31.252,178.379 31.421,178.379 31.833 M257.212 32.167 C 257.212 32.579,257.245 32.748,257.284 32.542 C 257.324 32.335,257.324 31.998,257.284 31.792 C 257.245 31.585,257.212 31.754,257.212 32.167 M135.890 33.083 C 135.891 33.817,135.920 34.096,135.956 33.704 C 135.991 33.312,135.990 32.712,135.954 32.371 C 135.919 32.029,135.890 32.350,135.890 33.083 M215.565 33.571 C 215.515 33.702,215.507 33.983,215.547 34.196 C 215.605 34.497,215.626 34.465,215.644 34.052 C 215.664 33.584,215.731 33.513,216.208 33.454 L 216.750 33.387 216.203 33.360 C 215.863 33.343,215.622 33.423,215.565 33.571 M225.875 33.448 C 226.035 33.490,226.298 33.490,226.458 33.448 C 226.619 33.406,226.487 33.372,226.167 33.372 C 225.846 33.372,225.715 33.406,225.875 33.448 M124.775 34.458 C 124.732 34.527,125.309 34.563,126.057 34.538 C 128.507 34.458,128.784 34.392,126.802 34.362 C 125.730 34.346,124.818 34.390,124.775 34.458 M204.750 34.443 C 206.348 34.565,208.130 34.573,208.058 34.458 C 208.015 34.390,207.104 34.346,206.032 34.362 C 204.960 34.378,204.383 34.415,204.750 34.443 M142.879 35.667 C 142.879 36.079,142.911 36.248,142.951 36.042 C 142.991 35.835,142.991 35.498,142.951 35.292 C 142.911 35.085,142.879 35.254,142.879 35.667 M223.379 35.833 C 223.379 36.246,223.411 36.415,223.451 36.208 C 223.491 36.002,223.491 35.665,223.451 35.458 C 223.411 35.252,223.379 35.421,223.379 35.833 M250.209 35.917 C 250.211 36.283,250.245 36.414,250.285 36.206 C 250.324 35.999,250.323 35.699,250.281 35.540 C 250.239 35.380,250.207 35.550,250.209 35.917 M252.212 36.167 C 252.212 36.579,252.245 36.748,252.284 36.542 C 252.324 36.335,252.324 35.998,252.284 35.792 C 252.245 35.585,252.212 35.754,252.212 36.167 M145.879 36.333 C 145.879 36.746,145.911 36.915,145.951 36.708 C 145.991 36.502,145.991 36.165,145.951 35.958 C 145.911 35.752,145.879 35.921,145.879 36.333 M225.705 37.000 C 225.705 37.321,225.740 37.452,225.782 37.292 C 225.823 37.131,225.823 36.869,225.782 36.708 C 225.740 36.548,225.705 36.679,225.705 37.000 M186.067 37.167 C 186.081 37.511,186.170 37.586,186.583 37.599 C 187.034 37.613,187.039 37.608,186.635 37.547 C 186.334 37.502,186.165 37.360,186.119 37.115 C 186.063 36.815,186.054 36.824,186.067 37.167 M146.208 37.615 C 146.369 37.657,146.631 37.657,146.792 37.615 C 146.952 37.573,146.821 37.539,146.500 37.539 C 146.179 37.539,146.048 37.573,146.208 37.615 M142.125 48.118 C 142.331 48.157,142.669 48.157,142.875 48.118 C 143.081 48.078,142.912 48.045,142.500 48.045 C 142.087 48.045,141.919 48.078,142.125 48.118 M143.625 48.118 C 143.831 48.157,144.169 48.157,144.375 48.118 C 144.581 48.078,144.412 48.045,144.000 48.045 C 143.587 48.045,143.419 48.078,143.625 48.118 M328.132 49.790 C 328.708 49.823,329.608 49.823,330.132 49.790 C 330.655 49.757,330.183 49.730,329.083 49.730 C 327.983 49.731,327.555 49.758,328.132 49.790 M131.491 54.292 L 130.917 54.917 131.542 54.342 C 132.123 53.808,132.243 53.667,132.116 53.667 C 132.088 53.667,131.807 53.948,131.491 54.292 M86.010 58.237 L 85.438 58.917 86.085 58.297 C 86.442 57.957,86.700 57.651,86.658 57.618 C 86.617 57.585,86.326 57.863,86.010 58.237 M310.877 60.120 C 311.131 60.158,311.506 60.157,311.711 60.117 C 311.916 60.078,311.708 60.046,311.250 60.048 C 310.792 60.049,310.624 60.081,310.877 60.120 M176.208 60.286 C 176.460 60.324,176.873 60.324,177.125 60.286 C 177.377 60.248,177.171 60.217,176.667 60.217 C 176.162 60.217,175.956 60.248,176.208 60.286 M205.375 60.286 C 205.627 60.324,206.040 60.324,206.292 60.286 C 206.544 60.248,206.338 60.217,205.833 60.217 C 205.329 60.217,205.123 60.248,205.375 60.286 M282.463 60.289 C 282.855 60.324,283.455 60.324,283.796 60.288 C 284.137 60.252,283.817 60.223,283.083 60.224 C 282.350 60.224,282.071 60.254,282.463 60.289 M285.500 62.500 C 285.500 63.447,285.533 64.189,285.574 64.148 C 285.693 64.030,285.722 60.999,285.605 60.883 C 285.547 60.825,285.500 61.553,285.500 62.500 M268.958 62.118 C 269.165 62.157,269.502 62.157,269.708 62.118 C 269.915 62.078,269.746 62.045,269.333 62.045 C 268.921 62.045,268.752 62.078,268.958 62.118 M277.333 62.552 C 277.333 62.581,277.577 62.825,277.875 63.094 L 278.417 63.583 277.927 63.042 C 277.471 62.537,277.333 62.423,277.333 62.552 M239.667 63.552 C 239.667 63.581,239.910 63.825,240.208 64.094 L 240.750 64.583 240.260 64.042 C 239.804 63.537,239.667 63.423,239.667 63.552 M127.053 66.000 C 127.053 66.596,127.084 66.840,127.121 66.542 C 127.158 66.244,127.158 65.756,127.121 65.458 C 127.084 65.160,127.053 65.404,127.053 66.000 M53.883 90.050 C 41.360 102.481,31.246 112.646,31.325 112.725 C 31.641 113.041,32.745 112.486,39.190 108.771 C 69.442 91.334,86.275 81.604,86.412 81.477 C 86.513 81.383,84.352 79.103,80.665 75.415 L 74.756 69.504 75.748 68.502 C 76.293 67.951,76.704 67.504,76.661 67.509 C 76.618 67.514,66.368 77.657,53.883 90.050 M221.545 71.167 C 221.545 71.579,221.578 71.748,221.618 71.542 C 221.657 71.335,221.657 70.998,221.618 70.792 C 221.578 70.585,221.545 70.754,221.545 71.167 M350.960 70.951 C 351.168 70.991,351.468 70.990,351.627 70.948 C 351.786 70.906,351.617 70.874,351.250 70.875 C 350.883 70.877,350.753 70.911,350.960 70.951 M303.209 71.917 C 303.211 72.283,303.245 72.414,303.285 72.206 C 303.324 71.999,303.323 71.699,303.281 71.540 C 303.239 71.380,303.207 71.550,303.209 71.917 M317.892 73.333 C 317.892 74.112,317.920 74.431,317.955 74.042 C 317.990 73.652,317.990 73.015,317.955 72.625 C 317.920 72.235,317.892 72.554,317.892 73.333 M189.548 72.917 C 189.549 73.375,189.581 73.543,189.620 73.289 C 189.658 73.036,189.657 72.661,189.617 72.456 C 189.578 72.251,189.546 72.458,189.548 72.917 M218.714 72.917 C 218.716 73.375,218.748 73.543,218.786 73.289 C 218.825 73.036,218.824 72.661,218.784 72.456 C 218.744 72.251,218.713 72.458,218.714 72.917 M162.712 73.333 C 162.712 73.746,162.745 73.915,162.784 73.708 C 162.824 73.502,162.824 73.165,162.784 72.958 C 162.745 72.752,162.712 72.921,162.712 73.333 M191.879 73.333 C 191.879 73.746,191.911 73.915,191.951 73.708 C 191.991 73.502,191.991 73.165,191.951 72.958 C 191.911 72.752,191.879 72.921,191.879 73.333 M303.214 74.250 C 303.216 74.708,303.248 74.876,303.286 74.623 C 303.325 74.369,303.324 73.994,303.284 73.789 C 303.244 73.584,303.213 73.792,303.214 74.250 M154.815 73.792 L 160.548 73.838 160.232 74.211 L 159.917 74.583 160.292 74.266 C 160.498 74.091,160.667 73.885,160.667 73.808 C 160.667 73.730,158.060 73.684,154.875 73.706 L 149.083 73.745 154.815 73.792 M350.542 73.782 C 350.702 73.823,350.965 73.823,351.125 73.782 C 351.285 73.740,351.154 73.705,350.833 73.705 C 350.512 73.705,350.381 73.740,350.542 73.782 M153.000 80.034 C 152.954 82.481,152.974 84.426,153.045 84.356 C 153.115 84.285,153.152 82.283,153.128 79.905 L 153.083 75.583 153.000 80.034 M240.240 76.208 L 239.750 76.750 240.292 76.260 C 240.590 75.991,240.833 75.748,240.833 75.719 C 240.833 75.590,240.696 75.703,240.240 76.208 M145.070 76.022 C 145.020 76.102,145.210 76.167,145.490 76.167 C 145.771 76.167,146.000 76.138,146.000 76.103 C 146.000 75.961,145.152 75.888,145.070 76.022 M266.667 79.719 C 266.667 79.748,266.910 79.991,267.208 80.260 L 267.750 80.750 267.260 80.208 C 266.804 79.703,266.667 79.590,266.667 79.719 M166.500 82.417 C 166.811 82.737,167.103 83.000,167.149 83.000 C 167.195 83.000,166.978 82.737,166.667 82.417 C 166.356 82.096,166.064 81.833,166.018 81.833 C 165.972 81.833,166.189 82.096,166.500 82.417 M195.667 82.417 C 195.978 82.737,196.270 83.000,196.315 83.000 C 196.361 83.000,196.144 82.737,195.833 82.417 C 195.522 82.096,195.230 81.833,195.185 81.833 C 195.139 81.833,195.356 82.096,195.667 82.417 M351.242 84.042 L 350.583 84.750 351.292 84.091 C 351.950 83.478,352.077 83.333,351.950 83.333 C 351.923 83.333,351.605 83.652,351.242 84.042 M241.667 85.719 C 241.667 85.748,241.910 85.991,242.208 86.260 L 242.750 86.750 242.260 86.208 C 241.804 85.703,241.667 85.590,241.667 85.719 M141.708 87.948 C 141.869 87.990,142.131 87.990,142.292 87.948 C 142.452 87.906,142.321 87.872,142.000 87.872 C 141.679 87.872,141.548 87.906,141.708 87.948 M300.298 97.957 C 300.875 97.990,301.775 97.989,302.298 97.956 C 302.822 97.923,302.350 97.897,301.250 97.897 C 300.150 97.897,299.722 97.924,300.298 97.957 M362.044 97.953 C 362.297 97.991,362.672 97.990,362.877 97.951 C 363.082 97.911,362.875 97.880,362.417 97.881 C 361.958 97.882,361.791 97.915,362.044 97.953 M229.292 102.118 C 229.498 102.157,229.835 102.157,230.042 102.118 C 230.248 102.078,230.079 102.045,229.667 102.045 C 229.254 102.045,229.085 102.078,229.292 102.118 M231.042 102.115 C 231.202 102.157,231.465 102.157,231.625 102.115 C 231.785 102.073,231.654 102.039,231.333 102.039 C 231.012 102.039,230.881 102.073,231.042 102.115 " stroke="none" fill="#ac487e" fill-rule="evenodd"></path><path id="path4" d="M140.872 27.167 C 140.872 27.488,140.906 27.619,140.948 27.458 C 140.990 27.298,140.990 27.035,140.948 26.875 C 140.906 26.715,140.872 26.846,140.872 27.167 M157.539 27.667 C 157.539 27.988,157.573 28.119,157.615 27.958 C 157.657 27.798,157.657 27.535,157.615 27.375 C 157.573 27.215,157.539 27.346,157.539 27.667 M183.042 27.750 C 183.044 28.117,183.078 28.247,183.118 28.040 C 183.158 27.832,183.156 27.532,183.115 27.373 C 183.073 27.214,183.040 27.383,183.042 27.750 M213.387 29.333 C 213.387 29.929,213.417 30.173,213.454 29.875 C 213.491 29.577,213.491 29.090,213.454 28.792 C 213.417 28.494,213.387 28.738,213.387 29.333 M134.057 29.917 C 134.058 30.650,134.087 30.929,134.122 30.537 C 134.157 30.145,134.157 29.545,134.121 29.204 C 134.085 28.863,134.057 29.183,134.057 29.917 M257.221 29.750 C 257.222 30.392,257.252 30.634,257.288 30.288 C 257.324 29.942,257.324 29.417,257.287 29.121 C 257.250 28.825,257.221 29.108,257.221 29.750 M259.069 31.833 C 259.069 33.529,259.094 34.223,259.124 33.375 C 259.154 32.527,259.154 31.140,259.124 30.292 C 259.094 29.444,259.069 30.137,259.069 31.833 M180.902 31.833 C 180.902 33.438,180.927 34.094,180.957 33.292 C 180.988 32.490,180.988 31.177,180.957 30.375 C 180.927 29.573,180.902 30.229,180.902 31.833 M188.212 29.833 C 188.212 30.246,188.245 30.415,188.284 30.208 C 188.324 30.002,188.324 29.665,188.284 29.458 C 188.245 29.252,188.212 29.421,188.212 29.833 M225.552 30.417 C 225.553 30.967,225.584 31.172,225.621 30.872 C 225.658 30.572,225.657 30.122,225.619 29.872 C 225.581 29.622,225.551 29.867,225.552 30.417 M148.061 31.583 C 148.061 32.500,148.089 32.854,148.123 32.369 C 148.157 31.885,148.156 31.135,148.122 30.703 C 148.088 30.270,148.060 30.667,148.061 31.583 M40.000 32.898 L 40.000 34.963 57.271 52.155 C 66.771 61.611,74.607 69.325,74.685 69.298 C 74.763 69.272,76.629 67.463,78.830 65.278 L 82.833 61.306 82.833 58.359 L 82.833 55.412 73.458 50.007 C 54.709 39.196,40.148 30.833,40.075 30.833 C 40.034 30.833,40.000 31.763,40.000 32.898 M155.045 31.667 C 155.045 32.079,155.078 32.248,155.118 32.042 C 155.157 31.835,155.157 31.498,155.118 31.292 C 155.078 31.085,155.045 31.254,155.045 31.667 M186.212 31.833 C 186.212 32.246,186.245 32.415,186.284 32.208 C 186.324 32.002,186.324 31.665,186.284 31.458 C 186.245 31.252,186.212 31.421,186.212 31.833 M167.705 32.333 C 167.705 32.654,167.740 32.785,167.782 32.625 C 167.823 32.465,167.823 32.202,167.782 32.042 C 167.740 31.881,167.705 32.012,167.705 32.333 M134.058 33.833 C 134.058 34.612,134.087 34.931,134.122 34.542 C 134.157 34.152,134.157 33.515,134.122 33.125 C 134.087 32.735,134.058 33.054,134.058 33.833 M159.725 34.500 C 159.725 35.279,159.754 35.598,159.789 35.208 C 159.824 34.819,159.824 34.181,159.789 33.792 C 159.754 33.402,159.725 33.721,159.725 34.500 M213.388 34.583 C 213.389 35.225,213.419 35.467,213.455 35.121 C 213.491 34.775,213.490 34.250,213.454 33.955 C 213.417 33.659,213.387 33.942,213.388 34.583 M135.875 35.583 C 135.877 35.950,135.911 36.080,135.951 35.873 C 135.991 35.666,135.990 35.366,135.948 35.206 C 135.906 35.047,135.874 35.217,135.875 35.583 M215.542 35.917 C 215.544 36.283,215.578 36.414,215.618 36.206 C 215.658 35.999,215.656 35.699,215.615 35.540 C 215.573 35.380,215.540 35.550,215.542 35.917 M157.545 36.333 C 157.545 36.746,157.578 36.915,157.618 36.708 C 157.657 36.502,157.657 36.165,157.618 35.958 C 157.578 35.752,157.545 35.921,157.545 36.333 M183.042 36.250 C 183.044 36.617,183.078 36.747,183.118 36.540 C 183.158 36.332,183.156 36.032,183.115 35.873 C 183.073 35.714,183.040 35.883,183.042 36.250 M147.542 37.619 C 147.794 37.658,148.206 37.658,148.458 37.619 C 148.710 37.581,148.504 37.550,148.000 37.550 C 147.496 37.550,147.290 37.581,147.542 37.619 M187.877 37.620 C 188.131 37.658,188.506 37.657,188.711 37.617 C 188.916 37.578,188.708 37.546,188.250 37.548 C 187.792 37.549,187.624 37.581,187.877 37.620 M250.551 46.958 C 251.633 46.987,253.358 46.987,254.384 46.958 C 255.410 46.928,254.525 46.905,252.417 46.905 C 250.308 46.905,249.469 46.929,250.551 46.958 M253.913 65.917 C 253.913 74.717,253.934 78.292,253.958 73.862 C 253.983 69.432,253.983 62.232,253.958 57.862 C 253.934 53.492,253.913 57.117,253.913 65.917 M158.377 52.420 C 158.447 52.497,158.302 52.772,158.054 53.030 C 157.807 53.289,157.642 53.500,157.688 53.500 C 157.972 53.500,158.673 52.525,158.472 52.408 C 158.350 52.338,158.307 52.343,158.377 52.420 M83.068 58.250 C 83.068 59.808,83.093 60.468,83.124 59.717 C 83.155 58.965,83.155 57.690,83.124 56.883 C 83.094 56.077,83.068 56.692,83.068 58.250 M154.740 56.208 L 154.250 56.750 154.792 56.260 C 155.090 55.991,155.333 55.748,155.333 55.719 C 155.333 55.590,155.196 55.703,154.740 56.208 M300.042 60.623 C 300.477 60.657,301.190 60.657,301.625 60.623 C 302.060 60.588,301.704 60.560,300.833 60.560 C 299.962 60.560,299.606 60.588,300.042 60.623 M358.666 60.625 C 358.666 60.694,359.285 60.730,360.041 60.705 C 362.534 60.624,362.781 60.559,360.708 60.529 C 359.585 60.513,358.666 60.556,358.666 60.625 M378.609 60.625 C 378.566 60.694,379.180 60.730,379.974 60.705 C 382.519 60.627,382.805 60.559,380.718 60.529 C 379.601 60.513,378.651 60.556,378.609 60.625 M282.896 62.417 C 282.896 63.425,282.924 63.816,282.957 63.286 C 282.990 62.755,282.990 61.930,282.956 61.452 C 282.922 60.974,282.895 61.408,282.896 62.417 M283.229 62.417 C 283.229 63.425,283.257 63.816,283.290 63.286 C 283.323 62.755,283.323 61.930,283.289 61.452 C 283.256 60.974,283.229 61.408,283.229 62.417 M233.625 61.118 C 233.831 61.157,234.169 61.157,234.375 61.118 C 234.581 61.078,234.412 61.045,234.000 61.045 C 233.588 61.045,233.419 61.078,233.625 61.118 M239.000 62.958 C 238.999 63.027,239.543 63.063,240.208 63.038 C 242.284 62.959,242.485 62.888,240.708 62.860 C 239.769 62.845,239.000 62.890,239.000 62.958 M121.383 68.333 C 121.383 68.837,121.415 69.044,121.453 68.792 C 121.491 68.540,121.491 68.127,121.453 67.875 C 121.415 67.623,121.383 67.829,121.383 68.333 M352.532 69.611 C 352.511 70.385,352.427 70.835,352.292 70.890 C 352.128 70.955,352.130 70.977,352.297 70.987 C 352.616 71.006,352.690 70.663,352.624 69.482 L 352.564 68.417 352.532 69.611 M263.039 69.667 C 263.039 69.987,263.073 70.119,263.115 69.958 C 263.157 69.798,263.157 69.535,263.115 69.375 C 263.073 69.215,263.039 69.346,263.039 69.667 M349.375 73.782 C 349.535 73.823,349.798 73.823,349.958 73.782 C 350.119 73.740,349.988 73.705,349.667 73.705 C 349.346 73.705,349.215 73.740,349.375 73.782 M237.906 78.208 L 237.417 78.750 237.958 78.260 C 238.463 77.804,238.577 77.667,238.448 77.667 C 238.419 77.667,238.175 77.910,237.906 78.208 M335.717 79.333 C 335.717 79.837,335.748 80.044,335.786 79.792 C 335.824 79.540,335.824 79.127,335.786 78.875 C 335.748 78.623,335.717 78.829,335.717 79.333 M280.333 81.843 C 280.333 81.940,280.271 81.981,280.194 81.934 C 280.118 81.887,280.056 81.958,280.056 82.091 C 280.056 82.293,280.108 82.287,280.361 82.058 C 280.709 81.743,280.736 81.667,280.500 81.667 C 280.408 81.667,280.333 81.746,280.333 81.843 M145.629 85.789 C 146.021 85.824,146.621 85.824,146.963 85.788 C 147.304 85.752,146.983 85.723,146.250 85.724 C 145.517 85.724,145.237 85.754,145.629 85.789 M270.542 86.119 C 270.794 86.158,271.206 86.158,271.458 86.119 C 271.710 86.081,271.504 86.050,271.000 86.050 C 270.496 86.050,270.290 86.081,270.542 86.119 M343.042 86.782 C 343.202 86.823,343.465 86.823,343.625 86.782 C 343.785 86.740,343.654 86.705,343.333 86.705 C 343.012 86.705,342.881 86.740,343.042 86.782 M344.208 86.782 C 344.369 86.823,344.631 86.823,344.792 86.782 C 344.952 86.740,344.821 86.705,344.500 86.705 C 344.179 86.705,344.048 86.740,344.208 86.782 M30.082 102.410 C 29.941 108.263,30.014 111.423,30.305 111.955 C 30.847 112.946,30.612 113.139,38.760 104.990 L 46.415 97.333 38.310 97.333 L 30.205 97.333 30.082 102.410 " stroke="none" fill="#8cd1a5" fill-rule="evenodd"></path><path id="path5" d="M82.869 58.336 L 82.833 61.255 78.833 65.313 C 76.633 67.544,74.833 69.418,74.833 69.477 C 74.833 69.537,77.486 72.237,80.728 75.478 L 86.622 81.370 95.675 76.133 C 107.825 69.106,107.533 69.686,100.853 65.851 C 98.780 64.661,94.758 62.339,91.917 60.692 L 86.750 57.696 86.084 58.307 L 85.417 58.917 85.989 58.294 C 86.303 57.952,86.528 57.640,86.489 57.601 C 86.449 57.563,85.704 57.120,84.833 56.617 L 83.250 55.703 83.171 58.393 L 83.091 61.083 82.998 58.250 L 82.904 55.417 82.869 58.336 " stroke="none" fill="#faae78" fill-rule="evenodd"></path></g></svg>