<svg xmlns="http://www.w3.org/2000/svg" xmlns:xlink="http://www.w3.org/1999/xlink" id="Layer_1" data-name="Layer 1" viewBox="114.25 113.27 1135.19 327.16"><defs><style>.cls-1{fill:#333;}.cls-2{fill:url(#linear-gradient);}.cls-3{fill:#fff;}</style><linearGradient id="linear-gradient" x1="233.98" y1="119.22" x2="321.68" y2="434.49" gradientUnits="userSpaceOnUse"><stop offset="0" stop-color="#55d5d8"/><stop offset="0.21" stop-color="#58cdd9"/><stop offset="0.54" stop-color="#61b8db"/><stop offset="0.94" stop-color="#7096df"/><stop offset="1" stop-color="#7390e0"/></linearGradient></defs><path class="cls-1" d="M1002.94,345.88c0,8.67-13.14,8.67-13.14,0S1002.94,337.22,1002.94,345.88Z"/><path class="cls-1" d="M1020.74,294v12.78h12.4v9.58h-12.5v19.44c0,4.28,2.38,6.38,5.84,6.38a12.62,12.62,0,0,0,5.39-1.37l3.1,9.49a24.79,24.79,0,0,1-9.22,1.92c-9.76.37-16.15-5.2-16.15-16.42V316.32h-8.39v-9.58h8.39V295.15Z"/><path class="cls-1" d="M1086.17,329.19c0,12.95-8.85,23.45-23.45,23.45s-23.37-10.5-23.37-23.45,9-23.46,23.27-23.46S1086.17,316.32,1086.17,329.19Zm-35.68,0c0,6.84,4.1,13.23,12.23,13.23s12.22-6.39,12.22-13.23-4.74-13.33-12.22-13.33C1054.68,315.86,1050.49,322.43,1050.49,329.19Z"/><path class="cls-1" d="M1140.56,287.85v63.78h-10.4l-.73-6.2c-3.47,5.38-9,7.21-14.51,7.21-13.23,0-23.18-8.76-23.18-23.55,0-15.51,9.76-23.54,22.91-23.54,4.74,0,12.13,2.56,14.78,7.21V287.85Zm-37.69,41.24c0,7.85,5.66,13.24,12.78,13.24a13.19,13.19,0,0,0,0-26.38C1108.53,316,1102.87,321,1102.87,329.09Z"/><path class="cls-1" d="M1185.92,306.65h10.68v45h-10.5l-.54-6.57c-2.56,5.3-9.59,7.85-14.6,7.94-13.33.09-23.18-8.12-23.18-23.91,0-15.51,10.31-23.63,23.45-23.54,6,0,11.77,2.83,14.33,7.3Zm-27,22.44c0,8.58,5.93,13.69,13.32,13.69,17.52,0,17.52-27.28,0-27.28C1164.84,315.5,1158.91,320.52,1158.91,329.09Z"/><path class="cls-1" d="M1249.44,306.65,1222,370.43h-12.23l8.39-19.53-18-44.25h12.95l6.85,19.43,4.29,12.69,4.65-12.41,8.21-19.71Z"/><polygon class="cls-1" points="942.25 350.24 974.4 350.24 915.03 290.88 969.21 236.7 937.06 236.7 882.88 290.88 942.25 350.24"/><rect class="cls-1" x="860.59" y="236.7" width="22.28" height="113.54"/><path class="cls-1" d="M562.68,233.88h0a53.69,53.69,0,0,0-53.53,53.53v62.83h21.17v-63a32.45,32.45,0,0,1,32.36-32.36h0A32.46,32.46,0,0,1,595,287.24v63H616.2V287.41A53.68,53.68,0,0,0,562.68,233.88Z"/><path class="cls-1" d="M649.57,233.88h0A53.69,53.69,0,0,0,596,287.41v62.83h21.17v-63a32.45,32.45,0,0,1,32.36-32.36h0a32.46,32.46,0,0,1,32.36,32.36v63h21.16V287.41A53.68,53.68,0,0,0,649.57,233.88Z"/><path class="cls-1" d="M778.19,237.38a56.43,56.43,0,1,0,56.43,56.43A56.43,56.43,0,0,0,778.19,237.38Zm0,90.13a33.7,33.7,0,1,1,33.7-33.7A33.7,33.7,0,0,1,778.19,327.51Z"/><rect class="cls-1" x="811.89" y="237.38" width="22.73" height="112.86"/><circle class="cls-2" cx="277.83" cy="276.85" r="163.58"/><path class="cls-3" d="M363,231l-71.76-47.86-14.26-9.53a2.51,2.51,0,0,0-2.78,0l-14.25,9.52L188.1,231a5,5,0,0,0-1.83,3.78V350.29a2.5,2.5,0,0,0,2.5,2.5H282.2c2.67,0,2.64-2.79,2.64-2.79V302.68a2.47,2.47,0,0,1,1.74-2.38c5.64-1.69,9.9-4.68,11.59-8.27a2.47,2.47,0,0,0-2.29-3.46H256a2.47,2.47,0,0,0-2.3,3.46c1.69,3.59,6,6.58,11.59,8.27a2.46,2.46,0,0,1,1.74,2.37v29.77a2.49,2.49,0,0,1-2.5,2.49H206.62a2.5,2.5,0,0,1-2.5-2.5V243.16a2.53,2.53,0,0,1,1.11-2.09l68.92-46a2.51,2.51,0,0,1,2.78,0l68.92,46a2.5,2.5,0,0,1,1.11,2.08V350.29a2.5,2.5,0,0,0,2.5,2.5h12.85a2.5,2.5,0,0,0,2.5-2.5V234.8A4.76,4.76,0,0,0,363,231Z"/><path class="cls-3" d="M287.45,252h0a2.5,2.5,0,0,0-2.43-1.9H244.59a2.5,2.5,0,0,0-2.41,3.16L249.74,281a2.51,2.51,0,0,0,2.42,1.85h46.76a2.51,2.51,0,0,0,2.42-1.85l7.56-27.73a2.5,2.5,0,0,0-2.41-3.16H294.73a2.5,2.5,0,0,0-2.43,1.9h0A2.5,2.5,0,0,1,287.45,252Z"/></svg>