<svg id="svg" version="1.1" xmlns="http://www.w3.org/2000/svg" xmlns:xlink="http://www.w3.org/1999/xlink" width="400" height="138" viewBox="0, 0, 400,138"><g id="svgg"><path id="path0" d="M95.539 18.247 C 94.354 18.482,91.698 19.491,90.333 20.224 C 87.807 21.581,87.417 21.834,86.062 22.994 C 84.567 24.274,83.892 24.954,83.272 25.805 C 83.076 26.072,82.598 26.710,82.208 27.222 C 81.819 27.734,81.500 28.221,81.500 28.306 C 81.500 28.390,81.383 28.556,81.240 28.675 C 79.652 29.993,77.715 37.458,78.238 40.245 L 78.354 40.865 80.636 40.800 C 89.740 40.540,98.314 30.522,98.330 20.125 L 98.333 18.000 97.458 18.020 C 96.977 18.031,96.114 18.133,95.539 18.247 M223.625 29.965 L 222.333 30.014 222.333 41.764 L 222.333 53.513 223.708 53.465 L 225.083 53.417 225.126 41.759 C 225.150 35.348,225.112 30.061,225.043 30.009 C 224.973 29.958,224.335 29.939,223.625 29.965 M274.750 30.000 L 273.417 30.083 273.333 34.750 C 273.266 38.547,273.212 39.350,273.046 39.060 C 271.784 36.858,267.335 36.413,264.669 38.221 C 261.264 40.532,260.149 45.931,262.211 50.125 C 262.402 50.515,262.621 50.833,262.696 50.833 C 262.772 50.833,262.833 50.930,262.833 51.049 C 262.833 51.787,265.107 53.263,267.000 53.752 C 269.072 54.288,271.878 53.252,273.165 51.476 L 273.641 50.819 273.746 51.784 C 273.804 52.316,273.866 52.900,273.884 53.083 C 273.913 53.383,274.039 53.417,275.129 53.417 L 276.342 53.417 276.336 41.756 C 276.332 35.343,276.274 30.055,276.206 30.006 C 276.139 29.957,275.483 29.954,274.750 30.000 M341.611 30.111 C 341.550 30.172,341.500 35.421,341.500 41.775 L 341.500 53.327 341.880 53.422 C 342.089 53.475,342.745 53.495,343.338 53.467 L 344.417 53.417 344.500 48.000 C 344.593 41.946,344.591 41.958,345.799 40.718 C 347.740 38.727,350.696 39.159,351.916 41.611 L 352.400 42.583 352.492 48.000 L 352.583 53.417 353.917 53.417 L 355.250 53.417 355.250 47.417 L 355.250 41.417 354.526 40.072 C 352.625 36.544,348.063 35.975,345.342 38.927 C 344.464 39.879,344.500 40.057,344.500 34.722 L 344.500 30.000 343.111 30.000 C 342.347 30.000,341.672 30.050,341.611 30.111 M144.750 31.004 C 144.383 31.083,143.733 31.152,143.305 31.157 C 141.867 31.175,142.000 30.033,142.000 42.356 C 142.000 52.667,142.018 53.351,142.292 53.457 C 142.844 53.670,149.859 53.595,151.000 53.364 C 155.735 52.403,157.942 50.649,159.744 46.417 C 160.439 44.786,160.650 40.254,160.121 38.321 C 159.046 34.391,156.040 31.811,151.750 31.135 C 150.270 30.902,145.629 30.815,144.750 31.004 M334.000 32.994 C 333.771 33.067,333.265 33.214,332.875 33.320 L 332.167 33.513 332.167 35.416 L 332.167 37.319 330.958 37.368 L 329.750 37.417 329.701 38.534 L 329.652 39.652 330.868 39.701 L 332.083 39.750 332.167 45.250 L 332.250 50.750 332.710 51.687 C 333.539 53.374,335.448 54.220,337.537 53.826 C 339.059 53.539,339.142 53.456,339.018 52.333 L 338.917 51.417 337.895 51.473 C 335.280 51.616,335.083 51.153,335.083 44.833 L 335.083 39.750 337.132 39.703 L 339.182 39.656 339.132 38.536 L 339.083 37.417 337.083 37.333 L 335.083 37.250 335.037 35.042 C 334.986 32.637,335.003 32.671,334.000 32.994 M151.167 33.402 C 155.722 34.511,157.914 38.053,157.330 43.360 C 157.048 45.926,156.155 47.755,154.462 49.236 C 153.656 49.941,153.213 50.156,150.833 50.997 C 150.010 51.288,145.657 51.429,145.192 51.180 L 144.830 50.987 144.874 42.209 L 144.917 33.432 145.333 33.316 C 146.085 33.107,150.205 33.168,151.167 33.402 M168.893 37.167 C 167.282 37.403,164.000 39.439,164.000 40.202 C 164.000 40.286,163.825 40.594,163.612 40.886 C 163.244 41.389,163.060 41.885,162.671 43.417 C 162.053 45.852,162.744 49.290,164.207 51.058 C 167.785 55.385,174.849 54.612,177.316 49.625 C 180.599 42.986,175.964 36.132,168.893 37.167 M211.388 37.160 C 210.285 37.331,208.828 38.165,208.161 39.008 C 207.395 39.975,207.191 39.883,207.133 38.542 L 207.083 37.417 205.833 37.417 L 204.583 37.417 204.589 38.375 C 204.593 38.902,204.611 42.524,204.631 46.423 L 204.667 53.513 206.042 53.465 L 207.417 53.417 207.502 48.167 C 207.588 42.941,207.590 42.912,208.022 42.000 C 209.655 38.548,214.416 38.738,215.276 42.289 C 215.398 42.794,215.474 44.983,215.484 48.298 L 215.500 53.513 216.875 53.465 L 218.250 53.417 218.294 47.612 C 218.331 42.738,218.296 41.686,218.081 41.050 C 217.066 38.061,214.648 36.656,211.388 37.160 M234.617 37.182 C 226.997 38.297,225.951 51.047,233.289 53.376 C 238.073 54.894,242.496 52.601,243.840 47.906 C 244.290 46.336,243.992 42.909,243.274 41.394 C 241.697 38.064,238.667 36.590,234.617 37.182 M250.583 37.161 C 249.458 37.309,249.303 37.356,247.950 37.973 C 246.906 38.449,246.885 38.509,247.359 39.708 C 247.565 40.228,247.810 40.274,248.493 39.920 C 249.802 39.243,252.449 39.107,253.859 39.644 C 254.678 39.956,255.500 41.423,255.500 42.573 L 255.500 43.096 253.506 43.305 C 249.760 43.699,247.813 44.575,246.583 46.417 L 245.917 47.417 245.917 49.098 C 245.917 53.704,251.300 55.573,254.983 52.245 C 255.779 51.526,255.870 51.561,255.993 52.632 L 256.083 53.417 257.333 53.417 L 258.583 53.417 258.534 52.917 C 258.506 52.642,258.448 50.054,258.405 47.167 C 258.359 44.081,258.248 41.608,258.137 41.167 C 257.347 38.034,254.684 36.622,250.583 37.161 M293.539 37.170 C 289.779 37.718,287.167 41.153,287.167 45.548 C 287.167 49.887,289.210 52.642,293.196 53.677 C 294.862 54.110,295.268 54.074,298.167 53.232 C 300.953 52.424,302.899 49.174,302.905 45.318 C 302.908 43.125,302.887 43.031,301.913 40.944 C 300.601 38.134,297.259 36.627,293.539 37.170 M312.667 37.151 C 311.606 37.319,310.318 38.054,309.439 38.993 C 308.547 39.947,308.500 39.925,308.500 38.559 C 308.500 37.342,308.406 37.275,306.824 37.365 L 305.917 37.417 305.977 45.333 C 306.010 49.688,306.071 53.306,306.112 53.375 C 306.153 53.444,306.782 53.500,307.510 53.500 L 308.833 53.500 308.833 48.264 C 308.833 42.376,308.862 42.207,310.101 40.836 C 311.614 39.161,314.118 39.035,315.585 40.561 C 316.680 41.699,316.719 41.937,316.823 48.000 L 316.917 53.417 318.301 53.465 L 319.686 53.514 319.635 47.461 L 319.583 41.409 319.026 40.278 C 317.797 37.782,315.577 36.690,312.667 37.151 M364.412 37.142 C 361.192 37.566,358.574 40.766,358.257 44.667 C 357.750 50.901,362.065 54.856,368.154 53.737 C 371.423 53.136,371.676 52.976,371.327 51.729 C 371.093 50.891,370.829 50.699,370.280 50.966 C 366.253 52.928,361.396 50.734,361.134 46.833 L 361.083 46.083 366.708 46.039 L 372.333 45.996 372.333 44.423 C 372.333 39.344,369.245 36.505,364.412 37.142 M179.232 37.570 C 179.137 37.817,179.554 39.435,180.329 41.833 C 180.581 42.612,180.950 43.850,181.149 44.583 C 181.348 45.317,181.613 46.179,181.738 46.500 C 181.862 46.821,182.044 47.383,182.141 47.750 C 182.238 48.117,182.473 48.904,182.663 49.500 C 182.853 50.096,183.163 51.145,183.351 51.832 C 183.812 53.519,183.816 53.522,185.304 53.465 C 186.535 53.418,186.559 53.408,186.710 52.917 C 186.794 52.642,186.969 52.179,187.099 51.889 C 187.229 51.600,187.488 50.850,187.675 50.223 C 187.863 49.596,188.076 48.933,188.150 48.750 C 188.344 48.265,188.600 47.505,189.355 45.167 C 189.724 44.021,190.096 42.911,190.180 42.700 C 190.264 42.490,190.333 42.166,190.333 41.981 C 190.333 41.215,190.723 40.858,190.858 41.500 C 191.012 42.229,191.989 45.634,192.173 46.083 C 192.442 46.740,193.044 48.607,193.408 49.919 C 193.613 50.653,193.893 51.515,194.032 51.835 C 194.170 52.155,194.353 52.642,194.438 52.917 L 194.591 53.417 195.903 53.417 C 196.900 53.417,197.244 53.357,197.342 53.167 C 197.499 52.861,198.003 51.350,198.759 48.917 C 199.072 47.908,199.525 46.521,199.766 45.833 C 200.007 45.146,200.311 44.178,200.440 43.682 C 200.570 43.186,200.778 42.548,200.901 42.265 C 201.171 41.647,202.000 38.971,202.000 38.718 C 202.000 38.619,202.110 38.326,202.244 38.067 C 202.567 37.445,202.384 37.339,200.970 37.336 C 199.748 37.333,199.402 37.527,199.242 38.303 C 199.043 39.271,198.355 41.738,198.053 42.566 C 197.923 42.924,197.638 43.936,197.419 44.816 C 197.201 45.697,196.896 46.867,196.742 47.417 C 196.588 47.967,196.397 48.739,196.318 49.134 C 196.090 50.266,195.896 50.501,195.750 49.820 C 195.682 49.506,195.457 48.688,195.248 48.000 C 195.040 47.313,194.742 46.262,194.586 45.667 C 194.430 45.071,194.205 44.353,194.085 44.072 C 193.966 43.791,193.705 42.966,193.506 42.239 C 193.306 41.512,192.992 40.504,192.808 40.000 C 192.624 39.496,192.416 38.857,192.346 38.579 C 192.057 37.433,191.924 37.333,190.681 37.333 L 189.540 37.333 188.929 39.208 C 188.593 40.240,188.254 41.233,188.175 41.417 C 188.096 41.600,187.904 42.237,187.749 42.833 C 187.593 43.429,187.332 44.254,187.169 44.667 C 187.005 45.079,186.742 45.904,186.584 46.500 C 186.425 47.096,186.236 47.771,186.162 48.000 C 186.089 48.229,185.929 48.779,185.808 49.221 C 185.543 50.184,185.167 50.605,185.167 49.939 C 185.167 49.452,184.950 48.478,184.459 46.750 C 184.276 46.108,183.873 44.571,183.563 43.333 C 182.515 39.148,182.128 37.751,181.960 37.542 C 181.712 37.233,179.352 37.257,179.232 37.570 M367.053 39.432 C 368.479 39.918,369.614 41.677,369.471 43.177 L 369.417 43.750 365.333 43.750 L 361.250 43.750 361.198 43.303 C 360.917 40.864,364.433 38.539,367.053 39.432 M171.949 39.584 C 172.808 39.839,173.979 40.881,174.338 41.710 C 174.426 41.915,174.565 42.196,174.646 42.333 C 175.175 43.235,175.372 46.416,174.976 47.655 C 174.697 48.528,174.698 48.526,174.270 49.250 C 172.043 53.014,166.888 52.093,165.751 47.729 C 164.382 42.470,167.568 38.283,171.949 39.584 M237.699 39.529 C 241.549 40.683,242.296 47.808,238.862 50.618 C 235.422 53.433,231.417 50.635,231.417 45.417 C 231.417 40.915,234.059 38.439,237.699 39.529 M270.071 39.526 C 272.536 40.021,273.401 41.697,273.309 45.797 C 273.221 49.702,272.042 51.281,269.075 51.470 C 266.073 51.662,264.415 49.537,264.419 45.500 C 264.422 41.471,265.741 39.674,268.931 39.352 C 269.030 39.342,269.543 39.420,270.071 39.526 M296.717 39.598 C 300.277 40.811,301.098 47.598,298.022 50.377 C 293.946 54.060,288.544 49.002,290.419 43.258 C 291.510 39.918,293.781 38.598,296.717 39.598 M94.083 42.019 C 92.406 42.224,89.865 42.873,87.750 43.638 C 79.582 46.589,79.588 46.587,77.843 46.236 C 77.150 46.097,76.358 45.881,76.083 45.757 C 75.808 45.632,74.983 45.333,74.250 45.092 C 73.517 44.851,72.392 44.443,71.750 44.184 C 65.012 41.466,57.255 41.523,53.000 44.321 C 52.771 44.472,52.208 44.772,51.750 44.988 C 51.292 45.204,50.767 45.507,50.583 45.662 C 50.400 45.817,49.961 46.108,49.608 46.310 C 47.244 47.657,43.955 51.251,42.158 54.449 C 41.860 54.981,41.526 55.529,41.418 55.667 C 41.309 55.804,41.047 56.367,40.835 56.917 C 40.623 57.467,40.274 58.310,40.060 58.791 C 39.668 59.674,39.071 61.688,38.837 62.917 C 38.767 63.283,38.630 63.921,38.532 64.333 C 38.086 66.202,38.000 67.401,37.999 71.760 C 37.998 76.323,38.107 77.904,38.584 80.250 C 38.714 80.892,38.860 81.642,38.907 81.917 C 39.287 84.130,40.783 89.572,41.427 91.083 C 41.544 91.358,41.808 92.033,42.012 92.583 C 42.664 94.336,43.866 97.074,44.104 97.346 C 44.230 97.491,44.333 97.707,44.333 97.825 C 44.333 98.109,46.707 102.464,46.972 102.665 C 47.033 102.712,47.229 103.013,47.407 103.333 C 47.584 103.654,48.222 104.612,48.823 105.462 C 49.425 106.311,50.142 107.328,50.417 107.720 C 53.373 111.939,58.970 116.833,60.838 116.833 C 61.008 116.833,61.193 116.908,61.250 117.000 C 61.311 117.098,62.305 117.167,63.668 117.167 C 66.013 117.167,66.623 117.067,68.734 116.339 C 69.276 116.153,69.786 116.000,69.870 116.000 C 69.953 116.000,70.448 115.803,70.969 115.562 C 72.308 114.943,72.464 114.884,73.583 114.575 C 74.133 114.422,74.841 114.188,75.157 114.053 C 77.322 113.129,84.383 113.207,85.750 114.169 C 85.842 114.234,86.176 114.336,86.492 114.396 C 86.809 114.456,87.896 114.835,88.909 115.237 C 94.847 117.598,97.722 117.790,101.469 116.077 C 102.219 115.734,102.833 115.389,102.833 115.310 C 102.833 115.231,102.927 115.165,103.042 115.162 C 103.694 115.148,106.074 112.868,108.759 109.687 C 110.184 107.998,112.771 104.265,113.929 102.227 C 115.488 99.481,116.992 96.433,117.577 94.833 C 117.828 94.146,118.108 93.443,118.198 93.271 C 118.998 91.748,119.026 90.785,118.280 90.482 C 117.988 90.363,117.360 90.019,116.883 89.716 C 116.406 89.414,115.955 89.167,115.880 89.167 C 115.805 89.167,115.381 88.867,114.937 88.500 C 114.493 88.133,114.082 87.833,114.022 87.833 C 113.587 87.833,109.894 83.783,108.975 82.298 C 107.345 79.663,106.740 77.997,105.912 73.860 C 104.830 68.459,106.881 60.737,110.401 56.958 C 110.722 56.614,111.044 56.238,111.117 56.123 C 111.401 55.677,113.641 53.763,114.913 52.879 C 115.648 52.368,116.276 51.930,116.307 51.904 C 116.455 51.785,116.086 51.103,115.531 50.467 C 114.065 48.791,113.402 48.074,113.198 47.944 C 113.078 47.868,112.607 47.474,112.151 47.069 C 111.695 46.665,111.261 46.333,111.185 46.333 C 111.110 46.333,110.862 46.161,110.635 45.950 C 110.258 45.600,109.415 45.124,107.333 44.083 C 103.911 42.372,98.321 41.501,94.083 42.019 M255.500 47.007 C 255.500 49.173,255.271 49.786,254.103 50.743 C 251.819 52.614,248.783 51.576,248.787 48.924 C 248.790 46.692,251.020 45.243,254.542 45.183 L 255.500 45.167 255.500 47.007 M261.583 65.439 C 259.835 65.711,257.359 66.702,256.167 67.608 C 251.695 71.003,250.988 76.965,254.582 80.963 C 255.990 82.529,259.337 84.476,262.083 85.327 C 263.930 85.899,266.687 87.636,267.466 88.719 C 269.800 91.963,268.604 96.134,264.870 97.767 L 263.417 98.402 261.000 98.403 C 258.960 98.403,258.414 98.347,257.500 98.041 C 256.904 97.841,255.935 97.521,255.347 97.329 C 254.758 97.138,253.949 96.789,253.547 96.554 C 252.671 96.040,252.795 95.926,252.246 97.750 C 251.512 100.194,251.483 100.013,252.695 100.622 C 253.728 101.142,254.260 101.304,257.196 101.994 C 260.187 102.696,264.505 102.311,267.454 101.078 C 274.691 98.055,275.464 87.663,268.750 83.653 C 268.292 83.380,267.804 83.086,267.667 83.001 C 267.131 82.670,265.205 81.787,264.333 81.473 C 259.931 79.888,257.935 78.328,257.244 75.930 C 255.997 71.601,260.400 68.324,266.094 69.344 C 267.176 69.537,269.969 70.435,270.274 70.687 C 270.677 71.020,271.482 69.274,271.782 67.418 C 271.860 66.931,270.151 66.008,269.153 65.998 C 269.023 65.996,268.579 65.875,268.167 65.728 C 267.419 65.462,262.751 65.257,261.583 65.439 M157.615 67.542 C 157.357 68.390,157.047 69.308,156.925 69.583 C 156.804 69.858,156.622 70.346,156.521 70.667 C 156.420 70.987,156.108 71.925,155.828 72.750 C 155.548 73.575,155.092 74.962,154.814 75.833 C 154.537 76.704,154.194 77.679,154.052 78.000 C 153.911 78.321,153.617 79.146,153.399 79.833 C 153.182 80.521,152.628 82.171,152.167 83.500 C 151.707 84.829,151.101 86.629,150.821 87.500 C 150.541 88.371,150.176 89.421,150.011 89.833 C 149.845 90.246,149.580 91.033,149.421 91.583 C 149.133 92.586,149.051 92.821,148.669 93.750 C 148.421 94.355,147.909 95.932,147.654 96.880 C 147.552 97.261,147.330 97.875,147.162 98.245 C 146.995 98.614,146.731 99.367,146.577 99.917 C 146.423 100.467,146.230 101.047,146.149 101.206 C 146.067 101.365,146.000 101.534,146.000 101.581 C 146.000 101.628,147.073 101.667,148.384 101.667 L 150.768 101.667 151.141 100.625 C 151.346 100.052,151.633 99.208,151.777 98.750 C 151.922 98.292,152.262 97.279,152.531 96.500 C 152.801 95.721,153.210 94.446,153.440 93.667 C 153.670 92.888,153.965 92.084,154.096 91.881 C 154.227 91.678,154.333 91.374,154.333 91.206 C 154.333 90.515,154.476 90.500,160.940 90.500 C 165.723 90.500,167.178 90.548,167.280 90.708 C 167.468 91.001,167.769 91.832,168.352 93.667 C 168.628 94.537,168.992 95.587,169.159 96.000 C 169.327 96.412,169.692 97.462,169.972 98.333 C 170.252 99.204,170.620 100.292,170.790 100.750 L 171.099 101.583 173.549 101.629 C 174.897 101.655,176.000 101.633,176.000 101.580 C 176.000 101.386,175.145 98.740,174.992 98.461 C 174.905 98.301,174.833 98.064,174.833 97.932 C 174.833 97.801,174.728 97.481,174.600 97.222 C 174.472 96.962,174.275 96.450,174.164 96.083 C 174.052 95.717,173.718 94.742,173.421 93.917 C 173.124 93.092,172.725 91.929,172.536 91.333 C 172.347 90.737,171.970 89.612,171.700 88.833 C 171.430 88.054,171.112 87.079,170.992 86.667 C 170.873 86.254,170.679 85.729,170.561 85.500 C 170.443 85.271,170.113 84.333,169.828 83.417 C 169.542 82.500,169.213 81.525,169.097 81.250 C 168.980 80.975,168.677 80.075,168.422 79.250 C 168.167 78.425,167.888 77.595,167.801 77.406 C 167.551 76.860,166.180 72.866,165.803 71.583 C 165.614 70.942,165.326 70.117,165.162 69.750 C 164.999 69.383,164.739 68.633,164.585 68.083 C 164.431 67.533,164.237 66.953,164.153 66.794 C 164.069 66.635,164.000 66.391,164.000 66.252 C 164.000 66.036,163.572 66.000,161.042 66.000 L 158.083 66.000 157.615 67.542 M282.667 69.220 L 280.583 69.750 280.538 72.875 L 280.493 76.000 278.491 76.000 L 276.489 76.000 276.536 77.792 L 276.583 79.583 278.542 79.630 L 280.500 79.677 280.503 87.297 C 280.507 97.384,280.686 98.551,282.530 100.518 C 284.110 102.202,287.734 102.861,290.544 101.975 L 291.680 101.616 291.577 100.183 C 291.430 98.142,291.574 98.284,289.788 98.418 C 287.855 98.563,287.104 98.375,286.295 97.545 C 285.215 96.437,285.167 95.996,285.167 87.298 L 285.167 79.667 288.497 79.667 C 292.375 79.667,292.048 79.871,291.966 77.500 L 291.917 76.083 288.542 76.038 L 285.167 75.993 285.167 72.330 C 285.167 69.504,285.119 68.669,284.958 68.678 C 284.844 68.685,283.813 68.928,282.667 69.220 M161.067 70.375 C 161.099 70.490,161.325 71.408,161.571 72.417 C 161.816 73.425,162.192 74.737,162.405 75.333 C 162.618 75.929,162.984 77.017,163.218 77.750 C 163.452 78.483,163.769 79.421,163.923 79.833 C 164.076 80.246,164.378 81.146,164.594 81.833 C 164.811 82.521,165.206 83.683,165.473 84.417 C 165.740 85.150,166.011 85.994,166.076 86.292 L 166.193 86.833 160.930 86.833 C 156.543 86.833,155.667 86.795,155.667 86.601 C 155.667 86.474,155.968 85.480,156.336 84.393 C 156.704 83.306,157.263 81.629,157.579 80.667 C 157.894 79.704,158.301 78.504,158.481 78.000 C 159.123 76.209,159.974 73.379,160.351 71.785 C 160.704 70.289,160.925 69.854,161.067 70.375 M192.667 75.612 C 191.458 75.781,190.223 76.186,189.447 76.668 C 189.006 76.942,188.593 77.168,188.531 77.170 C 188.353 77.174,186.291 79.192,185.894 79.750 C 185.383 80.469,185.296 80.247,185.203 77.999 L 185.121 75.990 183.019 76.037 L 180.917 76.083 180.959 76.833 C 180.982 77.246,181.046 85.404,181.100 94.963 L 181.200 112.343 183.475 112.296 L 185.750 112.250 185.836 105.250 C 185.883 101.400,185.940 98.338,185.961 98.445 C 185.982 98.552,186.460 99.100,187.021 99.661 C 190.864 103.504,197.689 103.178,201.956 98.948 C 202.436 98.473,202.830 98.027,202.831 97.959 C 202.832 97.890,203.081 97.478,203.383 97.042 C 205.565 93.896,206.357 86.954,204.918 83.583 C 204.801 83.308,204.606 82.783,204.485 82.417 C 203.574 79.661,200.701 76.896,197.667 75.855 C 197.044 75.641,193.639 75.476,192.667 75.612 M223.083 75.599 C 220.479 75.979,217.969 77.488,216.311 79.672 C 215.728 80.440,215.710 80.402,215.572 78.035 L 215.452 75.990 213.351 76.037 C 211.352 76.081,211.253 76.100,211.313 76.417 C 211.348 76.600,211.410 84.756,211.452 94.542 L 211.527 112.333 213.847 112.333 L 216.167 112.333 216.167 105.680 C 216.167 98.398,216.181 98.229,216.745 98.994 C 218.245 101.027,221.172 102.333,224.228 102.333 C 231.150 102.333,235.984 96.686,235.996 88.583 C 236.009 80.143,230.427 74.529,223.083 75.599 M305.750 75.596 C 300.631 76.312,296.854 79.728,295.356 85.000 C 294.616 87.600,294.862 92.469,295.834 94.498 C 295.901 94.637,296.158 95.194,296.406 95.737 C 298.250 99.769,302.413 102.250,307.333 102.250 C 309.641 102.250,310.047 102.176,312.537 101.299 C 322.168 97.906,323.010 81.506,313.792 76.871 C 311.641 75.789,308.232 75.249,305.750 75.596 M336.000 75.659 C 334.874 75.892,332.335 77.372,332.333 77.797 C 332.332 77.863,332.109 78.154,331.837 78.444 C 331.378 78.934,330.964 79.648,330.546 80.667 C 330.360 81.120,330.302 80.726,330.072 77.453 L 329.969 75.990 327.943 76.037 L 325.917 76.083 325.963 76.500 C 325.988 76.729,326.054 82.485,326.109 89.292 L 326.210 101.667 328.521 101.667 L 330.833 101.667 330.833 94.008 C 330.833 85.650,330.847 85.506,331.815 83.509 C 332.980 81.108,334.788 79.967,337.428 79.967 L 338.833 79.967 338.833 77.733 L 338.833 75.500 337.708 75.519 C 337.090 75.530,336.321 75.593,336.000 75.659 M350.917 75.658 C 344.320 76.763,340.020 84.230,341.415 92.158 C 342.394 97.722,345.376 100.724,351.367 102.179 C 352.497 102.453,357.120 102.289,358.500 101.926 C 359.096 101.769,360.033 101.531,360.583 101.397 C 362.272 100.988,362.523 100.830,362.411 100.250 C 362.251 99.422,361.804 97.591,361.733 97.475 C 361.662 97.357,360.606 97.652,359.667 98.052 C 358.936 98.363,356.508 98.666,354.739 98.666 C 349.830 98.668,346.527 96.036,345.826 91.564 C 345.495 89.452,344.477 89.667,354.809 89.667 L 363.794 89.667 363.895 89.292 C 364.902 85.533,362.227 78.808,359.000 76.985 C 358.771 76.856,358.460 76.652,358.309 76.532 C 357.386 75.797,353.107 75.291,350.917 75.658 M310.167 79.454 C 316.533 81.801,317.328 93.653,311.383 97.598 C 309.266 99.004,306.093 99.143,304.205 97.914 C 302.769 96.979,302.461 96.692,301.653 95.536 C 296.289 87.857,302.277 76.547,310.167 79.454 M355.413 79.290 C 356.887 79.873,357.915 80.860,358.619 82.367 C 359.130 83.459,359.628 85.826,359.418 86.165 C 359.350 86.274,356.934 86.333,352.551 86.333 L 345.787 86.333 345.898 85.391 C 346.441 80.772,351.292 77.661,355.413 79.290 M194.527 79.404 C 199.764 80.420,202.341 86.918,200.116 93.500 C 197.940 99.939,189.236 100.391,186.373 94.214 C 185.679 92.716,185.675 86.069,186.367 84.203 C 187.306 81.670,189.200 79.978,191.716 79.427 C 193.077 79.128,193.106 79.128,194.527 79.404 M224.984 79.413 C 230.172 80.505,232.580 86.497,230.544 93.250 C 228.234 100.914,217.191 100.091,216.294 92.188 C 215.706 87.013,216.660 82.721,218.740 81.177 C 218.918 81.045,219.196 80.804,219.358 80.642 C 219.845 80.155,220.877 79.703,222.097 79.441 C 223.583 79.123,223.601 79.122,224.984 79.413 " stroke="none" fill="#f9f9f9" fill-rule="evenodd"></path><path id="path1" d="M22.167 0.117 C 21.662 0.148,21.100 0.240,20.917 0.323 C 20.733 0.405,20.321 0.518,20.001 0.574 C 19.301 0.695,18.500 1.033,18.500 1.207 C 18.500 1.277,18.388 1.333,18.251 1.333 C 17.904 1.333,16.667 1.885,16.667 2.039 C 16.667 2.109,16.554 2.167,16.417 2.167 C 16.279 2.167,16.167 2.242,16.167 2.333 C 16.167 2.425,16.060 2.500,15.929 2.500 C 15.798 2.500,15.590 2.600,15.467 2.723 C 15.344 2.846,15.162 2.977,15.062 3.015 C 14.551 3.207,11.333 6.134,11.333 6.407 C 11.333 6.467,11.146 6.703,10.917 6.932 C 10.688 7.161,10.500 7.451,10.500 7.577 C 10.500 7.703,10.441 7.831,10.369 7.861 C 10.161 7.949,9.556 8.878,9.418 9.321 C 9.349 9.543,9.157 9.870,8.991 10.048 C 8.825 10.226,8.640 10.663,8.580 11.018 C 8.520 11.374,8.403 11.707,8.319 11.759 C 8.235 11.811,8.167 11.999,8.167 12.177 C 8.167 12.354,8.092 12.500,8.000 12.500 C 7.908 12.500,7.833 12.673,7.833 12.883 C 7.833 13.094,7.760 13.340,7.671 13.429 C 7.582 13.518,7.459 14.135,7.397 14.801 C 7.335 15.466,7.220 16.050,7.142 16.098 C 6.957 16.213,6.956 121.787,7.142 121.901 C 7.220 121.949,7.333 122.573,7.393 123.286 C 7.453 124.000,7.577 124.608,7.668 124.639 C 7.759 124.669,7.833 124.876,7.833 125.097 C 7.833 125.319,7.908 125.500,8.000 125.500 C 8.092 125.500,8.167 125.688,8.167 125.917 C 8.167 126.146,8.232 126.333,8.312 126.333 C 8.392 126.333,8.508 126.650,8.570 127.037 C 8.632 127.424,8.735 127.780,8.800 127.828 C 8.961 127.950,9.667 129.184,9.780 129.542 C 9.831 129.702,9.938 129.833,10.019 129.833 C 10.100 129.833,10.167 129.911,10.167 130.007 C 10.167 130.189,10.333 130.415,10.958 131.084 C 11.165 131.304,11.333 131.545,11.333 131.619 C 11.333 131.739,11.765 132.225,12.367 132.784 C 12.486 132.894,12.672 133.081,12.779 133.200 C 12.887 133.319,13.242 133.642,13.568 133.917 C 13.894 134.192,14.312 134.548,14.497 134.708 C 14.682 134.869,14.946 135.000,15.083 135.000 C 15.221 135.000,15.333 135.070,15.333 135.155 C 15.333 135.241,15.502 135.364,15.708 135.428 C 15.915 135.492,16.121 135.595,16.167 135.655 C 16.347 135.895,17.272 136.463,17.667 136.576 C 18.336 136.769,19.000 137.073,19.000 137.186 C 19.000 137.244,19.317 137.341,19.703 137.403 C 20.090 137.465,20.462 137.606,20.531 137.716 C 20.708 138.003,386.336 138.010,386.683 137.723 C 386.811 137.617,387.217 137.474,387.583 137.405 C 387.950 137.337,388.496 137.143,388.797 136.974 C 389.097 136.805,389.424 136.667,389.522 136.667 C 389.826 136.667,390.904 136.114,391.167 135.824 C 391.304 135.672,391.598 135.490,391.819 135.421 C 392.041 135.351,392.400 135.115,392.618 134.897 C 392.837 134.679,393.081 134.500,393.162 134.500 C 393.330 134.500,396.167 131.756,396.167 131.593 C 396.167 131.476,396.387 131.194,396.952 130.590 C 397.154 130.373,397.368 130.001,397.428 129.764 C 397.487 129.527,397.603 129.333,397.685 129.333 C 397.766 129.333,397.833 129.232,397.833 129.109 C 397.833 128.986,397.984 128.748,398.169 128.581 C 398.354 128.414,398.551 127.990,398.607 127.639 C 398.663 127.287,398.756 127.000,398.814 127.000 C 398.973 127.000,399.298 126.164,399.430 125.417 C 399.495 125.050,399.631 124.696,399.732 124.631 C 399.996 124.461,399.996 13.539,399.732 13.369 C 399.631 13.304,399.495 12.950,399.430 12.583 C 399.292 11.797,398.971 11.000,398.793 11.000 C 398.723 11.000,398.667 10.818,398.667 10.595 C 398.667 10.373,398.554 10.078,398.417 9.940 C 398.279 9.803,398.167 9.610,398.167 9.512 C 398.167 9.414,398.092 9.333,398.000 9.333 C 397.908 9.333,397.833 9.183,397.833 9.000 C 397.833 8.817,397.766 8.667,397.685 8.667 C 397.603 8.667,397.489 8.479,397.432 8.250 C 397.374 8.021,397.253 7.833,397.163 7.833 C 397.074 7.833,397.000 7.754,397.000 7.658 C 397.000 7.561,396.775 7.242,396.501 6.949 C 396.226 6.656,396.001 6.371,396.001 6.314 C 395.999 6.136,393.949 4.167,393.765 4.167 C 393.720 4.167,393.435 3.923,393.133 3.625 C 392.590 3.090,392.153 2.770,391.667 2.553 C 391.529 2.491,391.379 2.394,391.333 2.338 C 391.203 2.176,389.406 1.333,389.192 1.333 C 389.086 1.333,389.000 1.258,389.000 1.167 C 389.000 1.075,388.850 1.000,388.667 1.000 C 388.483 1.000,388.333 0.934,388.333 0.852 C 388.333 0.771,387.977 0.651,387.542 0.586 C 387.106 0.521,386.696 0.381,386.631 0.275 C 386.522 0.100,25.016 -0.058,22.167 0.117 M98.330 20.125 C 98.314 30.522,89.740 40.540,80.636 40.800 L 78.354 40.865 78.238 40.245 C 77.715 37.458,79.652 29.993,81.240 28.675 C 81.383 28.556,81.500 28.390,81.500 28.306 C 81.500 28.221,81.819 27.734,82.208 27.222 C 82.598 26.710,83.076 26.072,83.272 25.805 C 83.892 24.954,84.567 24.274,86.062 22.994 C 87.417 21.834,87.807 21.581,90.333 20.224 C 92.670 18.969,95.602 18.062,97.458 18.020 L 98.333 18.000 98.330 20.125 M225.126 41.759 L 225.083 53.417 223.708 53.465 L 222.333 53.513 222.333 41.764 L 222.333 30.014 223.625 29.965 C 224.335 29.939,224.973 29.958,225.043 30.009 C 225.112 30.061,225.150 35.348,225.126 41.759 M276.336 41.756 L 276.342 53.417 275.129 53.417 C 274.039 53.417,273.913 53.383,273.884 53.083 C 273.866 52.900,273.804 52.316,273.746 51.784 L 273.641 50.819 273.165 51.476 C 271.878 53.252,269.072 54.288,267.000 53.752 C 265.107 53.263,262.833 51.787,262.833 51.049 C 262.833 50.930,262.772 50.833,262.696 50.833 C 262.621 50.833,262.402 50.515,262.211 50.125 C 260.149 45.931,261.264 40.532,264.669 38.221 C 267.335 36.413,271.784 36.858,273.046 39.060 C 273.212 39.350,273.266 38.547,273.333 34.750 L 273.417 30.083 274.750 30.000 C 275.483 29.954,276.139 29.957,276.206 30.006 C 276.274 30.055,276.332 35.343,276.336 41.756 M344.500 34.722 C 344.500 40.057,344.464 39.879,345.342 38.927 C 348.063 35.975,352.625 36.544,354.526 40.072 L 355.250 41.417 355.250 47.417 L 355.250 53.417 353.917 53.417 L 352.583 53.417 352.492 48.000 L 352.400 42.583 351.916 41.611 C 350.696 39.159,347.740 38.727,345.799 40.718 C 344.591 41.958,344.593 41.946,344.500 48.000 L 344.417 53.417 343.338 53.467 C 342.745 53.495,342.089 53.475,341.880 53.422 L 341.500 53.327 341.500 41.775 C 341.500 35.421,341.550 30.172,341.611 30.111 C 341.672 30.050,342.347 30.000,343.111 30.000 L 344.500 30.000 344.500 34.722 M151.750 31.135 C 156.040 31.811,159.046 34.391,160.121 38.321 C 160.650 40.254,160.439 44.786,159.744 46.417 C 157.942 50.649,155.735 52.403,151.000 53.364 C 149.859 53.595,142.844 53.670,142.292 53.457 C 142.018 53.351,142.000 52.667,142.000 42.356 C 142.000 30.033,141.867 31.175,143.305 31.157 C 143.733 31.152,144.383 31.083,144.750 31.004 C 145.629 30.815,150.270 30.902,151.750 31.135 M335.037 35.042 L 335.083 37.250 337.083 37.333 L 339.083 37.417 339.132 38.536 L 339.182 39.656 337.132 39.703 L 335.083 39.750 335.083 44.833 C 335.083 51.153,335.280 51.616,337.895 51.473 L 338.917 51.417 339.018 52.333 C 339.142 53.456,339.059 53.539,337.537 53.826 C 335.448 54.220,333.539 53.374,332.710 51.687 L 332.250 50.750 332.167 45.250 L 332.083 39.750 330.868 39.701 L 329.652 39.652 329.701 38.534 L 329.750 37.417 330.958 37.368 L 332.167 37.319 332.167 35.416 L 332.167 33.513 332.875 33.320 C 333.265 33.214,333.771 33.067,334.000 32.994 C 335.003 32.671,334.986 32.637,335.037 35.042 M145.333 33.316 L 144.917 33.432 144.874 42.209 L 144.830 50.987 145.192 51.180 C 145.657 51.429,150.010 51.288,150.833 50.997 C 151.154 50.883,151.905 50.613,152.502 50.396 C 158.838 48.093,159.213 36.811,153.045 34.055 C 151.249 33.252,147.019 32.847,145.333 33.316 M171.982 37.161 C 175.039 37.603,177.459 40.074,178.107 43.417 C 179.533 50.776,173.051 56.090,166.480 52.949 C 163.481 51.515,161.729 47.130,162.671 43.417 C 163.060 41.885,163.244 41.389,163.612 40.886 C 163.825 40.594,164.000 40.286,164.000 40.202 C 164.000 39.846,165.880 38.311,166.915 37.822 C 168.499 37.074,170.013 36.876,171.982 37.161 M214.808 37.397 C 216.497 38.161,217.467 39.244,218.081 41.050 C 218.296 41.686,218.331 42.738,218.294 47.612 L 218.250 53.417 216.875 53.465 L 215.500 53.513 215.484 48.298 C 215.474 44.983,215.398 42.794,215.276 42.289 C 214.416 38.738,209.655 38.548,208.022 42.000 C 207.590 42.912,207.588 42.941,207.502 48.167 L 207.417 53.417 206.042 53.465 L 204.667 53.513 204.631 46.423 C 204.611 42.524,204.593 38.902,204.589 38.375 L 204.583 37.417 205.833 37.417 L 207.083 37.417 207.133 38.542 C 207.191 39.883,207.395 39.975,208.161 39.008 C 209.486 37.334,212.862 36.516,214.808 37.397 M237.732 37.159 C 244.899 38.082,246.513 49.848,239.896 52.940 C 234.088 55.653,228.643 52.388,228.371 46.029 C 228.115 40.051,231.953 36.414,237.732 37.159 M255.299 37.610 C 257.933 38.870,258.297 39.989,258.405 47.167 C 258.448 50.054,258.506 52.642,258.534 52.917 L 258.583 53.417 257.333 53.417 L 256.083 53.417 255.993 52.632 C 255.870 51.561,255.779 51.526,254.983 52.245 C 251.300 55.573,245.917 53.704,245.917 49.098 L 245.917 47.417 246.583 46.417 C 247.813 44.575,249.760 43.699,253.506 43.305 L 255.500 43.096 255.500 42.573 C 255.500 41.423,254.678 39.956,253.859 39.644 C 252.449 39.107,249.802 39.243,248.493 39.920 C 247.639 40.362,247.392 40.171,247.081 38.831 C 246.985 38.418,247.628 37.997,249.250 37.412 C 250.710 36.886,254.011 36.994,255.299 37.610 M296.649 37.161 C 298.769 37.467,301.058 39.112,301.913 40.944 C 302.887 43.031,302.908 43.125,302.905 45.318 C 302.899 49.174,300.953 52.424,298.167 53.232 C 295.268 54.074,294.862 54.110,293.196 53.677 C 290.929 53.088,288.969 51.694,288.212 50.132 C 284.826 43.148,289.402 36.113,296.649 37.161 M316.575 37.642 C 317.722 38.255,318.377 38.960,319.026 40.278 L 319.583 41.409 319.635 47.461 L 319.686 53.514 318.301 53.465 L 316.917 53.417 316.823 48.000 C 316.719 41.937,316.680 41.699,315.585 40.561 C 314.118 39.035,311.614 39.161,310.101 40.836 C 308.862 42.207,308.833 42.376,308.833 48.264 L 308.833 53.500 307.510 53.500 C 306.782 53.500,306.153 53.444,306.112 53.375 C 306.071 53.306,306.010 49.688,305.977 45.333 L 305.917 37.417 306.824 37.365 C 308.406 37.275,308.500 37.342,308.500 38.559 C 308.500 39.925,308.547 39.947,309.439 38.993 C 311.251 37.057,314.374 36.465,316.575 37.642 M368.663 37.630 C 371.079 38.768,372.333 41.089,372.333 44.423 L 372.333 45.996 366.708 46.039 L 361.083 46.083 361.134 46.833 C 361.396 50.734,366.253 52.928,370.280 50.966 C 370.829 50.699,371.093 50.891,371.327 51.729 C 371.676 52.976,371.423 53.136,368.154 53.737 C 362.065 54.856,357.750 50.901,358.257 44.667 C 358.719 38.984,363.982 35.425,368.663 37.630 M181.960 37.542 C 182.128 37.751,182.515 39.148,183.563 43.333 C 183.873 44.571,184.276 46.108,184.459 46.750 C 184.950 48.478,185.167 49.452,185.167 49.939 C 185.167 50.605,185.543 50.184,185.808 49.221 C 185.929 48.779,186.089 48.229,186.162 48.000 C 186.236 47.771,186.425 47.096,186.584 46.500 C 186.742 45.904,187.005 45.079,187.169 44.667 C 187.332 44.254,187.593 43.429,187.749 42.833 C 187.904 42.237,188.096 41.600,188.175 41.417 C 188.254 41.233,188.593 40.240,188.929 39.208 L 189.540 37.333 190.681 37.333 C 191.924 37.333,192.057 37.433,192.346 38.579 C 192.416 38.857,192.624 39.496,192.808 40.000 C 192.992 40.504,193.306 41.512,193.506 42.239 C 193.705 42.966,193.966 43.791,194.085 44.072 C 194.205 44.353,194.430 45.071,194.586 45.667 C 194.742 46.262,195.040 47.313,195.248 48.000 C 195.457 48.688,195.682 49.506,195.750 49.820 C 195.896 50.501,196.090 50.266,196.318 49.134 C 196.397 48.739,196.588 47.967,196.742 47.417 C 196.896 46.867,197.201 45.697,197.419 44.816 C 197.638 43.936,197.923 42.924,198.053 42.566 C 198.355 41.738,199.043 39.271,199.242 38.303 C 199.402 37.527,199.748 37.333,200.970 37.336 C 202.384 37.339,202.567 37.445,202.244 38.067 C 202.110 38.326,202.000 38.619,202.000 38.718 C 202.000 38.971,201.171 41.647,200.901 42.265 C 200.778 42.548,200.570 43.186,200.440 43.682 C 200.311 44.178,200.007 45.146,199.766 45.833 C 199.525 46.521,199.072 47.908,198.759 48.917 C 198.003 51.350,197.499 52.861,197.342 53.167 C 197.244 53.357,196.900 53.417,195.903 53.417 L 194.591 53.417 194.438 52.917 C 194.353 52.642,194.170 52.155,194.032 51.835 C 193.893 51.515,193.613 50.653,193.408 49.919 C 193.044 48.607,192.442 46.740,192.173 46.083 C 191.989 45.634,191.012 42.229,190.858 41.500 C 190.723 40.858,190.333 41.215,190.333 41.981 C 190.333 42.166,190.264 42.490,190.180 42.700 C 190.096 42.911,189.724 44.021,189.355 45.167 C 188.600 47.505,188.344 48.265,188.150 48.750 C 188.076 48.933,187.863 49.596,187.675 50.223 C 187.488 50.850,187.229 51.600,187.099 51.889 C 186.969 52.179,186.794 52.642,186.710 52.917 C 186.559 53.408,186.535 53.418,185.304 53.465 C 183.816 53.522,183.812 53.519,183.351 51.832 C 183.163 51.145,182.853 50.096,182.663 49.500 C 182.473 48.904,182.238 48.117,182.141 47.750 C 182.044 47.383,181.862 46.821,181.738 46.500 C 181.613 46.179,181.348 45.317,181.149 44.583 C 180.950 43.850,180.581 42.612,180.329 41.833 C 179.554 39.435,179.137 37.817,179.232 37.570 C 179.352 37.257,181.712 37.233,181.960 37.542 M364.127 39.433 C 362.768 39.851,361.060 42.107,361.198 43.303 L 361.250 43.750 365.333 43.750 L 369.417 43.750 369.471 43.177 C 369.729 40.475,366.986 38.554,364.127 39.433 M168.774 39.538 C 165.096 40.512,164.260 47.832,167.515 50.570 C 169.676 52.389,172.770 51.784,174.270 49.250 C 175.351 47.423,175.544 43.864,174.646 42.333 C 174.565 42.196,174.426 41.915,174.338 41.710 C 173.541 39.867,171.111 38.919,168.774 39.538 M234.586 39.543 C 231.367 40.393,230.155 47.024,232.692 49.906 C 237.084 54.896,243.276 48.463,240.307 41.995 C 239.311 39.824,237.104 38.879,234.586 39.543 M268.054 39.507 C 265.520 40.009,264.422 41.818,264.419 45.500 C 264.415 49.537,266.073 51.662,269.075 51.470 C 272.042 51.281,273.221 49.702,273.309 45.797 C 273.401 41.697,272.536 40.021,270.071 39.526 C 269.010 39.313,269.036 39.313,268.054 39.507 M293.465 39.532 C 289.829 40.499,288.877 47.576,292.003 50.399 C 294.263 52.442,297.644 51.825,299.025 49.118 C 301.709 43.857,298.434 38.211,293.465 39.532 M99.459 42.002 C 102.310 42.302,105.409 43.121,107.333 44.083 C 109.415 45.124,110.258 45.600,110.635 45.950 C 110.862 46.161,111.110 46.333,111.185 46.333 C 111.261 46.333,111.695 46.665,112.151 47.069 C 112.607 47.474,113.078 47.868,113.198 47.944 C 113.402 48.074,114.065 48.791,115.531 50.467 C 116.086 51.103,116.455 51.785,116.307 51.904 C 116.276 51.930,115.648 52.368,114.913 52.879 C 113.641 53.763,111.401 55.677,111.117 56.123 C 111.044 56.238,110.722 56.614,110.401 56.958 C 110.081 57.302,109.492 58.071,109.093 58.667 C 104.576 65.409,104.527 75.108,108.975 82.298 C 109.894 83.783,113.587 87.833,114.022 87.833 C 114.082 87.833,114.493 88.133,114.937 88.500 C 115.381 88.867,115.805 89.167,115.880 89.167 C 115.955 89.167,116.406 89.414,116.883 89.716 C 117.360 90.019,117.988 90.363,118.280 90.482 C 119.026 90.785,118.998 91.748,118.198 93.271 C 118.108 93.443,117.828 94.146,117.577 94.833 C 116.992 96.433,115.488 99.481,113.929 102.227 C 112.771 104.265,110.184 107.998,108.759 109.687 C 106.074 112.868,103.694 115.148,103.042 115.162 C 102.927 115.165,102.833 115.231,102.833 115.310 C 102.833 115.389,102.219 115.734,101.469 116.077 C 97.722 117.790,94.847 117.598,88.909 115.237 C 87.896 114.835,86.809 114.456,86.492 114.396 C 86.176 114.336,85.842 114.234,85.750 114.169 C 84.383 113.207,77.322 113.129,75.157 114.053 C 74.841 114.188,74.133 114.422,73.583 114.575 C 72.464 114.884,72.308 114.943,70.969 115.562 C 70.448 115.803,69.953 116.000,69.870 116.000 C 69.786 116.000,69.276 116.153,68.734 116.339 C 66.623 117.067,66.013 117.167,63.668 117.167 C 62.305 117.167,61.311 117.098,61.250 117.000 C 61.193 116.908,61.008 116.833,60.838 116.833 C 58.970 116.833,53.373 111.939,50.417 107.720 C 50.142 107.328,49.425 106.311,48.823 105.462 C 48.222 104.612,47.584 103.654,47.407 103.333 C 47.229 103.013,47.033 102.712,46.972 102.665 C 46.707 102.464,44.333 98.109,44.333 97.825 C 44.333 97.707,44.230 97.491,44.104 97.346 C 43.866 97.074,42.664 94.336,42.012 92.583 C 41.808 92.033,41.544 91.358,41.427 91.083 C 40.783 89.572,39.287 84.130,38.907 81.917 C 38.860 81.642,38.714 80.892,38.584 80.250 C 38.107 77.904,37.998 76.323,37.999 71.760 C 38.000 67.401,38.086 66.202,38.532 64.333 C 38.630 63.921,38.767 63.283,38.837 62.917 C 39.071 61.688,39.668 59.674,40.060 58.791 C 40.274 58.310,40.623 57.467,40.835 56.917 C 41.047 56.367,41.309 55.804,41.418 55.667 C 41.526 55.529,41.860 54.981,42.158 54.449 C 43.955 51.251,47.244 47.657,49.608 46.310 C 49.961 46.108,50.400 45.817,50.583 45.662 C 50.767 45.507,51.292 45.204,51.750 44.988 C 52.208 44.772,52.771 44.472,53.000 44.321 C 57.255 41.523,65.012 41.466,71.750 44.184 C 72.392 44.443,73.517 44.851,74.250 45.092 C 74.983 45.333,75.808 45.632,76.083 45.757 C 78.168 46.699,79.611 46.572,83.750 45.081 C 84.942 44.651,86.742 44.002,87.750 43.638 C 92.073 42.076,95.550 41.590,99.459 42.002 M252.583 45.399 C 250.120 45.890,248.790 47.125,248.787 48.924 C 248.783 51.576,251.819 52.614,254.103 50.743 C 255.271 49.786,255.500 49.173,255.500 47.007 L 255.500 45.167 254.542 45.183 C 254.015 45.192,253.133 45.289,252.583 45.399 M268.167 65.728 C 268.579 65.875,269.023 65.996,269.153 65.998 C 270.151 66.008,271.860 66.931,271.782 67.418 C 271.482 69.274,270.677 71.020,270.274 70.687 C 269.969 70.435,267.176 69.537,266.094 69.344 C 260.400 68.324,255.997 71.601,257.244 75.930 C 257.935 78.328,259.931 79.888,264.333 81.473 C 265.205 81.787,267.131 82.670,267.667 83.001 C 267.804 83.086,268.292 83.380,268.750 83.653 C 271.891 85.530,273.240 88.012,273.238 91.917 C 273.236 95.896,272.065 98.153,268.906 100.261 C 265.043 102.840,257.440 103.009,252.695 100.622 C 251.483 100.013,251.512 100.194,252.246 97.750 C 252.795 95.926,252.671 96.040,253.547 96.554 C 253.949 96.789,254.758 97.138,255.347 97.329 C 255.935 97.521,256.904 97.841,257.500 98.041 C 258.414 98.347,258.960 98.403,261.000 98.403 L 263.417 98.402 264.870 97.767 C 271.076 95.053,269.406 87.595,262.083 85.327 C 259.337 84.476,255.990 82.529,254.582 80.963 C 250.562 76.492,252.222 68.984,257.750 66.628 C 260.730 65.358,265.877 64.913,268.167 65.728 M164.000 66.252 C 164.000 66.391,164.069 66.635,164.153 66.794 C 164.237 66.953,164.431 67.533,164.585 68.083 C 164.739 68.633,164.999 69.383,165.162 69.750 C 165.326 70.117,165.614 70.942,165.803 71.583 C 166.180 72.866,167.551 76.860,167.801 77.406 C 167.888 77.595,168.167 78.425,168.422 79.250 C 168.677 80.075,168.980 80.975,169.097 81.250 C 169.213 81.525,169.542 82.500,169.828 83.417 C 170.113 84.333,170.443 85.271,170.561 85.500 C 170.679 85.729,170.873 86.254,170.992 86.667 C 171.112 87.079,171.430 88.054,171.700 88.833 C 171.970 89.612,172.347 90.737,172.536 91.333 C 172.725 91.929,173.124 93.092,173.421 93.917 C 173.718 94.742,174.052 95.717,174.164 96.083 C 174.275 96.450,174.472 96.962,174.600 97.222 C 174.728 97.481,174.833 97.801,174.833 97.932 C 174.833 98.064,174.905 98.301,174.992 98.461 C 175.145 98.740,176.000 101.386,176.000 101.580 C 176.000 101.633,174.897 101.655,173.549 101.629 L 171.099 101.583 170.790 100.750 C 170.620 100.292,170.252 99.204,169.972 98.333 C 169.692 97.462,169.327 96.412,169.159 96.000 C 168.992 95.587,168.628 94.537,168.352 93.667 C 167.769 91.832,167.468 91.001,167.280 90.708 C 167.178 90.548,165.723 90.500,160.940 90.500 C 154.476 90.500,154.333 90.515,154.333 91.206 C 154.333 91.374,154.227 91.678,154.096 91.881 C 153.965 92.084,153.670 92.888,153.440 93.667 C 153.210 94.446,152.801 95.721,152.531 96.500 C 152.262 97.279,151.922 98.292,151.777 98.750 C 151.633 99.208,151.346 100.052,151.141 100.625 L 150.768 101.667 148.384 101.667 C 147.073 101.667,146.000 101.628,146.000 101.581 C 146.000 101.534,146.067 101.365,146.149 101.206 C 146.230 101.047,146.423 100.467,146.577 99.917 C 146.731 99.367,146.995 98.614,147.162 98.245 C 147.330 97.875,147.552 97.261,147.654 96.880 C 147.909 95.932,148.421 94.355,148.669 93.750 C 149.051 92.821,149.133 92.586,149.421 91.583 C 149.580 91.033,149.845 90.246,150.011 89.833 C 150.176 89.421,150.541 88.371,150.821 87.500 C 151.101 86.629,151.707 84.829,152.167 83.500 C 152.628 82.171,153.182 80.521,153.399 79.833 C 153.617 79.146,153.911 78.321,154.052 78.000 C 154.194 77.679,154.537 76.704,154.814 75.833 C 155.092 74.962,155.548 73.575,155.828 72.750 C 156.108 71.925,156.420 70.987,156.521 70.667 C 156.622 70.346,156.804 69.858,156.925 69.583 C 157.047 69.308,157.357 68.390,157.615 67.542 L 158.083 66.000 161.042 66.000 C 163.572 66.000,164.000 66.036,164.000 66.252 M285.167 72.330 L 285.167 75.993 288.542 76.038 L 291.917 76.083 291.966 77.500 C 292.048 79.871,292.375 79.667,288.497 79.667 L 285.167 79.667 285.167 87.298 C 285.167 95.996,285.215 96.437,286.295 97.545 C 287.104 98.375,287.855 98.563,289.788 98.418 C 291.574 98.284,291.430 98.142,291.577 100.183 L 291.680 101.616 290.544 101.975 C 287.734 102.861,284.110 102.202,282.530 100.518 C 280.686 98.551,280.507 97.384,280.503 87.297 L 280.500 79.677 278.542 79.630 L 276.583 79.583 276.536 77.792 L 276.489 76.000 278.491 76.000 L 280.493 76.000 280.538 72.875 L 280.583 69.750 282.667 69.220 C 283.813 68.928,284.844 68.685,284.958 68.678 C 285.119 68.669,285.167 69.504,285.167 72.330 M160.351 71.785 C 159.974 73.379,159.123 76.209,158.481 78.000 C 158.301 78.504,157.894 79.704,157.579 80.667 C 157.263 81.629,156.704 83.306,156.336 84.393 C 155.968 85.480,155.667 86.474,155.667 86.601 C 155.667 86.795,156.543 86.833,160.930 86.833 L 166.193 86.833 166.076 86.292 C 166.011 85.994,165.740 85.150,165.473 84.417 C 165.206 83.683,164.811 82.521,164.594 81.833 C 164.378 81.146,164.076 80.246,163.923 79.833 C 163.769 79.421,163.452 78.483,163.218 77.750 C 162.984 77.017,162.618 75.929,162.405 75.333 C 162.192 74.737,161.816 73.425,161.571 72.417 C 161.325 71.408,161.099 70.490,161.067 70.375 C 160.925 69.854,160.704 70.289,160.351 71.785 M197.667 75.855 C 200.701 76.896,203.574 79.661,204.485 82.417 C 204.606 82.783,204.801 83.308,204.918 83.583 C 205.572 85.114,205.815 89.875,205.353 92.083 C 204.965 93.940,204.200 95.864,203.383 97.042 C 203.081 97.478,202.832 97.890,202.831 97.959 C 202.830 98.027,202.436 98.473,201.956 98.948 C 197.689 103.178,190.864 103.504,187.021 99.661 C 186.460 99.100,185.982 98.552,185.961 98.445 C 185.940 98.338,185.883 101.400,185.836 105.250 L 185.750 112.250 183.475 112.296 L 181.200 112.343 181.100 94.963 C 181.046 85.404,180.982 77.246,180.959 76.833 L 180.917 76.083 183.019 76.037 L 185.121 75.990 185.203 77.999 C 185.296 80.247,185.383 80.469,185.894 79.750 C 186.291 79.192,188.353 77.174,188.531 77.170 C 188.593 77.168,189.006 76.942,189.447 76.668 C 191.160 75.604,195.644 75.160,197.667 75.855 M228.245 75.916 C 237.901 78.908,238.768 96.291,229.500 101.084 C 225.112 103.353,219.253 102.393,216.745 98.994 C 216.181 98.229,216.167 98.398,216.167 105.680 L 216.167 112.333 213.847 112.333 L 211.527 112.333 211.452 94.542 C 211.410 84.756,211.348 76.600,211.313 76.417 C 211.253 76.100,211.352 76.081,213.351 76.037 L 215.452 75.990 215.572 78.035 C 215.710 80.402,215.728 80.440,216.311 79.672 C 218.952 76.195,224.008 74.603,228.245 75.916 M311.479 75.915 C 321.585 78.669,323.565 94.443,314.537 100.286 C 313.522 100.942,312.663 101.303,310.583 101.942 C 305.359 103.550,298.633 100.606,296.406 95.737 C 296.158 95.194,295.901 94.637,295.834 94.498 C 294.862 92.469,294.616 87.600,295.356 85.000 C 296.854 79.728,300.631 76.312,305.750 75.596 C 306.729 75.459,310.598 75.674,311.479 75.915 M338.833 77.733 L 338.833 79.967 337.428 79.967 C 334.788 79.967,332.980 81.108,331.815 83.509 C 330.847 85.506,330.833 85.650,330.833 94.008 L 330.833 101.667 328.521 101.667 L 326.210 101.667 326.109 89.292 C 326.054 82.485,325.988 76.729,325.963 76.500 L 325.917 76.083 327.943 76.037 L 329.969 75.990 330.072 77.453 C 330.302 80.726,330.360 81.120,330.546 80.667 C 330.964 79.648,331.378 78.934,331.837 78.444 C 332.109 78.154,332.332 77.863,332.333 77.797 C 332.334 77.606,334.126 76.334,334.802 76.044 C 335.659 75.676,336.402 75.541,337.708 75.519 L 338.833 75.500 338.833 77.733 M356.976 75.984 C 357.558 76.165,358.158 76.412,358.309 76.532 C 358.460 76.652,358.771 76.856,359.000 76.985 C 362.227 78.808,364.902 85.533,363.895 89.292 L 363.794 89.667 354.809 89.667 C 344.477 89.667,345.495 89.452,345.826 91.564 C 346.527 96.036,349.830 98.668,354.739 98.666 C 356.508 98.666,358.936 98.363,359.667 98.052 C 360.606 97.652,361.662 97.357,361.733 97.475 C 361.804 97.591,362.251 99.422,362.411 100.250 C 362.523 100.830,362.272 100.988,360.583 101.397 C 360.033 101.531,359.096 101.769,358.500 101.926 C 357.120 102.289,352.497 102.453,351.367 102.179 C 343.088 100.169,339.502 93.611,341.767 84.625 C 343.476 77.849,350.372 73.930,356.976 75.984 M306.696 79.036 C 300.293 79.985,297.401 89.449,301.653 95.536 C 302.461 96.692,302.769 96.979,304.205 97.914 C 307.735 100.212,312.814 98.011,314.581 93.417 C 317.407 86.074,313.032 78.097,306.696 79.036 M350.223 79.433 C 348.065 80.479,346.168 83.091,345.898 85.391 L 345.787 86.333 352.551 86.333 C 356.934 86.333,359.350 86.274,359.418 86.165 C 359.628 85.826,359.130 83.459,358.619 82.367 C 357.142 79.205,353.394 77.896,350.223 79.433 M191.716 79.427 C 189.200 79.978,187.306 81.670,186.367 84.203 C 185.675 86.069,185.679 92.716,186.373 94.214 C 189.236 100.391,197.940 99.939,200.116 93.500 C 202.810 85.530,198.304 77.982,191.716 79.427 M222.097 79.441 C 220.877 79.703,219.845 80.155,219.358 80.642 C 219.196 80.804,218.918 81.045,218.740 81.177 C 216.660 82.721,215.706 87.013,216.294 92.188 C 217.191 100.091,228.234 100.914,230.544 93.250 C 233.008 85.074,228.697 78.026,222.097 79.441 " stroke="none" fill="#000000" fill-rule="evenodd"></path></g></svg>