<svg xmlns="http://www.w3.org/2000/svg" xmlns:xlink="http://www.w3.org/1999/xlink" id="svg" version="1.1" viewBox="64.05 72.22 263.45 96.67"><g id="svgg"><path id="path0" d="M98.592 98.582 C 91.539 103.297,85.673 107.326,85.557 107.536 C 85.205 108.169,85.240 142.126,85.593 142.630 L 85.852 143.000 99.900 143.000 C 113.298 143.000,113.961 142.986,114.224 142.695 C 114.472 142.421,114.500 141.652,114.500 135.132 C 114.500 129.524,114.547 127.837,114.708 127.710 C 114.823 127.620,115.254 127.419,115.667 127.264 C 117.072 126.733,118.500 125.460,118.500 124.737 C 118.500 124.024,118.281 124.000,111.833 124.000 C 105.412 124.000,105.165 124.027,105.167 124.720 C 105.170 125.471,106.547 126.723,107.945 127.246 C 108.388 127.411,108.844 127.620,108.958 127.710 C 109.252 127.941,109.260 137.174,108.967 137.467 C 108.571 137.862,91.052 137.742,90.838 137.342 C 90.721 137.124,90.679 132.671,90.707 123.634 L 90.750 110.250 100.750 103.556 C 106.250 99.874,110.983 96.732,111.269 96.572 L 111.787 96.282 122.102 103.159 C 127.775 106.941,132.510 110.155,132.625 110.300 C 132.788 110.507,132.833 114.019,132.833 126.582 C 132.833 138.818,132.881 142.647,133.033 142.800 C 133.311 143.078,137.522 143.078,137.800 142.800 C 138.068 142.532,138.092 107.983,137.825 107.484 C 137.615 107.093,112.231 90.128,111.750 90.058 C 111.536 90.027,106.816 93.085,98.592 98.582 M218.833 111.917 C 217.128 112.241,216.087 112.653,214.531 113.617 C 213.501 114.255,211.167 117.094,211.167 117.708 C 211.167 117.832,211.096 118.005,211.009 118.092 C 209.429 119.679,209.920 129.427,211.659 131.000 C 211.709 131.046,211.970 131.406,212.237 131.800 C 216.404 137.940,227.311 137.156,230.830 130.464 C 231.333 129.507,231.323 129.495,229.496 128.821 C 227.412 128.053,227.542 128.061,227.211 128.684 C 225.274 132.329,219.673 133.328,216.548 130.586 C 215.440 129.615,214.604 127.890,214.345 126.043 L 214.223 125.170 222.903 125.126 L 231.583 125.083 231.552 123.250 C 231.507 120.639,230.546 116.667,229.959 116.667 C 229.890 116.667,229.833 116.570,229.833 116.453 C 229.833 116.079,228.302 114.331,227.296 113.556 C 225.386 112.084,221.707 111.372,218.833 111.917 M252.167 111.910 C 247.348 112.824,244.555 115.799,243.507 121.133 C 243.016 123.633,243.505 127.914,244.536 130.132 C 244.737 130.564,244.961 130.942,245.034 130.972 C 245.107 131.003,245.167 131.115,245.167 131.222 C 245.169 131.785,247.407 133.977,248.668 134.652 C 254.140 137.580,261.060 135.703,263.557 130.613 C 263.909 129.895,264.172 129.290,264.140 129.268 C 263.790 129.023,260.251 128.185,260.118 128.316 C 260.046 128.388,259.821 128.753,259.618 129.128 C 257.407 133.216,250.787 133.156,248.681 129.028 C 246.863 125.465,247.293 119.834,249.562 117.464 C 252.544 114.350,257.869 115.096,259.826 118.903 C 260.269 119.763,260.231 119.749,261.203 119.439 C 261.595 119.313,262.367 119.078,262.917 118.916 C 263.467 118.753,263.966 118.593,264.027 118.560 C 264.145 118.494,263.698 117.204,263.304 116.476 C 261.428 113.004,256.674 111.054,252.167 111.910 M275.083 111.853 C 272.566 112.302,271.169 112.975,269.702 114.445 C 268.163 115.988,267.086 118.495,267.958 118.502 C 268.119 118.504,268.587 118.625,269.000 118.773 C 269.412 118.920,269.975 119.098,270.250 119.168 C 270.525 119.238,270.871 119.345,271.020 119.407 C 271.222 119.491,271.354 119.361,271.546 118.884 C 273.375 114.360,281.096 114.230,282.220 118.705 C 282.635 120.354,282.604 120.667,282.028 120.667 C 281.768 120.667,281.149 120.737,280.653 120.822 C 280.156 120.908,279.112 121.062,278.333 121.166 C 276.957 121.348,276.515 121.424,274.417 121.831 C 268.474 122.984,265.810 126.120,266.901 130.679 C 268.313 136.585,277.216 138.015,282.040 133.111 L 282.833 132.305 282.833 133.819 L 282.833 135.333 284.682 135.333 L 286.530 135.333 286.460 126.708 C 286.375 116.219,286.252 115.648,283.633 113.579 C 281.798 112.129,277.921 111.346,275.083 111.853 M314.667 111.918 C 313.414 112.156,313.190 112.229,311.667 112.893 C 308.599 114.228,306.391 117.768,305.972 122.023 C 305.322 128.614,307.862 133.552,312.777 135.256 C 318.323 137.179,324.100 135.234,326.652 130.583 C 327.154 129.669,327.168 129.597,326.885 129.434 C 326.624 129.284,324.474 128.482,323.628 128.219 C 323.423 128.155,323.254 128.291,323.045 128.689 C 319.935 134.593,311.135 132.772,310.250 126.042 L 310.135 125.167 318.818 125.167 L 327.500 125.167 327.497 124.125 C 327.489 121.328,326.978 118.753,326.085 117.014 C 324.039 113.029,319.491 110.999,314.667 111.918 M300.393 112.334 C 298.633 112.591,296.574 113.831,295.607 115.217 C 295.369 115.557,295.350 115.468,295.342 113.958 L 295.333 112.333 293.500 112.333 L 291.667 112.333 291.667 123.833 L 291.667 135.333 293.667 135.333 L 295.667 135.333 295.667 129.407 C 295.667 121.868,295.938 119.854,297.167 118.290 C 298.504 116.588,299.925 115.930,302.208 115.957 L 303.667 115.974 303.667 114.176 L 303.667 112.379 302.893 112.273 C 302.000 112.150,301.576 112.160,300.393 112.334 M177.082 112.625 C 177.147 112.785,177.372 113.517,177.583 114.250 C 177.942 115.502,178.112 116.058,178.834 118.333 C 178.994 118.837,179.317 119.888,179.552 120.667 C 180.411 123.512,181.358 126.608,181.669 127.583 C 181.844 128.133,182.184 129.258,182.424 130.083 C 182.664 130.908,182.995 131.996,183.160 132.500 C 183.325 133.004,183.588 133.848,183.745 134.375 L 184.031 135.333 185.766 135.333 C 187.245 135.333,187.500 135.294,187.500 135.066 C 187.500 134.919,187.793 133.926,188.152 132.858 C 188.510 131.790,189.080 130.017,189.418 128.917 C 189.757 127.817,190.318 126.054,190.666 125.000 C 191.263 123.191,191.728 121.712,192.420 119.423 L 192.720 118.429 192.926 118.923 C 193.040 119.194,193.288 119.942,193.478 120.583 C 193.668 121.225,194.024 122.425,194.268 123.250 C 194.512 124.075,194.915 125.388,195.165 126.167 C 195.646 127.672,196.048 128.988,196.769 131.417 C 197.014 132.242,197.384 133.442,197.592 134.083 L 197.969 135.250 199.717 135.297 L 201.466 135.344 202.004 133.630 C 202.299 132.688,202.673 131.504,202.834 131.000 C 202.995 130.496,203.254 129.633,203.410 129.083 C 203.566 128.533,203.754 127.896,203.829 127.667 C 203.904 127.438,204.205 126.462,204.499 125.500 C 204.793 124.537,205.166 123.337,205.330 122.833 C 205.493 122.329,205.754 121.467,205.910 120.917 C 206.066 120.367,206.253 119.729,206.327 119.500 C 206.400 119.271,206.619 118.558,206.813 117.917 C 207.007 117.275,207.429 115.929,207.750 114.926 C 208.628 112.180,208.706 112.333,206.431 112.333 L 204.530 112.333 204.100 113.751 C 203.864 114.530,203.476 115.824,203.239 116.626 C 203.001 117.427,202.672 118.496,202.507 119.000 C 202.342 119.504,201.945 120.779,201.623 121.833 C 201.301 122.888,200.807 124.500,200.525 125.417 C 200.243 126.333,199.916 127.402,199.799 127.792 C 199.576 128.532,199.333 128.732,199.333 128.175 C 199.333 127.995,199.263 127.677,199.178 127.466 C 199.092 127.256,198.896 126.633,198.741 126.083 C 198.586 125.533,198.326 124.671,198.163 124.167 C 198.000 123.662,197.626 122.462,197.332 121.500 C 197.039 120.537,196.737 119.563,196.662 119.333 C 196.588 119.104,196.398 118.467,196.240 117.917 C 196.083 117.367,195.656 115.979,195.292 114.833 C 194.928 113.688,194.603 112.656,194.570 112.542 C 194.527 112.392,194.024 112.333,192.793 112.333 L 191.076 112.333 190.706 113.458 C 190.503 114.077,190.181 115.108,189.989 115.750 C 189.798 116.392,189.578 117.104,189.500 117.333 C 189.423 117.563,189.232 118.200,189.077 118.750 C 188.921 119.300,188.660 120.162,188.496 120.667 C 188.204 121.570,187.491 123.884,186.751 126.333 C 186.543 127.021,186.322 127.804,186.258 128.075 C 186.117 128.682,185.958 128.474,185.567 127.167 C 185.416 126.662,185.164 125.837,185.006 125.333 C 184.849 124.829,184.596 124.004,184.445 123.500 C 183.623 120.762,183.428 120.129,183.008 118.833 C 182.756 118.054,182.418 116.967,182.258 116.417 C 181.589 114.119,181.402 113.518,181.146 112.833 L 180.960 112.333 178.962 112.333 C 177.126 112.333,176.974 112.357,177.082 112.625 M102.095 112.929 C 101.951 113.073,101.833 113.267,101.833 113.361 C 101.833 113.853,104.205 122.088,104.379 122.198 C 104.748 122.433,118.935 122.362,119.132 122.125 C 119.621 121.535,121.644 113.420,121.397 113.037 C 120.989 112.403,117.021 112.540,116.706 113.198 C 116.347 113.949,115.847 113.974,115.258 113.272 L 114.750 112.667 108.554 112.667 C 103.143 112.667,102.324 112.700,102.095 112.929 M223.758 115.851 C 225.763 116.601,227.500 119.354,227.500 121.781 C 227.500 121.810,224.537 121.833,220.917 121.833 C 213.385 121.833,214.094 122.032,214.695 120.088 C 215.904 116.177,219.782 114.363,223.758 115.851 M319.553 115.783 C 320.817 116.196,322.314 117.754,322.726 119.084 C 322.896 119.634,323.102 120.256,323.184 120.466 C 323.266 120.677,323.333 121.070,323.333 121.341 L 323.333 121.833 316.775 121.833 L 310.216 121.833 310.344 121.042 C 311.051 116.647,315.110 114.330,319.553 115.783 M282.500 124.648 C 282.500 129.518,279.795 132.417,275.250 132.417 C 269.762 132.417,268.791 127.392,273.917 125.516 C 274.700 125.230,277.528 124.704,280.250 124.339 C 281.075 124.228,281.862 124.115,282.000 124.088 C 282.137 124.061,282.306 124.030,282.375 124.019 C 282.444 124.009,282.500 124.292,282.500 124.648 " stroke="none" fill="#ffffff" fill-rule="evenodd"/><path id="path1" d="M108.833 72.359 C 104.267 72.734,100.054 73.640,95.750 75.172 C 95.200 75.368,94.525 75.631,94.250 75.757 C 93.975 75.882,93.375 76.130,92.917 76.308 C 91.404 76.895,86.737 79.425,86.196 79.952 C 86.075 80.070,85.912 80.167,85.833 80.167 C 85.755 80.167,85.591 80.260,85.470 80.375 C 85.349 80.490,84.813 80.869,84.279 81.219 C 83.744 81.568,83.107 82.032,82.862 82.249 C 82.235 82.804,81.771 83.185,81.135 83.667 C 80.206 84.370,76.422 88.178,75.338 89.500 C 73.960 91.179,73.969 91.168,73.506 91.833 C 73.282 92.154,73.057 92.454,73.004 92.500 C 72.085 93.307,68.307 100.288,67.323 103.000 C 65.911 106.892,65.533 108.286,64.685 112.750 C 63.204 120.542,64.366 130.985,67.577 138.750 C 67.690 139.025,67.884 139.512,68.006 139.833 C 68.717 141.691,72.301 148.022,73.008 148.667 C 73.058 148.712,73.282 149.012,73.506 149.333 C 74.947 151.403,78.832 155.571,81.000 157.374 C 81.413 157.717,81.852 158.083,81.976 158.189 C 82.313 158.473,84.894 160.385,85.263 160.623 C 87.042 161.770,87.888 162.290,88.667 162.714 C 90.428 163.674,92.255 164.599,92.833 164.824 C 93.154 164.948,93.679 165.159,94.000 165.292 C 95.442 165.890,96.510 166.289,97.500 166.600 C 97.912 166.730,98.479 166.910,98.759 167.000 C 99.039 167.091,99.639 167.244,100.092 167.340 C 100.546 167.437,101.217 167.588,101.583 167.675 C 106.815 168.923,113.653 169.246,118.750 168.486 C 120.709 168.194,121.889 167.987,122.500 167.828 C 122.821 167.744,123.646 167.551,124.333 167.399 C 128.738 166.425,134.458 163.934,138.737 161.128 C 140.205 160.166,141.838 159.017,142.000 158.833 C 142.046 158.781,142.458 158.443,142.917 158.081 C 145.466 156.070,149.931 151.432,151.077 149.605 C 151.257 149.318,151.454 149.046,151.515 149.000 C 151.727 148.841,154.167 145.015,154.167 144.841 C 154.167 144.745,154.223 144.666,154.292 144.665 C 154.360 144.665,154.500 144.496,154.602 144.290 C 154.705 144.085,155.021 143.467,155.305 142.917 C 155.984 141.605,157.333 138.671,157.333 138.508 C 157.333 138.437,157.556 137.840,157.827 137.181 C 158.099 136.522,158.371 135.706,158.432 135.367 C 158.493 135.027,158.599 134.675,158.666 134.583 C 158.733 134.492,158.831 134.229,158.883 134.000 C 158.934 133.771,159.058 133.283,159.157 132.917 C 159.475 131.746,160.015 129.122,160.359 127.083 C 160.664 125.270,160.671 115.729,160.369 114.083 C 160.250 113.442,160.077 112.467,159.984 111.917 C 159.890 111.367,159.748 110.654,159.667 110.333 C 159.587 110.013,159.434 109.375,159.328 108.917 C 159.222 108.458,159.075 107.896,159.001 107.667 C 158.928 107.438,158.741 106.800,158.587 106.250 C 158.291 105.194,158.064 104.494,157.817 103.875 C 157.734 103.669,157.600 103.331,157.519 103.125 C 156.844 101.416,155.323 98.157,154.700 97.083 C 153.654 95.283,152.895 94.053,152.712 93.863 C 152.595 93.742,152.500 93.585,152.500 93.514 C 152.500 93.443,152.364 93.228,152.198 93.036 C 152.032 92.845,151.751 92.486,151.573 92.240 C 150.541 90.808,149.995 90.100,149.250 89.227 C 147.983 87.741,144.252 84.085,143.104 83.204 C 141.957 82.324,141.549 81.997,141.273 81.739 C 140.916 81.405,137.237 79.044,136.160 78.458 C 133.707 77.123,132.504 76.526,131.570 76.177 C 131.027 75.974,130.321 75.694,130.000 75.554 C 129.679 75.414,129.267 75.237,129.083 75.161 C 128.767 75.029,127.163 74.502,126.083 74.174 C 125.295 73.936,122.594 73.322,121.000 73.020 C 117.134 72.287,112.668 72.045,108.833 72.359 M124.866 98.632 C 131.897 103.320,137.728 107.304,137.825 107.484 C 138.092 107.983,138.068 142.532,137.800 142.800 C 137.522 143.078,133.311 143.078,133.033 142.800 C 132.881 142.647,132.833 138.818,132.833 126.582 C 132.833 114.019,132.788 110.507,132.625 110.300 C 132.510 110.155,127.775 106.941,122.102 103.159 L 111.787 96.282 111.269 96.572 C 110.983 96.732,106.250 99.874,100.750 103.556 L 90.750 110.250 90.707 123.634 C 90.679 132.671,90.721 137.124,90.838 137.342 C 91.052 137.742,108.571 137.862,108.967 137.467 C 109.260 137.174,109.252 127.941,108.958 127.710 C 108.844 127.620,108.388 127.411,107.945 127.246 C 106.547 126.723,105.170 125.471,105.167 124.720 C 105.165 124.027,105.412 124.000,111.833 124.000 C 118.281 124.000,118.500 124.024,118.500 124.737 C 118.500 125.460,117.072 126.733,115.667 127.264 C 115.254 127.419,114.823 127.620,114.708 127.710 C 114.547 127.837,114.500 129.524,114.500 135.132 C 114.500 141.652,114.472 142.421,114.224 142.695 C 113.961 142.986,113.298 143.000,99.900 143.000 L 85.852 143.000 85.593 142.630 C 85.240 142.126,85.205 108.169,85.557 107.536 C 85.859 106.992,111.329 89.997,111.750 90.058 C 111.933 90.085,117.836 93.943,124.866 98.632 M115.258 113.272 C 115.847 113.974,116.347 113.949,116.706 113.198 C 117.021 112.540,120.989 112.403,121.397 113.037 C 121.644 113.420,119.621 121.535,119.132 122.125 C 118.935 122.362,104.748 122.433,104.379 122.198 C 104.205 122.088,101.833 113.853,101.833 113.361 C 101.833 112.696,102.117 112.667,108.554 112.667 L 114.750 112.667 115.258 113.272 " stroke="none" fill="#5fbddb" fill-rule="evenodd"/></g></svg>